<?xml version="1.0" encoding="UTF-8" standalone="no"?>
<!DOCTYPE svg PUBLIC "-//W3C//DTD SVG 1.1//EN"
 "http://www.w3.org/Graphics/SVG/1.1/DTD/svg11.dtd">
<!-- Generated by graphviz version 14.1.5 (20260411.2331)
 -->
<!-- Title: G Pages: 1 -->
<svg width="2324pt" height="2455pt"
 viewBox="0.00 0.00 2324.00 2455.00" xmlns="http://www.w3.org/2000/svg" xmlns:xlink="http://www.w3.org/1999/xlink">
<g id="graph0" class="graph" transform="scale(1 1) rotate(0) translate(21.6 2433.23)">
<title>G</title>
<polygon fill="#111111" stroke="none" points="-21.6,21.6 -21.6,-2433.23 2302.43,-2433.23 2302.43,21.6 -21.6,21.6"/>
<!-- ../config/constantes_deprecated.cjs -->
<g id="node1" class="node">
<title>../config/constantes_deprecated.cjs</title>
<path fill="none" stroke="#cfffac" d="M2005.58,-1715.75C2005.58,-1715.75 1793.92,-1715.75 1793.92,-1715.75 1789.96,-1715.75 1786,-1711.79 1786,-1707.83 1786,-1707.83 1786,-1699.92 1786,-1699.92 1786,-1695.96 1789.96,-1692 1793.92,-1692 1793.92,-1692 2005.58,-1692 2005.58,-1692 2009.54,-1692 2013.5,-1695.96 2013.5,-1699.92 2013.5,-1699.92 2013.5,-1707.83 2013.5,-1707.83 2013.5,-1711.79 2009.54,-1715.75 2005.58,-1715.75"/>
<text xml:space="preserve" text-anchor="middle" x="1899.75" y="-1698.45" font-family="Arial" font-size="14.00" fill="#cfffac">../config/constantes_deprecated.cjs</text>
</g>
<!-- ../config/database.js -->
<g id="node2" class="node">
<title>../config/database.js</title>
<path fill="none" stroke="#c6c5fe" d="M1404.36,-820.12C1404.36,-820.12 1284.2,-820.12 1284.2,-820.12 1280.24,-820.12 1276.28,-816.16 1276.28,-812.2 1276.28,-812.2 1276.28,-804.28 1276.28,-804.28 1276.28,-800.33 1280.24,-796.37 1284.2,-796.37 1284.2,-796.37 1404.36,-796.37 1404.36,-796.37 1408.32,-796.37 1412.28,-800.33 1412.28,-804.28 1412.28,-804.28 1412.28,-812.2 1412.28,-812.2 1412.28,-816.16 1408.32,-820.12 1404.36,-820.12"/>
<text xml:space="preserve" text-anchor="middle" x="1344.28" y="-802.82" font-family="Arial" font-size="14.00" fill="#c6c5fe">../config/database.js</text>
</g>
<!-- ../config/env.js -->
<g id="node3" class="node">
<title>../config/env.js</title>
<path fill="none" stroke="#cfffac" d="M1524.15,-987.32C1524.15,-987.32 1438.49,-987.32 1438.49,-987.32 1434.53,-987.32 1430.57,-983.37 1430.57,-979.41 1430.57,-979.41 1430.57,-971.49 1430.57,-971.49 1430.57,-967.53 1434.53,-963.57 1438.49,-963.57 1438.49,-963.57 1524.15,-963.57 1524.15,-963.57 1528.11,-963.57 1532.07,-967.53 1532.07,-971.49 1532.07,-971.49 1532.07,-979.41 1532.07,-979.41 1532.07,-983.37 1528.11,-987.32 1524.15,-987.32"/>
<text xml:space="preserve" text-anchor="middle" x="1481.32" y="-970.02" font-family="Arial" font-size="14.00" fill="#cfffac">../config/env.js</text>
</g>
<!-- ../config/database.js&#45;&gt;../config/env.js -->
<g id="edge1" class="edge">
<title>../config/database.js&#45;&gt;../config/env.js</title>
<path fill="none" stroke="#757575" d="M1354.36,-820.54C1377.62,-848.92 1435.29,-919.29 1464.21,-954.57"/>
<polygon fill="#757575" stroke="#757575" points="1461.22,-956.45 1470.27,-961.97 1466.64,-952.01 1461.22,-956.45"/>
</g>
<!-- ../config/log.js -->
<g id="node4" class="node">
<title>../config/log.js</title>
<path fill="none" stroke="#cfffac" d="M1198.12,-1064.05C1198.12,-1064.05 1115.45,-1064.05 1115.45,-1064.05 1111.49,-1064.05 1107.53,-1060.09 1107.53,-1056.13 1107.53,-1056.13 1107.53,-1048.22 1107.53,-1048.22 1107.53,-1044.26 1111.49,-1040.3 1115.45,-1040.3 1115.45,-1040.3 1198.12,-1040.3 1198.12,-1040.3 1202.07,-1040.3 1206.03,-1044.26 1206.03,-1048.22 1206.03,-1048.22 1206.03,-1056.13 1206.03,-1056.13 1206.03,-1060.09 1202.07,-1064.05 1198.12,-1064.05"/>
<text xml:space="preserve" text-anchor="middle" x="1156.78" y="-1046.75" font-family="Arial" font-size="14.00" fill="#cfffac">../config/log.js</text>
</g>
<!-- ../config/database.js&#45;&gt;../config/log.js -->
<g id="edge2" class="edge">
<title>../config/database.js&#45;&gt;../config/log.js</title>
<path fill="none" stroke="#757575" d="M1334.98,-820.34C1305.05,-859.27 1210.97,-981.67 1172.96,-1031.13"/>
<polygon fill="#757575" stroke="#757575" points="1170.38,-1028.74 1167.06,-1038.8 1175.93,-1033.01 1170.38,-1028.74"/>
</g>
<!-- ../config/socket.js -->
<g id="node5" class="node">
<title>../config/socket.js</title>
<path fill="none" stroke="#c6c5fe" d="M1175.18,-1163.55C1175.18,-1163.55 1071.51,-1163.55 1071.51,-1163.55 1067.55,-1163.55 1063.6,-1159.6 1063.6,-1155.64 1063.6,-1155.64 1063.6,-1147.72 1063.6,-1147.72 1063.6,-1143.76 1067.55,-1139.8 1071.51,-1139.8 1071.51,-1139.8 1175.18,-1139.8 1175.18,-1139.8 1179.14,-1139.8 1183.1,-1143.76 1183.1,-1147.72 1183.1,-1147.72 1183.1,-1155.64 1183.1,-1155.64 1183.1,-1159.6 1179.14,-1163.55 1175.18,-1163.55"/>
<text xml:space="preserve" text-anchor="middle" x="1123.35" y="-1146.25" font-family="Arial" font-size="14.00" fill="#c6c5fe">../config/socket.js</text>
</g>
<!-- ../config/socket.js&#45;&gt;../config/log.js -->
<g id="edge3" class="edge">
<title>../config/socket.js&#45;&gt;../config/log.js</title>
<path fill="none" stroke="#757575" d="M1127.45,-1139.48C1132.81,-1123.51 1142.32,-1095.22 1149.05,-1075.17"/>
<polygon fill="#757575" stroke="#757575" points="1152.3,-1076.5 1152.17,-1065.91 1145.66,-1074.27 1152.3,-1076.5"/>
</g>
<!-- gameState/managers/PlayersStateConnectionManager.js -->
<g id="node6" class="node">
<title>gameState/managers/PlayersStateConnectionManager.js</title>
<path fill="none" stroke="#cfffac" d="M997.33,-1250.56C997.33,-1250.56 651.42,-1250.56 651.42,-1250.56 647.46,-1250.56 643.5,-1246.6 643.5,-1242.64 643.5,-1242.64 643.5,-1234.73 643.5,-1234.73 643.5,-1230.77 647.46,-1226.81 651.42,-1226.81 651.42,-1226.81 997.33,-1226.81 997.33,-1226.81 1001.29,-1226.81 1005.25,-1230.77 1005.25,-1234.73 1005.25,-1234.73 1005.25,-1242.64 1005.25,-1242.64 1005.25,-1246.6 1001.29,-1250.56 997.33,-1250.56"/>
<text xml:space="preserve" text-anchor="middle" x="824.38" y="-1233.26" font-family="Arial" font-size="14.00" fill="#cfffac">gameState/managers/PlayersStateConnectionManager.js</text>
</g>
<!-- ../config/socket.js&#45;&gt;gameState/managers/PlayersStateConnectionManager.js -->
<g id="edge4" class="edge">
<title>../config/socket.js&#45;&gt;gameState/managers/PlayersStateConnectionManager.js</title>
<path fill="none" stroke="#757575" d="M1080.83,-1164.05C1027.37,-1179.61 935.57,-1206.33 877.53,-1223.22"/>
<polygon fill="#757575" stroke="#757575" points="876.82,-1219.78 868.2,-1225.93 878.78,-1226.5 876.82,-1219.78"/>
</g>
<!-- app.js -->
<g id="node7" class="node">
<title>app.js</title>
<path fill="none" stroke="#c6c5fe" d="M1640.13,-1146.17C1640.13,-1146.17 1601.97,-1146.17 1601.97,-1146.17 1598.01,-1146.17 1594.05,-1142.21 1594.05,-1138.25 1594.05,-1138.25 1594.05,-1130.33 1594.05,-1130.33 1594.05,-1126.37 1598.01,-1122.42 1601.97,-1122.42 1601.97,-1122.42 1640.13,-1122.42 1640.13,-1122.42 1644.09,-1122.42 1648.05,-1126.37 1648.05,-1130.33 1648.05,-1130.33 1648.05,-1138.25 1648.05,-1138.25 1648.05,-1142.21 1644.09,-1146.17 1640.13,-1146.17"/>
<text xml:space="preserve" text-anchor="middle" x="1621.05" y="-1128.87" font-family="Arial" font-size="14.00" fill="#c6c5fe">app.js</text>
</g>
<!-- app.js&#45;&gt;../config/env.js -->
<g id="edge5" class="edge">
<title>app.js&#45;&gt;../config/env.js</title>
<path fill="none" stroke="#757575" d="M1610.32,-1122.09C1586.49,-1095 1528.93,-1029.57 1499.42,-996.03"/>
<polygon fill="#757575" stroke="#757575" points="1502.13,-993.81 1492.9,-988.61 1496.87,-998.43 1502.13,-993.81"/>
</g>
<!-- app.js&#45;&gt;../config/log.js -->
<g id="edge6" class="edge">
<title>app.js&#45;&gt;../config/log.js</title>
<path fill="none" stroke="#757575" d="M1593.74,-1129.46C1520.75,-1116.55 1319.77,-1081 1217.81,-1062.97"/>
<polygon fill="#757575" stroke="#757575" points="1218.42,-1059.52 1207.97,-1061.23 1217.2,-1066.42 1218.42,-1059.52"/>
</g>
<!-- event/event.routes.js -->
<g id="node8" class="node">
<title>event/event.routes.js</title>
<path fill="none" stroke="#c6c5fe" d="M1922.98,-958.47C1922.98,-958.47 1798.31,-958.47 1798.31,-958.47 1794.35,-958.47 1790.4,-954.51 1790.4,-950.56 1790.4,-950.56 1790.4,-942.64 1790.4,-942.64 1790.4,-938.68 1794.35,-934.72 1798.31,-934.72 1798.31,-934.72 1922.98,-934.72 1922.98,-934.72 1926.94,-934.72 1930.9,-938.68 1930.9,-942.64 1930.9,-942.64 1930.9,-950.56 1930.9,-950.56 1930.9,-954.51 1926.94,-958.47 1922.98,-958.47"/>
<text xml:space="preserve" text-anchor="middle" x="1860.65" y="-941.17" font-family="Arial" font-size="14.00" fill="#c6c5fe">event/event.routes.js</text>
</g>
<!-- app.js&#45;&gt;event/event.routes.js -->
<g id="edge7" class="edge">
<title>app.js&#45;&gt;event/event.routes.js</title>
<path fill="none" stroke="#757575" d="M1636.77,-1121.98C1677.47,-1090.09 1786.54,-1004.65 1835.84,-966.03"/>
<polygon fill="#757575" stroke="#757575" points="1837.96,-968.81 1843.68,-959.89 1833.65,-963.3 1837.96,-968.81"/>
</g>
<!-- gameState/game.state.routes.js -->
<g id="node9" class="node">
<title>gameState/game.state.routes.js</title>
<path fill="none" stroke="#c6c5fe" d="M1822.26,-1050.35C1822.26,-1050.35 1630.1,-1050.35 1630.1,-1050.35 1626.14,-1050.35 1622.18,-1046.39 1622.18,-1042.44 1622.18,-1042.44 1622.18,-1034.52 1622.18,-1034.52 1622.18,-1030.56 1626.14,-1026.6 1630.1,-1026.6 1630.1,-1026.6 1822.26,-1026.6 1822.26,-1026.6 1826.22,-1026.6 1830.18,-1030.56 1830.18,-1034.52 1830.18,-1034.52 1830.18,-1042.44 1830.18,-1042.44 1830.18,-1046.39 1826.22,-1050.35 1822.26,-1050.35"/>
<text xml:space="preserve" text-anchor="middle" x="1726.18" y="-1033.05" font-family="Arial" font-size="14.00" fill="#c6c5fe">gameState/game.state.routes.js</text>
</g>
<!-- app.js&#45;&gt;gameState/game.state.routes.js -->
<g id="edge8" class="edge">
<title>app.js&#45;&gt;gameState/game.state.routes.js</title>
<path fill="none" stroke="#757575" d="M1634.37,-1122.16C1651.96,-1106.12 1683.2,-1077.65 1704.29,-1058.43"/>
<polygon fill="#757575" stroke="#757575" points="1706.49,-1061.16 1711.52,-1051.84 1701.77,-1055.98 1706.49,-1061.16"/>
</g>
<!-- session/avatar/avatar.routes.js -->
<g id="node10" class="node">
<title>session/avatar/avatar.routes.js</title>
<path fill="none" stroke="#c6c5fe" d="M1812.55,-1450.21C1812.55,-1450.21 1630.13,-1450.21 1630.13,-1450.21 1626.17,-1450.21 1622.21,-1446.26 1622.21,-1442.3 1622.21,-1442.3 1622.21,-1434.38 1622.21,-1434.38 1622.21,-1430.42 1626.17,-1426.46 1630.13,-1426.46 1630.13,-1426.46 1812.55,-1426.46 1812.55,-1426.46 1816.5,-1426.46 1820.46,-1430.42 1820.46,-1434.38 1820.46,-1434.38 1820.46,-1442.3 1820.46,-1442.3 1820.46,-1446.26 1816.5,-1450.21 1812.55,-1450.21"/>
<text xml:space="preserve" text-anchor="middle" x="1721.34" y="-1432.91" font-family="Arial" font-size="14.00" fill="#c6c5fe">session/avatar/avatar.routes.js</text>
</g>
<!-- app.js&#45;&gt;session/avatar/avatar.routes.js -->
<g id="edge9" class="edge">
<title>app.js&#45;&gt;session/avatar/avatar.routes.js</title>
<path fill="none" stroke="#757575" d="M1625.11,-1146.59C1640.29,-1192.62 1693.93,-1355.24 1713.83,-1415.58"/>
<polygon fill="#757575" stroke="#757575" points="1710.41,-1416.39 1716.87,-1424.79 1717.06,-1414.19 1710.41,-1416.39"/>
</g>
<!-- session/rules/rules.routes.js -->
<g id="node11" class="node">
<title>session/rules/rules.routes.js</title>
<path fill="none" stroke="#c6c5fe" d="M1909.34,-1174.72C1909.34,-1174.72 1742.68,-1174.72 1742.68,-1174.72 1738.72,-1174.72 1734.76,-1170.76 1734.76,-1166.81 1734.76,-1166.81 1734.76,-1158.89 1734.76,-1158.89 1734.76,-1154.93 1738.72,-1150.97 1742.68,-1150.97 1742.68,-1150.97 1909.34,-1150.97 1909.34,-1150.97 1913.3,-1150.97 1917.26,-1154.93 1917.26,-1158.89 1917.26,-1158.89 1917.26,-1166.81 1917.26,-1166.81 1917.26,-1170.76 1913.3,-1174.72 1909.34,-1174.72"/>
<text xml:space="preserve" text-anchor="middle" x="1826.01" y="-1157.42" font-family="Arial" font-size="14.00" fill="#c6c5fe">session/rules/rules.routes.js</text>
</g>
<!-- app.js&#45;&gt;session/rules/rules.routes.js -->
<g id="edge10" class="edge">
<title>app.js&#45;&gt;session/rules/rules.routes.js</title>
<path fill="none" stroke="#757575" d="M1648.27,-1138.08C1668.46,-1140.9 1697.33,-1144.92 1725.95,-1148.91"/>
<polygon fill="#757575" stroke="#757575" points="1725.42,-1152.37 1735.81,-1150.28 1726.39,-1145.43 1725.42,-1152.37"/>
</g>
<!-- session/session.routes.js -->
<g id="node12" class="node">
<title>session/session.routes.js</title>
<path fill="none" stroke="#c6c5fe" d="M1789.32,-1302.66C1789.32,-1302.66 1639.16,-1302.66 1639.16,-1302.66 1635.2,-1302.66 1631.24,-1298.7 1631.24,-1294.74 1631.24,-1294.74 1631.24,-1286.82 1631.24,-1286.82 1631.24,-1282.87 1635.2,-1278.91 1639.16,-1278.91 1639.16,-1278.91 1789.32,-1278.91 1789.32,-1278.91 1793.28,-1278.91 1797.24,-1282.87 1797.24,-1286.82 1797.24,-1286.82 1797.24,-1294.74 1797.24,-1294.74 1797.24,-1298.7 1793.28,-1302.66 1789.32,-1302.66"/>
<text xml:space="preserve" text-anchor="middle" x="1714.24" y="-1285.36" font-family="Arial" font-size="14.00" fill="#c6c5fe">session/session.routes.js</text>
</g>
<!-- app.js&#45;&gt;session/session.routes.js -->
<g id="edge11" class="edge">
<title>app.js&#45;&gt;session/session.routes.js</title>
<path fill="none" stroke="#757575" d="M1628.36,-1146.57C1644.08,-1172.97 1681.28,-1235.42 1701.16,-1268.82"/>
<polygon fill="#757575" stroke="#757575" points="1698.06,-1270.46 1706.19,-1277.26 1704.08,-1266.88 1698.06,-1270.46"/>
</g>
<!-- survey/survey.routes.js -->
<g id="node13" class="node">
<title>survey/survey.routes.js</title>
<path fill="none" stroke="#c6c5fe" d="M1890.01,-1384.23C1890.01,-1384.23 1752.59,-1384.23 1752.59,-1384.23 1748.63,-1384.23 1744.67,-1380.27 1744.67,-1376.31 1744.67,-1376.31 1744.67,-1368.4 1744.67,-1368.4 1744.67,-1364.44 1748.63,-1360.48 1752.59,-1360.48 1752.59,-1360.48 1890.01,-1360.48 1890.01,-1360.48 1893.97,-1360.48 1897.92,-1364.44 1897.92,-1368.4 1897.92,-1368.4 1897.92,-1376.31 1897.92,-1376.31 1897.92,-1380.27 1893.97,-1384.23 1890.01,-1384.23"/>
<text xml:space="preserve" text-anchor="middle" x="1821.3" y="-1366.93" font-family="Arial" font-size="14.00" fill="#c6c5fe">survey/survey.routes.js</text>
</g>
<!-- app.js&#45;&gt;survey/survey.routes.js -->
<g id="edge12" class="edge">
<title>app.js&#45;&gt;survey/survey.routes.js</title>
<path fill="none" stroke="#757575" d="M1631.26,-1146.42C1663.46,-1184.71 1763.2,-1303.28 1803.82,-1351.57"/>
<polygon fill="#757575" stroke="#757575" points="1801.02,-1353.69 1810.14,-1359.09 1806.38,-1349.18 1801.02,-1353.69"/>
</g>
<!-- event/event.controller.js -->
<g id="node14" class="node">
<title>event/event.controller.js</title>
<path fill="none" stroke="#c6c5fe" d="M1570.2,-830.75C1570.2,-830.75 1428.28,-830.75 1428.28,-830.75 1424.32,-830.75 1420.36,-826.79 1420.36,-822.84 1420.36,-822.84 1420.36,-814.92 1420.36,-814.92 1420.36,-810.96 1424.32,-807 1428.28,-807 1428.28,-807 1570.2,-807 1570.2,-807 1574.15,-807 1578.11,-810.96 1578.11,-814.92 1578.11,-814.92 1578.11,-822.84 1578.11,-822.84 1578.11,-826.79 1574.15,-830.75 1570.2,-830.75"/>
<text xml:space="preserve" text-anchor="middle" x="1499.24" y="-813.45" font-family="Arial" font-size="14.00" fill="#c6c5fe">event/event.controller.js</text>
</g>
<!-- event/event.routes.js&#45;&gt;event/event.controller.js -->
<g id="edge16" class="edge">
<title>event/event.routes.js&#45;&gt;event/event.controller.js</title>
<path fill="none" stroke="#757575" d="M1825.66,-934.24C1759.95,-911.01 1618.11,-860.88 1544.94,-835.03"/>
<polygon fill="#757575" stroke="#757575" points="1546.26,-831.78 1535.67,-831.75 1543.93,-838.38 1546.26,-831.78"/>
</g>
<!-- event/event.sanitize.js -->
<g id="node18" class="node">
<title>event/event.sanitize.js</title>
<path fill="none" stroke="#c6c5fe" d="M2272.92,-1000.56C2272.92,-1000.56 2140,-1000.56 2140,-1000.56 2136.04,-1000.56 2132.08,-996.61 2132.08,-992.65 2132.08,-992.65 2132.08,-984.73 2132.08,-984.73 2132.08,-980.77 2136.04,-976.81 2140,-976.81 2140,-976.81 2272.92,-976.81 2272.92,-976.81 2276.88,-976.81 2280.83,-980.77 2280.83,-984.73 2280.83,-984.73 2280.83,-992.65 2280.83,-992.65 2280.83,-996.61 2276.88,-1000.56 2272.92,-1000.56"/>
<text xml:space="preserve" text-anchor="middle" x="2206.46" y="-983.26" font-family="Arial" font-size="14.00" fill="#c6c5fe">event/event.sanitize.js</text>
</g>
<!-- event/event.routes.js&#45;&gt;event/event.sanitize.js -->
<g id="edge17" class="edge">
<title>event/event.routes.js&#45;&gt;event/event.sanitize.js</title>
<path fill="none" stroke="#757575" d="M1931.04,-955.17C1985.75,-961.83 2061.89,-971.09 2120.25,-978.2"/>
<polygon fill="#757575" stroke="#757575" points="2119.82,-981.67 2130.17,-979.4 2120.67,-974.72 2119.82,-981.67"/>
</g>
<!-- misc/validate.tool.js -->
<g id="node19" class="node">
<title>misc/validate.tool.js</title>
<path fill="none" stroke="#c6c5fe" d="M1996.02,-1254.18C1996.02,-1254.18 1878.1,-1254.18 1878.1,-1254.18 1874.14,-1254.18 1870.19,-1250.22 1870.19,-1246.26 1870.19,-1246.26 1870.19,-1238.34 1870.19,-1238.34 1870.19,-1234.38 1874.14,-1230.43 1878.1,-1230.43 1878.1,-1230.43 1996.02,-1230.43 1996.02,-1230.43 1999.98,-1230.43 2003.94,-1234.38 2003.94,-1238.34 2003.94,-1238.34 2003.94,-1246.26 2003.94,-1246.26 2003.94,-1250.22 1999.98,-1254.18 1996.02,-1254.18"/>
<text xml:space="preserve" text-anchor="middle" x="1937.06" y="-1236.88" font-family="Arial" font-size="14.00" fill="#c6c5fe">misc/validate.tool.js</text>
</g>
<!-- event/event.routes.js&#45;&gt;misc/validate.tool.js -->
<g id="edge18" class="edge">
<title>event/event.routes.js&#45;&gt;misc/validate.tool.js</title>
<path fill="none" stroke="#757575" d="M1863.83,-958.93C1875.46,-1003.93 1915.74,-1159.79 1931.07,-1219.12"/>
<polygon fill="#757575" stroke="#757575" points="1927.68,-1219.97 1933.57,-1228.78 1934.45,-1218.22 1927.68,-1219.97"/>
</g>
<!-- gameState/game.state.routes.js&#45;&gt;misc/validate.tool.js -->
<g id="edge31" class="edge">
<title>gameState/game.state.routes.js&#45;&gt;misc/validate.tool.js</title>
<path fill="none" stroke="#757575" d="M1738.74,-1050.62C1773.75,-1084.45 1872.69,-1180.08 1916.15,-1222.09"/>
<polygon fill="#757575" stroke="#757575" points="1913.59,-1224.48 1923.21,-1228.91 1918.45,-1219.45 1913.59,-1224.48"/>
</g>
<!-- gameState/game.state.controller.js -->
<g id="node21" class="node">
<title>gameState/game.state.controller.js</title>
<path fill="none" stroke="#c6c5fe" d="M1363.71,-1095.82C1363.71,-1095.82 1154.29,-1095.82 1154.29,-1095.82 1150.33,-1095.82 1146.37,-1091.86 1146.37,-1087.9 1146.37,-1087.9 1146.37,-1079.98 1146.37,-1079.98 1146.37,-1076.03 1150.33,-1072.07 1154.29,-1072.07 1154.29,-1072.07 1363.71,-1072.07 1363.71,-1072.07 1367.66,-1072.07 1371.62,-1076.03 1371.62,-1079.98 1371.62,-1079.98 1371.62,-1087.9 1371.62,-1087.9 1371.62,-1091.86 1367.66,-1095.82 1363.71,-1095.82"/>
<text xml:space="preserve" text-anchor="middle" x="1259" y="-1078.52" font-family="Arial" font-size="14.00" fill="#c6c5fe">gameState/game.state.controller.js</text>
</g>
<!-- gameState/game.state.routes.js&#45;&gt;gameState/game.state.controller.js -->
<g id="edge29" class="edge">
<title>gameState/game.state.routes.js&#45;&gt;gameState/game.state.controller.js</title>
<path fill="none" stroke="#757575" d="M1621.92,-1048.62C1551.32,-1055.49 1457.7,-1064.6 1383.24,-1071.85"/>
<polygon fill="#757575" stroke="#757575" points="1383.05,-1068.35 1373.43,-1072.81 1383.73,-1075.32 1383.05,-1068.35"/>
</g>
<!-- gameState/sanitizers/game.state.sanitize.js -->
<g id="node28" class="node">
<title>gameState/sanitizers/game.state.sanitize.js</title>
<path fill="none" stroke="#c6c5fe" d="M2115.96,-998.26C2115.96,-998.26 1854.79,-998.26 1854.79,-998.26 1850.83,-998.26 1846.88,-994.31 1846.88,-990.35 1846.88,-990.35 1846.88,-982.43 1846.88,-982.43 1846.88,-978.47 1850.83,-974.51 1854.79,-974.51 1854.79,-974.51 2115.96,-974.51 2115.96,-974.51 2119.92,-974.51 2123.88,-978.47 2123.88,-982.43 2123.88,-982.43 2123.88,-990.35 2123.88,-990.35 2123.88,-994.31 2119.92,-998.26 2115.96,-998.26"/>
<text xml:space="preserve" text-anchor="middle" x="1985.38" y="-980.96" font-family="Arial" font-size="14.00" fill="#c6c5fe">gameState/sanitizers/game.state.sanitize.js</text>
</g>
<!-- gameState/game.state.routes.js&#45;&gt;gameState/sanitizers/game.state.sanitize.js -->
<g id="edge30" class="edge">
<title>gameState/game.state.routes.js&#45;&gt;gameState/sanitizers/game.state.sanitize.js</title>
<path fill="none" stroke="#757575" d="M1787.61,-1026.13C1825.16,-1018.59 1873.38,-1008.9 1912.81,-1000.97"/>
<polygon fill="#757575" stroke="#757575" points="1913.34,-1004.43 1922.46,-999.03 1911.96,-997.57 1913.34,-1004.43"/>
</g>
<!-- session/avatar/avatar.routes.js&#45;&gt;misc/validate.tool.js -->
<g id="edge77" class="edge">
<title>session/avatar/avatar.routes.js&#45;&gt;misc/validate.tool.js</title>
<path fill="none" stroke="#757575" d="M1734.83,-1426.08C1771.08,-1393.14 1870.8,-1302.52 1915.22,-1262.15"/>
<polygon fill="#757575" stroke="#757575" points="1917.4,-1264.89 1922.45,-1255.58 1912.7,-1259.71 1917.4,-1264.89"/>
</g>
<!-- session/avatar/avatar.controller.js -->
<g id="node43" class="node">
<title>session/avatar/avatar.controller.js</title>
<path fill="none" stroke="#c6c5fe" d="M1369.26,-1449.08C1369.26,-1449.08 1169.59,-1449.08 1169.59,-1449.08 1165.63,-1449.08 1161.68,-1445.13 1161.68,-1441.17 1161.68,-1441.17 1161.68,-1433.25 1161.68,-1433.25 1161.68,-1429.29 1165.63,-1425.33 1169.59,-1425.33 1169.59,-1425.33 1369.26,-1425.33 1369.26,-1425.33 1373.22,-1425.33 1377.18,-1429.29 1377.18,-1433.25 1377.18,-1433.25 1377.18,-1441.17 1377.18,-1441.17 1377.18,-1445.13 1373.22,-1449.08 1369.26,-1449.08"/>
<text xml:space="preserve" text-anchor="middle" x="1269.43" y="-1431.78" font-family="Arial" font-size="14.00" fill="#c6c5fe">session/avatar/avatar.controller.js</text>
</g>
<!-- session/avatar/avatar.routes.js&#45;&gt;session/avatar/avatar.controller.js -->
<g id="edge78" class="edge">
<title>session/avatar/avatar.routes.js&#45;&gt;session/avatar/avatar.controller.js</title>
<path fill="none" stroke="#757575" d="M1621.88,-1438.09C1553.18,-1437.92 1461.47,-1437.69 1388.81,-1437.51"/>
<polygon fill="#757575" stroke="#757575" points="1388.84,-1434.01 1378.84,-1437.48 1388.83,-1441.01 1388.84,-1434.01"/>
</g>
<!-- session/avatar/avatar.sanitize.js -->
<g id="node45" class="node">
<title>session/avatar/avatar.sanitize.js</title>
<path fill="none" stroke="#c6c5fe" d="M2131.48,-1532.31C2131.48,-1532.31 1940.81,-1532.31 1940.81,-1532.31 1936.85,-1532.31 1932.9,-1528.35 1932.9,-1524.39 1932.9,-1524.39 1932.9,-1516.47 1932.9,-1516.47 1932.9,-1512.51 1936.85,-1508.56 1940.81,-1508.56 1940.81,-1508.56 2131.48,-1508.56 2131.48,-1508.56 2135.44,-1508.56 2139.4,-1512.51 2139.4,-1516.47 2139.4,-1516.47 2139.4,-1524.39 2139.4,-1524.39 2139.4,-1528.35 2135.44,-1532.31 2131.48,-1532.31"/>
<text xml:space="preserve" text-anchor="middle" x="2036.15" y="-1515.01" font-family="Arial" font-size="14.00" fill="#c6c5fe">session/avatar/avatar.sanitize.js</text>
</g>
<!-- session/avatar/avatar.routes.js&#45;&gt;session/avatar/avatar.sanitize.js -->
<g id="edge79" class="edge">
<title>session/avatar/avatar.routes.js&#45;&gt;session/avatar/avatar.sanitize.js</title>
<path fill="none" stroke="#757575" d="M1768.47,-1450.63C1824.34,-1465.2 1917.46,-1489.48 1977.82,-1505.22"/>
<polygon fill="#757575" stroke="#757575" points="1976.67,-1508.54 1987.23,-1507.68 1978.44,-1501.76 1976.67,-1508.54"/>
</g>
<!-- session/rules/rules.routes.js&#45;&gt;misc/validate.tool.js -->
<g id="edge85" class="edge">
<title>session/rules/rules.routes.js&#45;&gt;misc/validate.tool.js</title>
<path fill="none" stroke="#757575" d="M1842.88,-1174.92C1860.9,-1187.81 1889.7,-1208.41 1910.71,-1223.45"/>
<polygon fill="#757575" stroke="#757575" points="1908.64,-1226.27 1918.81,-1229.24 1912.71,-1220.57 1908.64,-1226.27"/>
</g>
<!-- session/rules/rules.controller.js -->
<g id="node48" class="node">
<title>session/rules/rules.controller.js</title>
<path fill="none" stroke="#c6c5fe" d="M1479.87,-1204.14C1479.87,-1204.14 1295.96,-1204.14 1295.96,-1204.14 1292,-1204.14 1288.04,-1200.18 1288.04,-1196.23 1288.04,-1196.23 1288.04,-1188.31 1288.04,-1188.31 1288.04,-1184.35 1292,-1180.39 1295.96,-1180.39 1295.96,-1180.39 1479.87,-1180.39 1479.87,-1180.39 1483.83,-1180.39 1487.79,-1184.35 1487.79,-1188.31 1487.79,-1188.31 1487.79,-1196.23 1487.79,-1196.23 1487.79,-1200.18 1483.83,-1204.14 1479.87,-1204.14"/>
<text xml:space="preserve" text-anchor="middle" x="1387.91" y="-1186.84" font-family="Arial" font-size="14.00" fill="#c6c5fe">session/rules/rules.controller.js</text>
</g>
<!-- session/rules/rules.routes.js&#45;&gt;session/rules/rules.controller.js -->
<g id="edge86" class="edge">
<title>session/rules/rules.routes.js&#45;&gt;session/rules/rules.controller.js</title>
<path fill="none" stroke="#757575" d="M1734.44,-1169C1665.96,-1173.6 1572,-1179.91 1499.19,-1184.8"/>
<polygon fill="#757575" stroke="#757575" points="1499.4,-1181.27 1489.66,-1185.43 1499.87,-1188.26 1499.4,-1181.27"/>
</g>
<!-- session/rules/rules.sanitize.js -->
<g id="node49" class="node">
<title>session/rules/rules.sanitize.js</title>
<path fill="none" stroke="#c6c5fe" d="M2252.31,-1190.62C2252.31,-1190.62 2077.39,-1190.62 2077.39,-1190.62 2073.43,-1190.62 2069.48,-1186.66 2069.48,-1182.7 2069.48,-1182.7 2069.48,-1174.79 2069.48,-1174.79 2069.48,-1170.83 2073.43,-1166.87 2077.39,-1166.87 2077.39,-1166.87 2252.31,-1166.87 2252.31,-1166.87 2256.27,-1166.87 2260.23,-1170.83 2260.23,-1174.79 2260.23,-1174.79 2260.23,-1182.7 2260.23,-1182.7 2260.23,-1186.66 2256.27,-1190.62 2252.31,-1190.62"/>
<text xml:space="preserve" text-anchor="middle" x="2164.85" y="-1173.32" font-family="Arial" font-size="14.00" fill="#c6c5fe">session/rules/rules.sanitize.js</text>
</g>
<!-- session/rules/rules.routes.js&#45;&gt;session/rules/rules.sanitize.js -->
<g id="edge87" class="edge">
<title>session/rules/rules.routes.js&#45;&gt;session/rules/rules.sanitize.js</title>
<path fill="none" stroke="#757575" d="M1917.7,-1167.15C1960.98,-1169.18 2012.89,-1171.62 2057.94,-1173.73"/>
<polygon fill="#757575" stroke="#757575" points="2057.57,-1177.22 2067.73,-1174.19 2057.9,-1170.22 2057.57,-1177.22"/>
</g>
<!-- session/session.routes.js&#45;&gt;misc/validate.tool.js -->
<g id="edge99" class="edge">
<title>session/session.routes.js&#45;&gt;misc/validate.tool.js</title>
<path fill="none" stroke="#757575" d="M1771.04,-1278.42C1801.03,-1271.9 1838.03,-1263.85 1869.49,-1257"/>
<polygon fill="#757575" stroke="#757575" points="1869.86,-1260.51 1878.88,-1254.96 1868.37,-1253.67 1869.86,-1260.51"/>
</g>
<!-- session/session.controller.js -->
<g id="node51" class="node">
<title>session/session.controller.js</title>
<path fill="none" stroke="#c6c5fe" d="M1371.72,-1235.92C1371.72,-1235.92 1204.31,-1235.92 1204.31,-1235.92 1200.35,-1235.92 1196.39,-1231.96 1196.39,-1228 1196.39,-1228 1196.39,-1220.08 1196.39,-1220.08 1196.39,-1216.13 1200.35,-1212.17 1204.31,-1212.17 1204.31,-1212.17 1371.72,-1212.17 1371.72,-1212.17 1375.68,-1212.17 1379.64,-1216.13 1379.64,-1220.08 1379.64,-1220.08 1379.64,-1228 1379.64,-1228 1379.64,-1231.96 1375.68,-1235.92 1371.72,-1235.92"/>
<text xml:space="preserve" text-anchor="middle" x="1288.01" y="-1218.62" font-family="Arial" font-size="14.00" fill="#c6c5fe">session/session.controller.js</text>
</g>
<!-- session/session.routes.js&#45;&gt;session/session.controller.js -->
<g id="edge100" class="edge">
<title>session/session.routes.js&#45;&gt;session/session.controller.js</title>
<path fill="none" stroke="#757575" d="M1635.57,-1278.46C1562.66,-1267.05 1454.28,-1250.08 1377.97,-1238.13"/>
<polygon fill="#757575" stroke="#757575" points="1378.87,-1234.73 1368.45,-1236.64 1377.78,-1241.64 1378.87,-1234.73"/>
</g>
<!-- session/session.sanitize.js -->
<g id="node54" class="node">
<title>session/session.sanitize.js</title>
<path fill="none" stroke="#c6c5fe" d="M2066.67,-1433.45C2066.67,-1433.45 1908.25,-1433.45 1908.25,-1433.45 1904.29,-1433.45 1900.33,-1429.49 1900.33,-1425.53 1900.33,-1425.53 1900.33,-1417.62 1900.33,-1417.62 1900.33,-1413.66 1904.29,-1409.7 1908.25,-1409.7 1908.25,-1409.7 2066.67,-1409.7 2066.67,-1409.7 2070.62,-1409.7 2074.58,-1413.66 2074.58,-1417.62 2074.58,-1417.62 2074.58,-1425.53 2074.58,-1425.53 2074.58,-1429.49 2070.62,-1433.45 2066.67,-1433.45"/>
<text xml:space="preserve" text-anchor="middle" x="1987.46" y="-1416.15" font-family="Arial" font-size="14.00" fill="#c6c5fe">session/session.sanitize.js</text>
</g>
<!-- session/session.routes.js&#45;&gt;session/session.sanitize.js -->
<g id="edge101" class="edge">
<title>session/session.routes.js&#45;&gt;session/session.sanitize.js</title>
<path fill="none" stroke="#757575" d="M1739.95,-1303.09C1788.87,-1326.51 1895.46,-1377.54 1951.46,-1404.34"/>
<polygon fill="#757575" stroke="#757575" points="1949.73,-1407.39 1960.26,-1408.55 1952.75,-1401.08 1949.73,-1407.39"/>
</g>
<!-- survey/survey.routes.js&#45;&gt;misc/validate.tool.js -->
<g id="edge113" class="edge">
<title>survey/survey.routes.js&#45;&gt;misc/validate.tool.js</title>
<path fill="none" stroke="#757575" d="M1831.98,-1360.35C1851.69,-1338.21 1894.01,-1290.67 1918.5,-1263.15"/>
<polygon fill="#757575" stroke="#757575" points="1921.03,-1265.58 1925.06,-1255.78 1915.8,-1260.93 1921.03,-1265.58"/>
</g>
<!-- survey/survey.controller.js -->
<g id="node55" class="node">
<title>survey/survey.controller.js</title>
<path fill="none" stroke="#c6c5fe" d="M1491.62,-1382.98C1491.62,-1382.98 1336.96,-1382.98 1336.96,-1382.98 1333,-1382.98 1329.04,-1379.02 1329.04,-1375.06 1329.04,-1375.06 1329.04,-1367.14 1329.04,-1367.14 1329.04,-1363.18 1333,-1359.23 1336.96,-1359.23 1336.96,-1359.23 1491.62,-1359.23 1491.62,-1359.23 1495.58,-1359.23 1499.54,-1363.18 1499.54,-1367.14 1499.54,-1367.14 1499.54,-1375.06 1499.54,-1375.06 1499.54,-1379.02 1495.58,-1382.98 1491.62,-1382.98"/>
<text xml:space="preserve" text-anchor="middle" x="1414.29" y="-1365.68" font-family="Arial" font-size="14.00" fill="#c6c5fe">survey/survey.controller.js</text>
</g>
<!-- survey/survey.routes.js&#45;&gt;survey/survey.controller.js -->
<g id="edge114" class="edge">
<title>survey/survey.routes.js&#45;&gt;survey/survey.controller.js</title>
<path fill="none" stroke="#757575" d="M1744.26,-1372.12C1678.09,-1371.91 1582.36,-1371.62 1511.03,-1371.4"/>
<polygon fill="#757575" stroke="#757575" points="1511.33,-1367.9 1501.32,-1371.37 1511.3,-1374.9 1511.33,-1367.9"/>
</g>
<!-- survey/survey.sanitize.js -->
<g id="node58" class="node">
<title>survey/survey.sanitize.js</title>
<path fill="none" stroke="#c6c5fe" d="M2236.34,-1403.4C2236.34,-1403.4 2090.67,-1403.4 2090.67,-1403.4 2086.71,-1403.4 2082.75,-1399.44 2082.75,-1395.48 2082.75,-1395.48 2082.75,-1387.57 2082.75,-1387.57 2082.75,-1383.61 2086.71,-1379.65 2090.67,-1379.65 2090.67,-1379.65 2236.34,-1379.65 2236.34,-1379.65 2240.29,-1379.65 2244.25,-1383.61 2244.25,-1387.57 2244.25,-1387.57 2244.25,-1395.48 2244.25,-1395.48 2244.25,-1399.44 2240.29,-1403.4 2236.34,-1403.4"/>
<text xml:space="preserve" text-anchor="middle" x="2163.5" y="-1386.1" font-family="Arial" font-size="14.00" fill="#c6c5fe">survey/survey.sanitize.js</text>
</g>
<!-- survey/survey.routes.js&#45;&gt;survey/survey.sanitize.js -->
<g id="edge115" class="edge">
<title>survey/survey.routes.js&#45;&gt;survey/survey.sanitize.js</title>
<path fill="none" stroke="#757575" d="M1898.1,-1376.66C1949.33,-1379.53 2016.97,-1383.32 2071.15,-1386.35"/>
<polygon fill="#757575" stroke="#757575" points="2070.8,-1389.84 2080.98,-1386.9 2071.19,-1382.85 2070.8,-1389.84"/>
</g>
<!-- event/event.controller.js&#45;&gt;../config/log.js -->
<g id="edge13" class="edge">
<title>event/event.controller.js&#45;&gt;../config/log.js</title>
<path fill="none" stroke="#757575" d="M1481.31,-831.09C1424.9,-869.52 1250.86,-988.09 1183.65,-1033.87"/>
<polygon fill="#757575" stroke="#757575" points="1182.08,-1030.71 1175.79,-1039.23 1186.02,-1036.49 1182.08,-1030.71"/>
</g>
<!-- event/event.service.js -->
<g id="node15" class="node">
<title>event/event.service.js</title>
<path fill="none" stroke="#c6c5fe" d="M1260.28,-818.29C1260.28,-818.29 1130.37,-818.29 1130.37,-818.29 1126.41,-818.29 1122.45,-814.33 1122.45,-810.37 1122.45,-810.37 1122.45,-802.45 1122.45,-802.45 1122.45,-798.49 1126.41,-794.54 1130.37,-794.54 1130.37,-794.54 1260.28,-794.54 1260.28,-794.54 1264.24,-794.54 1268.2,-798.49 1268.2,-802.45 1268.2,-802.45 1268.2,-810.37 1268.2,-810.37 1268.2,-814.33 1264.24,-818.29 1260.28,-818.29"/>
<text xml:space="preserve" text-anchor="middle" x="1195.32" y="-800.99" font-family="Arial" font-size="14.00" fill="#c6c5fe">event/event.service.js</text>
</g>
<!-- event/event.controller.js&#45;&gt;event/event.service.js -->
<g id="edge14" class="edge">
<title>event/event.controller.js&#45;&gt;event/event.service.js</title>
<path fill="none" stroke="#757575" d="M1420.18,-815.63C1377.06,-813.87 1323.68,-811.68 1279.76,-809.87"/>
<polygon fill="#757575" stroke="#757575" points="1280.16,-806.39 1270.02,-809.48 1279.87,-813.38 1280.16,-806.39"/>
</g>
<!-- event/event.model.js -->
<g id="node16" class="node">
<title>event/event.model.js</title>
<path fill="none" stroke="#c6c5fe" d="M1225.99,-337.56C1225.99,-337.56 1101.32,-337.56 1101.32,-337.56 1097.37,-337.56 1093.41,-333.61 1093.41,-329.65 1093.41,-329.65 1093.41,-321.73 1093.41,-321.73 1093.41,-317.77 1097.37,-313.81 1101.32,-313.81 1101.32,-313.81 1225.99,-313.81 1225.99,-313.81 1229.95,-313.81 1233.91,-317.77 1233.91,-321.73 1233.91,-321.73 1233.91,-329.65 1233.91,-329.65 1233.91,-333.61 1229.95,-337.56 1225.99,-337.56"/>
<text xml:space="preserve" text-anchor="middle" x="1163.66" y="-320.26" font-family="Arial" font-size="14.00" fill="#c6c5fe">event/event.model.js</text>
</g>
<!-- event/event.service.js&#45;&gt;event/event.model.js -->
<g id="edge20" class="edge">
<title>event/event.service.js&#45;&gt;event/event.model.js</title>
<path fill="none" stroke="#757575" d="M1194.51,-794.04C1190.29,-729.96 1170.88,-435.28 1165.21,-349.3"/>
<polygon fill="#757575" stroke="#757575" points="1168.72,-349.23 1164.57,-339.48 1161.73,-349.69 1168.72,-349.23"/>
</g>
<!-- event/event.schema.js -->
<g id="node17" class="node">
<title>event/event.schema.js</title>
<path fill="none" stroke="#cfffac" d="M1217.05,-23.75C1217.05,-23.75 1081.88,-23.75 1081.88,-23.75 1077.92,-23.75 1073.96,-19.79 1073.96,-15.83 1073.96,-15.83 1073.96,-7.92 1073.96,-7.92 1073.96,-3.96 1077.92,0 1081.88,0 1081.88,0 1217.05,0 1217.05,0 1221.01,0 1224.96,-3.96 1224.96,-7.92 1224.96,-7.92 1224.96,-15.83 1224.96,-15.83 1224.96,-19.79 1221.01,-23.75 1217.05,-23.75"/>
<text xml:space="preserve" text-anchor="middle" x="1149.46" y="-6.45" font-family="Arial" font-size="14.00" fill="#cfffac">event/event.schema.js</text>
</g>
<!-- event/event.model.js&#45;&gt;event/event.schema.js -->
<g id="edge15" class="edge">
<title>event/event.model.js&#45;&gt;event/event.schema.js</title>
<path fill="none" stroke="#757575" d="M1163.1,-313.39C1160.98,-266.42 1153.36,-97.93 1150.53,-35.43"/>
<polygon fill="#757575" stroke="#757575" points="1154.03,-35.44 1150.09,-25.6 1147.04,-35.75 1154.03,-35.44"/>
</g>
<!-- event/event.sanitize.js&#45;&gt;misc/validate.tool.js -->
<g id="edge19" class="edge">
<title>event/event.sanitize.js&#45;&gt;misc/validate.tool.js</title>
<path fill="none" stroke="#757575" d="M2193.47,-1000.92C2150.34,-1041.51 2011.7,-1172.04 1958.3,-1222.31"/>
<polygon fill="#757575" stroke="#757575" points="1955.91,-1219.75 1951.03,-1229.15 1960.71,-1224.85 1955.91,-1219.75"/>
</g>
<!-- misc/misc.tool.js -->
<g id="node40" class="node">
<title>misc/misc.tool.js</title>
<path fill="none" stroke="#cfffac" d="M1606.14,-1424.33C1606.14,-1424.33 1506.22,-1424.33 1506.22,-1424.33 1502.26,-1424.33 1498.31,-1420.37 1498.31,-1416.41 1498.31,-1416.41 1498.31,-1408.49 1498.31,-1408.49 1498.31,-1404.54 1502.26,-1400.58 1506.22,-1400.58 1506.22,-1400.58 1606.14,-1400.58 1606.14,-1400.58 1610.1,-1400.58 1614.06,-1404.54 1614.06,-1408.49 1614.06,-1408.49 1614.06,-1416.41 1614.06,-1416.41 1614.06,-1420.37 1610.1,-1424.33 1606.14,-1424.33"/>
<text xml:space="preserve" text-anchor="middle" x="1556.18" y="-1407.03" font-family="Arial" font-size="14.00" fill="#cfffac">misc/misc.tool.js</text>
</g>
<!-- misc/validate.tool.js&#45;&gt;misc/misc.tool.js -->
<g id="edge68" class="edge">
<title>misc/validate.tool.js&#45;&gt;misc/misc.tool.js</title>
<path fill="none" stroke="#757575" d="M1909.36,-1254.67C1842.17,-1284.69 1670.41,-1361.42 1593.92,-1395.6"/>
<polygon fill="#757575" stroke="#757575" points="1592.86,-1392.23 1585.16,-1399.51 1595.71,-1398.62 1592.86,-1392.23"/>
</g>
<!-- gameState/bank.controller.js -->
<g id="node20" class="node">
<title>gameState/bank.controller.js</title>
<path fill="none" stroke="#cfffac" d="M1777.08,-775.75C1777.08,-775.75 1605.92,-775.75 1605.92,-775.75 1601.96,-775.75 1598,-771.79 1598,-767.83 1598,-767.83 1598,-759.92 1598,-759.92 1598,-755.96 1601.96,-752 1605.92,-752 1605.92,-752 1777.08,-752 1777.08,-752 1781.04,-752 1785,-755.96 1785,-759.92 1785,-759.92 1785,-767.83 1785,-767.83 1785,-771.79 1781.04,-775.75 1777.08,-775.75"/>
<text xml:space="preserve" text-anchor="middle" x="1691.5" y="-758.45" font-family="Arial" font-size="14.00" fill="#cfffac">gameState/bank.controller.js</text>
</g>
<!-- gameState/game.state.controller.js&#45;&gt;../config/log.js -->
<g id="edge21" class="edge">
<title>gameState/game.state.controller.js&#45;&gt;../config/log.js</title>
<path fill="none" stroke="#757575" d="M1219.19,-1071.57C1215.2,-1070.33 1211.11,-1069.06 1207.03,-1067.79"/>
<polygon fill="#757575" stroke="#757575" points="1208.35,-1064.54 1197.76,-1064.91 1206.27,-1071.22 1208.35,-1064.54"/>
</g>
<!-- gameState/game.state.controller.js&#45;&gt;../config/socket.js -->
<g id="edge22" class="edge">
<title>gameState/game.state.controller.js&#45;&gt;../config/socket.js</title>
<path fill="none" stroke="#757575" d="M1234.43,-1096.21C1213.02,-1106.9 1181.73,-1122.53 1157.81,-1134.47"/>
<polygon fill="#757575" stroke="#757575" points="1156.47,-1131.23 1149.08,-1138.83 1159.59,-1137.49 1156.47,-1131.23"/>
</g>
<!-- gameState/game.state.controller.js&#45;&gt;event/event.service.js -->
<g id="edge23" class="edge">
<title>gameState/game.state.controller.js&#45;&gt;event/event.service.js</title>
<path fill="none" stroke="#757575" d="M1256.18,-1071.66C1246.36,-1028.85 1213.54,-885.8 1200.62,-829.48"/>
<polygon fill="#757575" stroke="#757575" points="1204.1,-828.99 1198.45,-820.03 1197.27,-830.56 1204.1,-828.99"/>
</g>
<!-- gameState/services/game.state.service.js -->
<g id="node22" class="node">
<title>gameState/services/game.state.service.js</title>
<path fill="none" stroke="#ff6c60" d="M1083.27,-1070.09C1083.27,-1070.09 832.61,-1070.09 832.61,-1070.09 828.65,-1070.09 824.69,-1066.13 824.69,-1062.17 824.69,-1062.17 824.69,-1054.25 824.69,-1054.25 824.69,-1050.3 828.65,-1046.34 832.61,-1046.34 832.61,-1046.34 1083.27,-1046.34 1083.27,-1046.34 1087.23,-1046.34 1091.19,-1050.3 1091.19,-1054.25 1091.19,-1054.25 1091.19,-1062.17 1091.19,-1062.17 1091.19,-1066.13 1087.23,-1070.09 1083.27,-1070.09"/>
<text xml:space="preserve" text-anchor="middle" x="957.94" y="-1052.79" font-family="Arial" font-size="14.00" fill="#ff6c60">gameState/services/game.state.service.js</text>
</g>
<!-- gameState/game.state.controller.js&#45;&gt;gameState/services/game.state.service.js -->
<g id="edge24" class="edge">
<title>gameState/game.state.controller.js&#45;&gt;gameState/services/game.state.service.js</title>
<path fill="none" stroke="#757575" d="M1146.04,-1074.29C1131.88,-1073.08 1117.25,-1071.83 1102.68,-1070.58"/>
<polygon fill="#757575" stroke="#757575" points="1103.34,-1067.13 1093.08,-1069.76 1102.75,-1074.1 1103.34,-1067.13"/>
</g>
<!-- gameState/services/player.state.service.js -->
<g id="node23" class="node">
<title>gameState/services/player.state.service.js</title>
<path fill="none" stroke="#c6c5fe" d="M1174.45,-964.12C1174.45,-964.12 922.28,-964.12 922.28,-964.12 918.32,-964.12 914.37,-960.16 914.37,-956.2 914.37,-956.2 914.37,-948.28 914.37,-948.28 914.37,-944.33 918.32,-940.37 922.28,-940.37 922.28,-940.37 1174.45,-940.37 1174.45,-940.37 1178.41,-940.37 1182.37,-944.33 1182.37,-948.28 1182.37,-948.28 1182.37,-956.2 1182.37,-956.2 1182.37,-960.16 1178.41,-964.12 1174.45,-964.12"/>
<text xml:space="preserve" text-anchor="middle" x="1048.37" y="-946.82" font-family="Arial" font-size="14.00" fill="#c6c5fe">gameState/services/player.state.service.js</text>
</g>
<!-- gameState/game.state.controller.js&#45;&gt;gameState/services/player.state.service.js -->
<g id="edge25" class="edge">
<title>gameState/game.state.controller.js&#45;&gt;gameState/services/player.state.service.js</title>
<path fill="none" stroke="#757575" d="M1239.56,-1071.79C1202.51,-1048.62 1121.57,-998.01 1077.82,-970.66"/>
<polygon fill="#757575" stroke="#757575" points="1079.68,-967.7 1069.35,-965.36 1075.97,-973.63 1079.68,-967.7"/>
</g>
<!-- session/rules/rules.service.js -->
<g id="node24" class="node">
<title>session/rules/rules.service.js</title>
<path fill="none" stroke="#c6c5fe" d="M1120.55,-1308.88C1120.55,-1308.88 948.63,-1308.88 948.63,-1308.88 944.67,-1308.88 940.71,-1304.93 940.71,-1300.97 940.71,-1300.97 940.71,-1293.05 940.71,-1293.05 940.71,-1289.09 944.67,-1285.13 948.63,-1285.13 948.63,-1285.13 1120.55,-1285.13 1120.55,-1285.13 1124.5,-1285.13 1128.46,-1289.09 1128.46,-1293.05 1128.46,-1293.05 1128.46,-1300.97 1128.46,-1300.97 1128.46,-1304.93 1124.5,-1308.88 1120.55,-1308.88"/>
<text xml:space="preserve" text-anchor="middle" x="1034.59" y="-1291.58" font-family="Arial" font-size="14.00" fill="#c6c5fe">session/rules/rules.service.js</text>
</g>
<!-- gameState/game.state.controller.js&#45;&gt;session/rules/rules.service.js -->
<g id="edge26" class="edge">
<title>gameState/game.state.controller.js&#45;&gt;session/rules/rules.service.js</title>
<path fill="none" stroke="#757575" d="M1246.29,-1096.01C1209.35,-1131.08 1101.7,-1233.29 1055.76,-1276.91"/>
<polygon fill="#757575" stroke="#757575" points="1053.37,-1274.35 1048.53,-1283.77 1058.19,-1279.42 1053.37,-1274.35"/>
</g>
<!-- session/session.service.js -->
<g id="node25" class="node">
<title>session/session.service.js</title>
<path fill="none" stroke="#c6c5fe" d="M1210.63,-1352.19C1210.63,-1352.19 1055.21,-1352.19 1055.21,-1352.19 1051.26,-1352.19 1047.3,-1348.23 1047.3,-1344.27 1047.3,-1344.27 1047.3,-1336.35 1047.3,-1336.35 1047.3,-1332.39 1051.26,-1328.44 1055.21,-1328.44 1055.21,-1328.44 1210.63,-1328.44 1210.63,-1328.44 1214.59,-1328.44 1218.55,-1332.39 1218.55,-1336.35 1218.55,-1336.35 1218.55,-1344.27 1218.55,-1344.27 1218.55,-1348.23 1214.59,-1352.19 1210.63,-1352.19"/>
<text xml:space="preserve" text-anchor="middle" x="1132.92" y="-1334.89" font-family="Arial" font-size="14.00" fill="#c6c5fe">session/session.service.js</text>
</g>
<!-- gameState/game.state.controller.js&#45;&gt;session/session.service.js -->
<g id="edge27" class="edge">
<title>gameState/game.state.controller.js&#45;&gt;session/session.service.js</title>
<path fill="none" stroke="#757575" d="M1252.92,-1096.31C1233.03,-1136.75 1169.72,-1265.49 1143.97,-1317.84"/>
<polygon fill="#757575" stroke="#757575" points="1140.88,-1316.19 1139.61,-1326.71 1147.16,-1319.28 1140.88,-1316.19"/>
</g>
<!-- gameState/services/game.state.service.js&#45;&gt;../config/log.js -->
<g id="edge51" class="edge">
<title>gameState/services/game.state.service.js&#45;&gt;../config/log.js</title>
<path fill="none" stroke="#757575" d="M1091.67,-1054.15C1093.18,-1054.11 1094.67,-1054.06 1096.14,-1054.02"/>
<polygon fill="#757575" stroke="#757575" points="1095.77,-1057.53 1105.65,-1053.73 1095.55,-1050.53 1095.77,-1057.53"/>
</g>
<!-- gameState/services/game.state.service.js&#45;&gt;../config/socket.js -->
<g id="edge52" class="edge">
<title>gameState/services/game.state.service.js&#45;&gt;../config/socket.js</title>
<path fill="none" stroke="#757575" d="M979.56,-1070.43C1008.09,-1086.55 1058.52,-1115.05 1091.43,-1133.65"/>
<polygon fill="#757575" stroke="#757575" points="1089.71,-1136.69 1100.13,-1138.56 1093.15,-1130.6 1089.71,-1136.69"/>
</g>
<!-- gameState/services/game.state.service.js&#45;&gt;gameState/managers/PlayersStateConnectionManager.js -->
<g id="edge58" class="edge">
<title>gameState/services/game.state.service.js&#45;&gt;gameState/managers/PlayersStateConnectionManager.js</title>
<path fill="none" stroke="#757575" d="M948.97,-1070.33C926.63,-1100.51 868.31,-1179.33 840.1,-1217.44"/>
<polygon fill="#757575" stroke="#757575" points="837.34,-1215.28 834.21,-1225.4 842.97,-1219.44 837.34,-1215.28"/>
</g>
<!-- gameState/services/game.state.service.js&#45;&gt;event/event.service.js -->
<g id="edge53" class="edge">
<title>gameState/services/game.state.service.js&#45;&gt;event/event.service.js</title>
<path fill="none" stroke="#757575" d="M969.39,-1046.07C1007.22,-1005.94 1128.49,-877.3 1175.99,-826.92"/>
<polygon fill="#757575" stroke="#757575" points="1178.36,-829.51 1182.67,-819.83 1173.27,-824.71 1178.36,-829.51"/>
</g>
<!-- gameState/services/game.state.service.js&#45;&gt;session/rules/rules.service.js -->
<g id="edge60" class="edge">
<title>gameState/services/game.state.service.js&#45;&gt;session/rules/rules.service.js</title>
<path fill="none" stroke="#757575" d="M961.85,-1070.38C973.99,-1108.23 1011.24,-1224.27 1027.2,-1274"/>
<polygon fill="#757575" stroke="#757575" points="1023.84,-1274.97 1030.23,-1283.42 1030.5,-1272.83 1023.84,-1274.97"/>
</g>
<!-- gameState/services/game.state.service.js&#45;&gt;session/session.service.js -->
<g id="edge61" class="edge">
<title>gameState/services/game.state.service.js&#45;&gt;session/session.service.js</title>
<path fill="none" stroke="#757575" d="M965.46,-1070.33C992.44,-1113.83 1084.61,-1262.43 1119.44,-1318.58"/>
<polygon fill="#757575" stroke="#757575" points="1116.39,-1320.3 1124.63,-1326.95 1122.34,-1316.61 1116.39,-1320.3"/>
</g>
<!-- gameState/game.state.model.js -->
<g id="node26" class="node">
<title>gameState/game.state.model.js</title>
<path fill="none" stroke="#c6c5fe" d="M629.29,-1024.4C629.29,-1024.4 437.12,-1024.4 437.12,-1024.4 433.16,-1024.4 429.21,-1020.45 429.21,-1016.49 429.21,-1016.49 429.21,-1008.57 429.21,-1008.57 429.21,-1004.61 433.16,-1000.65 437.12,-1000.65 437.12,-1000.65 629.29,-1000.65 629.29,-1000.65 633.25,-1000.65 637.21,-1004.61 637.21,-1008.57 637.21,-1008.57 637.21,-1016.49 637.21,-1016.49 637.21,-1020.45 633.25,-1024.4 629.29,-1024.4"/>
<text xml:space="preserve" text-anchor="middle" x="533.21" y="-1007.1" font-family="Arial" font-size="14.00" fill="#c6c5fe">gameState/game.state.model.js</text>
</g>
<!-- gameState/services/game.state.service.js&#45;&gt;gameState/game.state.model.js -->
<g id="edge54" class="edge">
<title>gameState/services/game.state.service.js&#45;&gt;gameState/game.state.model.js</title>
<path fill="none" stroke="#757575" d="M843,-1045.85C782.75,-1039.37 709.15,-1031.45 648.8,-1024.96"/>
<polygon fill="#757575" stroke="#757575" points="649.51,-1021.52 639.2,-1023.93 648.77,-1028.48 649.51,-1021.52"/>
</g>
<!-- gameState/helpers/setup.state.helper.js -->
<g id="node30" class="node">
<title>gameState/helpers/setup.state.helper.js</title>
<path fill="none" stroke="#c6c5fe" d="M805.31,-753.04C805.31,-753.04 567.39,-753.04 567.39,-753.04 563.43,-753.04 559.48,-749.08 559.48,-745.12 559.48,-745.12 559.48,-737.2 559.48,-737.2 559.48,-733.24 563.43,-729.29 567.39,-729.29 567.39,-729.29 805.31,-729.29 805.31,-729.29 809.27,-729.29 813.23,-733.24 813.23,-737.2 813.23,-737.2 813.23,-745.12 813.23,-745.12 813.23,-749.08 809.27,-753.04 805.31,-753.04"/>
<text xml:space="preserve" text-anchor="middle" x="686.35" y="-735.74" font-family="Arial" font-size="14.00" fill="#c6c5fe">gameState/helpers/setup.state.helper.js</text>
</g>
<!-- gameState/services/game.state.service.js&#45;&gt;gameState/helpers/setup.state.helper.js -->
<g id="edge55" class="edge">
<title>gameState/services/game.state.service.js&#45;&gt;gameState/helpers/setup.state.helper.js</title>
<path fill="none" stroke="#757575" d="M947.63,-1046.17C906.79,-998.5 756.15,-822.64 704.14,-761.93"/>
<polygon fill="#757575" stroke="#757575" points="706.82,-759.68 697.66,-754.36 701.51,-764.24 706.82,-759.68"/>
</g>
<!-- misc/Timer.js -->
<g id="node32" class="node">
<title>misc/Timer.js</title>
<path fill="none" stroke="#c6c5fe" d="M962.96,-851.83C962.96,-851.83 882.54,-851.83 882.54,-851.83 878.58,-851.83 874.62,-847.87 874.62,-843.91 874.62,-843.91 874.62,-835.99 874.62,-835.99 874.62,-832.04 878.58,-828.08 882.54,-828.08 882.54,-828.08 962.96,-828.08 962.96,-828.08 966.92,-828.08 970.87,-832.04 970.87,-835.99 970.87,-835.99 970.87,-843.91 970.87,-843.91 970.87,-847.87 966.92,-851.83 962.96,-851.83"/>
<text xml:space="preserve" text-anchor="middle" x="922.75" y="-834.53" font-family="Arial" font-size="14.00" fill="#c6c5fe">misc/Timer.js</text>
</g>
<!-- gameState/services/game.state.service.js&#45;&gt;misc/Timer.js -->
<g id="edge59" class="edge">
<title>gameState/services/game.state.service.js&#45;&gt;misc/Timer.js</title>
<path fill="none" stroke="#757575" d="M955.95,-1045.85C950.27,-1010.66 933.96,-909.51 926.53,-863.38"/>
<polygon fill="#757575" stroke="#757575" points="930.01,-862.99 924.96,-853.67 923.1,-864.1 930.01,-862.99"/>
</g>
<!-- gameState/managers/GameStateManager.js -->
<g id="node34" class="node">
<title>gameState/managers/GameStateManager.js</title>
<path fill="none" stroke="#ff6c60" d="M958.29,-1109.94C958.29,-1109.94 687.38,-1109.94 687.38,-1109.94 683.42,-1109.94 679.46,-1105.98 679.46,-1102.02 679.46,-1102.02 679.46,-1094.11 679.46,-1094.11 679.46,-1090.15 683.42,-1086.19 687.38,-1086.19 687.38,-1086.19 958.29,-1086.19 958.29,-1086.19 962.25,-1086.19 966.21,-1090.15 966.21,-1094.11 966.21,-1094.11 966.21,-1102.02 966.21,-1102.02 966.21,-1105.98 962.25,-1109.94 958.29,-1109.94"/>
<text xml:space="preserve" text-anchor="middle" x="822.83" y="-1092.64" font-family="Arial" font-size="14.00" fill="#ff6c60">gameState/managers/GameStateManager.js</text>
</g>
<!-- gameState/services/game.state.service.js&#45;&gt;gameState/managers/GameStateManager.js -->
<g id="edge56" class="edge">
<title>gameState/services/game.state.service.js&#45;&gt;gameState/managers/GameStateManager.js</title>
<path fill="none" stroke="#757575" d="M916.3,-1070.49C903.33,-1074.32 888.86,-1078.59 875.25,-1082.6"/>
<polygon fill="#757575" stroke="#757575" points="874.62,-1079.14 866.02,-1085.33 876.6,-1085.85 874.62,-1079.14"/>
</g>
<!-- gameState/managers/GameTimerManager.js -->
<g id="node35" class="node">
<title>gameState/managers/GameTimerManager.js</title>
<path fill="none" stroke="#ff6c60" d="M974.27,-1017.65C974.27,-1017.65 699.6,-1017.65 699.6,-1017.65 695.65,-1017.65 691.69,-1013.69 691.69,-1009.73 691.69,-1009.73 691.69,-1001.82 691.69,-1001.82 691.69,-997.86 695.65,-993.9 699.6,-993.9 699.6,-993.9 974.27,-993.9 974.27,-993.9 978.23,-993.9 982.19,-997.86 982.19,-1001.82 982.19,-1001.82 982.19,-1009.73 982.19,-1009.73 982.19,-1013.69 978.23,-1017.65 974.27,-1017.65"/>
<text xml:space="preserve" text-anchor="middle" x="836.94" y="-1000.35" font-family="Arial" font-size="14.00" fill="#ff6c60">gameState/managers/GameTimerManager.js</text>
</g>
<!-- gameState/services/game.state.service.js&#45;&gt;gameState/managers/GameTimerManager.js -->
<g id="edge57" class="edge">
<title>gameState/services/game.state.service.js&#45;&gt;gameState/managers/GameTimerManager.js</title>
<path fill="none" stroke="#757575" d="M942.06,-1045.93C929.2,-1038.83 910.34,-1030.02 892.12,-1022.39"/>
<polygon fill="#757575" stroke="#757575" points="893.5,-1019.17 882.92,-1018.63 890.85,-1025.65 893.5,-1019.17"/>
</g>
<!-- gameState/services/player.state.service.js&#45;&gt;../config/log.js -->
<g id="edge62" class="edge">
<title>gameState/services/player.state.service.js&#45;&gt;../config/log.js</title>
<path fill="none" stroke="#757575" d="M1061.66,-964.5C1079.95,-981.35 1113.09,-1011.9 1135.02,-1032.12"/>
<polygon fill="#757575" stroke="#757575" points="1132.54,-1034.59 1142.27,-1038.79 1137.29,-1029.44 1132.54,-1034.59"/>
</g>
<!-- gameState/services/player.state.service.js&#45;&gt;../config/socket.js -->
<g id="edge63" class="edge">
<title>gameState/services/player.state.service.js&#45;&gt;../config/socket.js</title>
<path fill="none" stroke="#757575" d="M1052.94,-964.42C1065.18,-996.96 1098.79,-1086.37 1114.74,-1128.78"/>
<polygon fill="#757575" stroke="#757575" points="1111.4,-1129.86 1118.2,-1137.99 1117.96,-1127.4 1111.4,-1129.86"/>
</g>
<!-- gameState/services/player.state.service.js&#45;&gt;event/event.service.js -->
<g id="edge64" class="edge">
<title>gameState/services/player.state.service.js&#45;&gt;event/event.service.js</title>
<path fill="none" stroke="#757575" d="M1060.64,-940.06C1085.99,-914.91 1144.33,-857.02 1175.24,-826.34"/>
<polygon fill="#757575" stroke="#757575" points="1177.48,-829.05 1182.11,-819.52 1172.55,-824.08 1177.48,-829.05"/>
</g>
<!-- gameState/services/player.state.service.js&#45;&gt;gameState/managers/GameStateManager.js -->
<g id="edge65" class="edge">
<title>gameState/services/player.state.service.js&#45;&gt;gameState/managers/GameStateManager.js</title>
<path fill="none" stroke="#757575" d="M1029.52,-964.42C989.97,-990 898.1,-1049.4 851.31,-1079.65"/>
<polygon fill="#757575" stroke="#757575" points="849.55,-1076.62 843.05,-1084.99 853.35,-1082.5 849.55,-1076.62"/>
</g>
<!-- gameState/services/bank.state.service.js -->
<g id="node38" class="node">
<title>gameState/services/bank.state.service.js</title>
<path fill="none" stroke="#c6c5fe" d="M1106.33,-818.35C1106.33,-818.35 860.91,-818.35 860.91,-818.35 856.96,-818.35 853,-814.39 853,-810.44 853,-810.44 853,-802.52 853,-802.52 853,-798.56 856.96,-794.6 860.91,-794.6 860.91,-794.6 1106.33,-794.6 1106.33,-794.6 1110.29,-794.6 1114.25,-798.56 1114.25,-802.52 1114.25,-802.52 1114.25,-810.44 1114.25,-810.44 1114.25,-814.39 1110.29,-818.35 1106.33,-818.35"/>
<text xml:space="preserve" text-anchor="middle" x="983.62" y="-801.05" font-family="Arial" font-size="14.00" fill="#c6c5fe">gameState/services/bank.state.service.js</text>
</g>
<!-- gameState/services/player.state.service.js&#45;&gt;gameState/services/bank.state.service.js -->
<g id="edge66" class="edge">
<title>gameState/services/player.state.service.js&#45;&gt;gameState/services/bank.state.service.js</title>
<path fill="none" stroke="#757575" d="M1043.07,-940.31C1032.25,-915.97 1007.5,-860.23 993.58,-828.9"/>
<polygon fill="#757575" stroke="#757575" points="996.87,-827.67 989.61,-819.95 990.47,-830.51 996.87,-827.67"/>
</g>
<!-- session/session.model.js -->
<g id="node47" class="node">
<title>session/session.model.js</title>
<path fill="none" stroke="#c6c5fe" d="M871.55,-1653.71C871.55,-1653.71 721.38,-1653.71 721.38,-1653.71 717.42,-1653.71 713.46,-1649.75 713.46,-1645.8 713.46,-1645.8 713.46,-1637.88 713.46,-1637.88 713.46,-1633.92 717.42,-1629.96 721.38,-1629.96 721.38,-1629.96 871.55,-1629.96 871.55,-1629.96 875.5,-1629.96 879.46,-1633.92 879.46,-1637.88 879.46,-1637.88 879.46,-1645.8 879.46,-1645.8 879.46,-1649.75 875.5,-1653.71 871.55,-1653.71"/>
<text xml:space="preserve" text-anchor="middle" x="796.46" y="-1636.41" font-family="Arial" font-size="14.00" fill="#c6c5fe">session/session.model.js</text>
</g>
<!-- session/rules/rules.service.js&#45;&gt;session/session.model.js -->
<g id="edge89" class="edge">
<title>session/rules/rules.service.js&#45;&gt;session/session.model.js</title>
<path fill="none" stroke="#757575" d="M1026.11,-1309.28C990.96,-1360.19 856.35,-1555.11 811.27,-1620.39"/>
<polygon fill="#757575" stroke="#757575" points="808.5,-1618.25 805.7,-1628.47 814.26,-1622.23 808.5,-1618.25"/>
</g>
<!-- session/session.service.js&#45;&gt;../config/log.js -->
<g id="edge105" class="edge">
<title>session/session.service.js&#45;&gt;../config/log.js</title>
<path fill="none" stroke="#757575" d="M1133.92,-1328.3C1137.53,-1284.64 1150.02,-1133.89 1154.85,-1075.52"/>
<polygon fill="#757575" stroke="#757575" points="1158.32,-1076 1155.66,-1065.75 1151.34,-1075.42 1158.32,-1076"/>
</g>
<!-- session/session.service.js&#45;&gt;session/rules/rules.service.js -->
<g id="edge107" class="edge">
<title>session/session.service.js&#45;&gt;session/rules/rules.service.js</title>
<path fill="none" stroke="#757575" d="M1105.01,-1328.02C1095.04,-1323.63 1083.63,-1318.61 1072.94,-1313.9"/>
<polygon fill="#757575" stroke="#757575" points="1074.52,-1310.77 1063.96,-1309.94 1071.7,-1317.18 1074.52,-1310.77"/>
</g>
<!-- session/session.service.js&#45;&gt;misc/misc.tool.js -->
<g id="edge106" class="edge">
<title>session/session.service.js&#45;&gt;misc/misc.tool.js</title>
<path fill="none" stroke="#757575" d="M1205.2,-1352.63C1283.97,-1366.06 1409.09,-1387.38 1486.72,-1400.61"/>
<polygon fill="#757575" stroke="#757575" points="1485.88,-1404.02 1496.33,-1402.25 1487.06,-1397.12 1485.88,-1404.02"/>
</g>
<!-- session/session.service.js&#45;&gt;session/session.model.js -->
<g id="edge108" class="edge">
<title>session/session.service.js&#45;&gt;session/session.model.js</title>
<path fill="none" stroke="#757575" d="M1119.32,-1352.51C1067.53,-1398.91 882.46,-1564.77 818.44,-1622.14"/>
<polygon fill="#757575" stroke="#757575" points="816.48,-1619.2 811.36,-1628.48 821.15,-1624.41 816.48,-1619.2"/>
</g>
<!-- gameState/game.state.schema.js -->
<g id="node27" class="node">
<title>gameState/game.state.schema.js</title>
<path fill="none" stroke="#cfffac" d="M278.4,-974.28C278.4,-974.28 75.74,-974.28 75.74,-974.28 71.78,-974.28 67.82,-970.32 67.82,-966.36 67.82,-966.36 67.82,-958.44 67.82,-958.44 67.82,-954.48 71.78,-950.53 75.74,-950.53 75.74,-950.53 278.4,-950.53 278.4,-950.53 282.36,-950.53 286.32,-954.48 286.32,-958.44 286.32,-958.44 286.32,-966.36 286.32,-966.36 286.32,-970.32 282.36,-974.28 278.4,-974.28"/>
<text xml:space="preserve" text-anchor="middle" x="177.07" y="-956.98" font-family="Arial" font-size="14.00" fill="#cfffac">gameState/game.state.schema.js</text>
</g>
<!-- gameState/game.state.model.js&#45;&gt;gameState/game.state.schema.js -->
<g id="edge28" class="edge">
<title>gameState/game.state.model.js&#45;&gt;gameState/game.state.schema.js</title>
<path fill="none" stroke="#757575" d="M445.63,-1000.2C394.29,-992.98 329.29,-983.83 276.09,-976.34"/>
<polygon fill="#757575" stroke="#757575" points="276.81,-972.91 266.42,-974.98 275.84,-979.84 276.81,-972.91"/>
</g>
<!-- gameState/sanitizers/game.state.sanitize.js&#45;&gt;misc/validate.tool.js -->
<g id="edge44" class="edge">
<title>gameState/sanitizers/game.state.sanitize.js&#45;&gt;misc/validate.tool.js</title>
<path fill="none" stroke="#757575" d="M1983.04,-998.73C1975.47,-1038.85 1951.47,-1166 1941.48,-1218.88"/>
<polygon fill="#757575" stroke="#757575" points="1938.06,-1218.12 1939.65,-1228.59 1944.94,-1219.42 1938.06,-1218.12"/>
</g>
<!-- gameState/helpers/decks.state.helper.js -->
<g id="node29" class="node">
<title>gameState/helpers/decks.state.helper.js</title>
<path fill="none" stroke="#cfffac" d="M858.31,-563.56C858.31,-563.56 618.15,-563.56 618.15,-563.56 614.19,-563.56 610.23,-559.6 610.23,-555.64 610.23,-555.64 610.23,-547.73 610.23,-547.73 610.23,-543.77 614.19,-539.81 618.15,-539.81 618.15,-539.81 858.31,-539.81 858.31,-539.81 862.27,-539.81 866.23,-543.77 866.23,-547.73 866.23,-547.73 866.23,-555.64 866.23,-555.64 866.23,-559.6 862.27,-563.56 858.31,-563.56"/>
<text xml:space="preserve" text-anchor="middle" x="738.23" y="-546.26" font-family="Arial" font-size="14.00" fill="#cfffac">gameState/helpers/decks.state.helper.js</text>
</g>
<!-- gameState/helpers/setup.state.helper.js&#45;&gt;gameState/helpers/decks.state.helper.js -->
<g id="edge32" class="edge">
<title>gameState/helpers/setup.state.helper.js&#45;&gt;gameState/helpers/decks.state.helper.js</title>
<path fill="none" stroke="#757575" d="M689.68,-729.02C698.16,-698.01 720.76,-615.49 731.87,-574.9"/>
<polygon fill="#757575" stroke="#757575" points="735.2,-576 734.47,-565.43 728.45,-574.15 735.2,-576"/>
</g>
<!-- gameState/managers/BankTimerManager.js -->
<g id="node31" class="node">
<title>gameState/managers/BankTimerManager.js</title>
<path fill="none" stroke="#c6c5fe" d="M994.36,-909.45C994.36,-909.45 727.19,-909.45 727.19,-909.45 723.23,-909.45 719.27,-905.49 719.27,-901.54 719.27,-901.54 719.27,-893.62 719.27,-893.62 719.27,-889.66 723.23,-885.7 727.19,-885.7 727.19,-885.7 994.36,-885.7 994.36,-885.7 998.32,-885.7 1002.27,-889.66 1002.27,-893.62 1002.27,-893.62 1002.27,-901.54 1002.27,-901.54 1002.27,-905.49 998.32,-909.45 994.36,-909.45"/>
<text xml:space="preserve" text-anchor="middle" x="860.77" y="-892.15" font-family="Arial" font-size="14.00" fill="#c6c5fe">gameState/managers/BankTimerManager.js</text>
</g>
<!-- gameState/managers/BankTimerManager.js&#45;&gt;../config/log.js -->
<g id="edge33" class="edge">
<title>gameState/managers/BankTimerManager.js&#45;&gt;../config/log.js</title>
<path fill="none" stroke="#757575" d="M884.25,-909.84C936.49,-937.12 1062.52,-1002.94 1123.13,-1034.6"/>
<polygon fill="#757575" stroke="#757575" points="1121.48,-1037.68 1131.96,-1039.21 1124.72,-1031.48 1121.48,-1037.68"/>
</g>
<!-- gameState/managers/BankTimerManager.js&#45;&gt;misc/Timer.js -->
<g id="edge34" class="edge">
<title>gameState/managers/BankTimerManager.js&#45;&gt;misc/Timer.js</title>
<path fill="none" stroke="#757575" d="M873.92,-885.36C881.89,-877.95 892.25,-868.31 901.37,-859.83"/>
<polygon fill="#757575" stroke="#757575" points="903.58,-862.56 908.52,-853.19 898.81,-857.43 903.58,-862.56"/>
</g>
<!-- misc/Timer.js&#45;&gt;../config/log.js -->
<g id="edge67" class="edge">
<title>misc/Timer.js&#45;&gt;../config/log.js</title>
<path fill="none" stroke="#757575" d="M936.34,-852.28C975.2,-887.52 1087.02,-988.91 1134.76,-1032.2"/>
<polygon fill="#757575" stroke="#757575" points="1132.27,-1034.67 1142.03,-1038.8 1136.97,-1029.49 1132.27,-1034.67"/>
</g>
<!-- gameState/managers/GameQueueManager.js -->
<g id="node33" class="node">
<title>gameState/managers/GameQueueManager.js</title>
<path fill="none" stroke="#cfffac" d="M589.81,-1183.37C589.81,-1183.37 309.15,-1183.37 309.15,-1183.37 305.19,-1183.37 301.23,-1179.41 301.23,-1175.46 301.23,-1175.46 301.23,-1167.54 301.23,-1167.54 301.23,-1163.58 305.19,-1159.62 309.15,-1159.62 309.15,-1159.62 589.81,-1159.62 589.81,-1159.62 593.77,-1159.62 597.73,-1163.58 597.73,-1167.54 597.73,-1167.54 597.73,-1175.46 597.73,-1175.46 597.73,-1179.41 593.77,-1183.37 589.81,-1183.37"/>
<text xml:space="preserve" text-anchor="middle" x="449.48" y="-1166.07" font-family="Arial" font-size="14.00" fill="#cfffac">gameState/managers/GameQueueManager.js</text>
</g>
<!-- gameState/managers/GameStateManager.js&#45;&gt;../config/log.js -->
<g id="edge35" class="edge">
<title>gameState/managers/GameStateManager.js&#45;&gt;../config/log.js</title>
<path fill="none" stroke="#757575" d="M912.76,-1085.71C970.78,-1077.73 1044.68,-1067.58 1095.88,-1060.54"/>
<polygon fill="#757575" stroke="#757575" points="1096.16,-1064.04 1105.59,-1059.21 1095.2,-1057.1 1096.16,-1064.04"/>
</g>
<!-- gameState/managers/GameStateManager.js&#45;&gt;../config/socket.js -->
<g id="edge36" class="edge">
<title>gameState/managers/GameStateManager.js&#45;&gt;../config/socket.js</title>
<path fill="none" stroke="#757575" d="M892.15,-1110.43C940.14,-1118.99 1003.81,-1130.35 1052.19,-1138.98"/>
<polygon fill="#757575" stroke="#757575" points="1051.56,-1142.43 1062.02,-1140.74 1052.79,-1135.54 1051.56,-1142.43"/>
</g>
<!-- gameState/managers/GameStateManager.js&#45;&gt;session/rules/rules.service.js -->
<g id="edge41" class="edge">
<title>gameState/managers/GameStateManager.js&#45;&gt;session/rules/rules.service.js</title>
<path fill="none" stroke="#757575" d="M835.76,-1110.21C871.13,-1143.44 969.74,-1236.09 1013.37,-1277.07"/>
<polygon fill="#757575" stroke="#757575" points="1010.77,-1279.44 1020.46,-1283.73 1015.57,-1274.34 1010.77,-1279.44"/>
</g>
<!-- gameState/managers/GameStateManager.js&#45;&gt;gameState/game.state.model.js -->
<g id="edge37" class="edge">
<title>gameState/managers/GameStateManager.js&#45;&gt;gameState/game.state.model.js</title>
<path fill="none" stroke="#757575" d="M781.03,-1085.72C729.48,-1070.49 641.82,-1044.61 585.77,-1028.05"/>
<polygon fill="#757575" stroke="#757575" points="587.03,-1024.78 576.45,-1025.3 585.05,-1031.49 587.03,-1024.78"/>
</g>
<!-- gameState/managers/GameStateManager.js&#45;&gt;gameState/managers/BankTimerManager.js -->
<g id="edge38" class="edge">
<title>gameState/managers/GameStateManager.js&#45;&gt;gameState/managers/BankTimerManager.js</title>
<path fill="none" stroke="#757575" d="M825.15,-1085.83C831.31,-1053.25 848.2,-964 856.31,-921.15"/>
<polygon fill="#757575" stroke="#757575" points="859.74,-921.87 858.16,-911.4 852.86,-920.57 859.74,-921.87"/>
</g>
<!-- gameState/managers/GameStateManager.js&#45;&gt;gameState/managers/GameQueueManager.js -->
<g id="edge39" class="edge">
<title>gameState/managers/GameStateManager.js&#45;&gt;gameState/managers/GameQueueManager.js</title>
<path fill="none" stroke="#757575" d="M759.92,-1110.44C694.66,-1123.27 592.68,-1143.33 523.56,-1156.93"/>
<polygon fill="#757575" stroke="#757575" points="522.96,-1153.48 513.82,-1158.84 524.31,-1160.35 522.96,-1153.48"/>
</g>
<!-- gameState/managers/GameStateManager.js&#45;&gt;gameState/managers/GameTimerManager.js -->
<g id="edge40" class="edge">
<title>gameState/managers/GameStateManager.js&#45;&gt;gameState/managers/GameTimerManager.js</title>
<path fill="none" stroke="#757575" d="M824.68,-1086C826.86,-1071.71 830.55,-1047.56 833.31,-1029.49"/>
<polygon fill="#757575" stroke="#757575" points="836.77,-1030.05 834.82,-1019.64 829.85,-1028.99 836.77,-1030.05"/>
</g>
<!-- gameState/managers/GameTimerManager.js&#45;&gt;../config/log.js -->
<g id="edge42" class="edge">
<title>gameState/managers/GameTimerManager.js&#45;&gt;../config/log.js</title>
<path fill="none" stroke="#757575" d="M922.23,-1018.15C977,-1026.09 1046.82,-1036.22 1095.99,-1043.36"/>
<polygon fill="#757575" stroke="#757575" points="1095.19,-1046.78 1105.59,-1044.75 1096.2,-1039.85 1095.19,-1046.78"/>
</g>
<!-- gameState/managers/GameTimerManager.js&#45;&gt;gameState/services/game.state.service.js -->
<g id="edge43" class="edge">
<title>gameState/managers/GameTimerManager.js&#45;&gt;gameState/services/game.state.service.js</title>
<path fill="none" stroke="#757575" d="M852.82,-1018.06C865.67,-1025.16 884.54,-1033.96 902.76,-1041.6"/>
<polygon fill="#757575" stroke="#757575" points="901.38,-1044.81 911.96,-1045.36 904.03,-1038.34 901.38,-1044.81"/>
</g>
<!-- gameState/sanitizers/bank.validation.js -->
<g id="node36" class="node">
<title>gameState/sanitizers/bank.validation.js</title>
<path fill="none" stroke="#cfffac" d="M806.08,-1527.75C806.08,-1527.75 571.92,-1527.75 571.92,-1527.75 567.96,-1527.75 564,-1523.79 564,-1519.83 564,-1519.83 564,-1511.92 564,-1511.92 564,-1507.96 567.96,-1504 571.92,-1504 571.92,-1504 806.08,-1504 806.08,-1504 810.04,-1504 814,-1507.96 814,-1511.92 814,-1511.92 814,-1519.83 814,-1519.83 814,-1523.79 810.04,-1527.75 806.08,-1527.75"/>
<text xml:space="preserve" text-anchor="middle" x="689" y="-1510.45" font-family="Arial" font-size="14.00" fill="#cfffac">gameState/sanitizers/bank.validation.js</text>
</g>
<!-- gameState/sanitizers/player.validation.js -->
<g id="node37" class="node">
<title>gameState/sanitizers/player.validation.js</title>
<path fill="none" stroke="#cfffac" d="M1564.83,-587.75C1564.83,-587.75 1323.92,-587.75 1323.92,-587.75 1319.96,-587.75 1316,-583.79 1316,-579.83 1316,-579.83 1316,-571.92 1316,-571.92 1316,-567.96 1319.96,-564 1323.92,-564 1323.92,-564 1564.83,-564 1564.83,-564 1568.79,-564 1572.75,-567.96 1572.75,-571.92 1572.75,-571.92 1572.75,-579.83 1572.75,-579.83 1572.75,-583.79 1568.79,-587.75 1564.83,-587.75"/>
<text xml:space="preserve" text-anchor="middle" x="1444.38" y="-570.45" font-family="Arial" font-size="14.00" fill="#cfffac">gameState/sanitizers/player.validation.js</text>
</g>
<!-- gameState/services/bank.state.service.js&#45;&gt;../config/log.js -->
<g id="edge45" class="edge">
<title>gameState/services/bank.state.service.js&#45;&gt;../config/log.js</title>
<path fill="none" stroke="#757575" d="M992.21,-818.66C1019.79,-857.8 1106.37,-980.65 1141.62,-1030.67"/>
<polygon fill="#757575" stroke="#757575" points="1138.65,-1032.52 1147.27,-1038.68 1144.37,-1028.49 1138.65,-1032.52"/>
</g>
<!-- gameState/services/bank.state.service.js&#45;&gt;../config/socket.js -->
<g id="edge46" class="edge">
<title>gameState/services/bank.state.service.js&#45;&gt;../config/socket.js</title>
<path fill="none" stroke="#757575" d="M988.6,-818.76C1009.09,-869.41 1087.23,-1062.45 1114.16,-1128.98"/>
<polygon fill="#757575" stroke="#757575" points="1110.87,-1130.18 1117.86,-1138.14 1117.36,-1127.56 1110.87,-1130.18"/>
</g>
<!-- gameState/services/bank.state.service.js&#45;&gt;event/event.service.js -->
<g id="edge47" class="edge">
<title>gameState/services/bank.state.service.js&#45;&gt;event/event.service.js</title>
<path fill="none" stroke="#757575" d="M1114.69,-806.44C1114.84,-806.44 1115,-806.44 1115.16,-806.44"/>
<polygon fill="#757575" stroke="#757575" points="1110.72,-809.94 1120.72,-806.43 1110.72,-802.94 1110.72,-809.94"/>
</g>
<!-- gameState/services/bank.state.service.js&#45;&gt;gameState/helpers/decks.state.helper.js -->
<g id="edge48" class="edge">
<title>gameState/services/bank.state.service.js&#45;&gt;gameState/helpers/decks.state.helper.js</title>
<path fill="none" stroke="#757575" d="M971.79,-794.19C932.59,-753.49 806.74,-622.82 757.88,-572.09"/>
<polygon fill="#757575" stroke="#757575" points="760.45,-569.72 751,-564.94 755.41,-574.57 760.45,-569.72"/>
</g>
<!-- gameState/services/bank.state.service.js&#45;&gt;gameState/managers/BankTimerManager.js -->
<g id="edge49" class="edge">
<title>gameState/services/bank.state.service.js&#45;&gt;gameState/managers/BankTimerManager.js</title>
<path fill="none" stroke="#757575" d="M967.05,-818.76C946.24,-834.2 910.32,-860.84 886.06,-878.83"/>
<polygon fill="#757575" stroke="#757575" points="884.24,-875.82 878.3,-884.58 888.41,-881.44 884.24,-875.82"/>
</g>
<!-- gameState/services/bank.state.service.js&#45;&gt;misc/Timer.js -->
<g id="edge50" class="edge">
<title>gameState/services/bank.state.service.js&#45;&gt;misc/Timer.js</title>
<path fill="none" stroke="#757575" d="M961.3,-818.75C959.23,-819.89 957.11,-821.06 954.98,-822.23"/>
<polygon fill="#757575" stroke="#757575" points="953.47,-819.06 946.39,-826.95 956.84,-825.2 953.47,-819.06"/>
</g>
<!-- misc/activeTransactions.js -->
<g id="node39" class="node">
<title>misc/activeTransactions.js</title>
<path fill="none" stroke="#cfffac" d="M1952.33,-587.75C1952.33,-587.75 1793.92,-587.75 1793.92,-587.75 1789.96,-587.75 1786,-583.79 1786,-579.83 1786,-579.83 1786,-571.92 1786,-571.92 1786,-567.96 1789.96,-564 1793.92,-564 1793.92,-564 1952.33,-564 1952.33,-564 1956.29,-564 1960.25,-567.96 1960.25,-571.92 1960.25,-571.92 1960.25,-579.83 1960.25,-579.83 1960.25,-583.79 1956.29,-587.75 1952.33,-587.75"/>
<text xml:space="preserve" text-anchor="middle" x="1873.12" y="-570.45" font-family="Arial" font-size="14.00" fill="#cfffac">misc/activeTransactions.js</text>
</g>
<!-- misc/token.service.js -->
<g id="node41" class="node">
<title>misc/token.service.js</title>
<path fill="none" stroke="#cfffac" d="M1919.33,-1903.75C1919.33,-1903.75 1793.92,-1903.75 1793.92,-1903.75 1789.96,-1903.75 1786,-1899.79 1786,-1895.83 1786,-1895.83 1786,-1887.92 1786,-1887.92 1786,-1883.96 1789.96,-1880 1793.92,-1880 1793.92,-1880 1919.33,-1880 1919.33,-1880 1923.29,-1880 1927.25,-1883.96 1927.25,-1887.92 1927.25,-1887.92 1927.25,-1895.83 1927.25,-1895.83 1927.25,-1899.79 1923.29,-1903.75 1919.33,-1903.75"/>
<text xml:space="preserve" text-anchor="middle" x="1856.62" y="-1886.45" font-family="Arial" font-size="14.00" fill="#cfffac">misc/token.service.js</text>
</g>
<!-- server.js -->
<g id="node42" class="node">
<title>server.js</title>
<path fill="none" stroke="#c6c5fe" d="M1390.86,-1002.07C1390.86,-1002.07 1340.45,-1002.07 1340.45,-1002.07 1336.49,-1002.07 1332.53,-998.11 1332.53,-994.15 1332.53,-994.15 1332.53,-986.23 1332.53,-986.23 1332.53,-982.27 1336.49,-978.32 1340.45,-978.32 1340.45,-978.32 1390.86,-978.32 1390.86,-978.32 1394.82,-978.32 1398.78,-982.27 1398.78,-986.23 1398.78,-986.23 1398.78,-994.15 1398.78,-994.15 1398.78,-998.11 1394.82,-1002.07 1390.86,-1002.07"/>
<text xml:space="preserve" text-anchor="middle" x="1365.66" y="-984.77" font-family="Arial" font-size="14.00" fill="#c6c5fe">server.js</text>
</g>
<!-- server.js&#45;&gt;../config/database.js -->
<g id="edge69" class="edge">
<title>server.js&#45;&gt;../config/database.js</title>
<path fill="none" stroke="#757575" d="M1364.22,-977.97C1360.71,-948.06 1351.63,-870.78 1347.03,-831.66"/>
<polygon fill="#757575" stroke="#757575" points="1350.53,-831.44 1345.89,-821.91 1343.58,-832.25 1350.53,-831.44"/>
</g>
<!-- server.js&#45;&gt;../config/env.js -->
<g id="edge70" class="edge">
<title>server.js&#45;&gt;../config/env.js</title>
<path fill="none" stroke="#757575" d="M1399.11,-985.93C1405.5,-985.11 1412.38,-984.24 1419.34,-983.35"/>
<polygon fill="#757575" stroke="#757575" points="1419.31,-986.88 1428.78,-982.15 1418.42,-979.94 1419.31,-986.88"/>
</g>
<!-- server.js&#45;&gt;../config/log.js -->
<g id="edge71" class="edge">
<title>server.js&#45;&gt;../config/log.js</title>
<path fill="none" stroke="#757575" d="M1332.1,-1000.15C1298.93,-1009.99 1247.7,-1025.19 1209.18,-1036.63"/>
<polygon fill="#757575" stroke="#757575" points="1208.21,-1033.26 1199.62,-1039.46 1210.2,-1039.97 1208.21,-1033.26"/>
</g>
<!-- server.js&#45;&gt;../config/socket.js -->
<g id="edge72" class="edge">
<title>server.js&#45;&gt;../config/socket.js</title>
<path fill="none" stroke="#757575" d="M1347.44,-1002.33C1305.43,-1030.33 1201.51,-1099.59 1151.34,-1133.03"/>
<polygon fill="#757575" stroke="#757575" points="1149.41,-1130.1 1143.03,-1138.56 1153.29,-1135.93 1149.41,-1130.1"/>
</g>
<!-- server.js&#45;&gt;app.js -->
<g id="edge73" class="edge">
<title>server.js&#45;&gt;app.js</title>
<path fill="none" stroke="#757575" d="M1387.43,-1002.48C1432.67,-1028 1536.96,-1086.85 1589.54,-1116.51"/>
<polygon fill="#757575" stroke="#757575" points="1587.58,-1119.43 1598.01,-1121.29 1591.02,-1113.33 1587.58,-1119.43"/>
</g>
<!-- session/avatar/avatar.controller.js&#45;&gt;../config/log.js -->
<g id="edge74" class="edge">
<title>session/avatar/avatar.controller.js&#45;&gt;../config/log.js</title>
<path fill="none" stroke="#757575" d="M1265.81,-1424.83C1249.72,-1369.84 1184.57,-1147.16 1163.44,-1074.92"/>
<polygon fill="#757575" stroke="#757575" points="1166.92,-1074.38 1160.76,-1065.76 1160.21,-1076.34 1166.92,-1074.38"/>
</g>
<!-- session/avatar/avatar.controller.js&#45;&gt;../config/socket.js -->
<g id="edge75" class="edge">
<title>session/avatar/avatar.controller.js&#45;&gt;../config/socket.js</title>
<path fill="none" stroke="#757575" d="M1263.15,-1424.94C1240.67,-1381.01 1164,-1231.14 1134.78,-1174.03"/>
<polygon fill="#757575" stroke="#757575" points="1137.96,-1172.56 1130.29,-1165.25 1131.73,-1175.75 1137.96,-1172.56"/>
</g>
<!-- session/avatar/avatar.service.js -->
<g id="node44" class="node">
<title>session/avatar/avatar.service.js</title>
<path fill="none" stroke="#c6c5fe" d="M1106.12,-1730.61C1106.12,-1730.61 918.45,-1730.61 918.45,-1730.61 914.49,-1730.61 910.53,-1726.66 910.53,-1722.7 910.53,-1722.7 910.53,-1714.78 910.53,-1714.78 910.53,-1710.82 914.49,-1706.86 918.45,-1706.86 918.45,-1706.86 1106.12,-1706.86 1106.12,-1706.86 1110.07,-1706.86 1114.03,-1710.82 1114.03,-1714.78 1114.03,-1714.78 1114.03,-1722.7 1114.03,-1722.7 1114.03,-1726.66 1110.07,-1730.61 1106.12,-1730.61"/>
<text xml:space="preserve" text-anchor="middle" x="1012.28" y="-1713.31" font-family="Arial" font-size="14.00" fill="#c6c5fe">session/avatar/avatar.service.js</text>
</g>
<!-- session/avatar/avatar.controller.js&#45;&gt;session/avatar/avatar.service.js -->
<g id="edge76" class="edge">
<title>session/avatar/avatar.controller.js&#45;&gt;session/avatar/avatar.service.js</title>
<path fill="none" stroke="#757575" d="M1258.38,-1449.31C1218.49,-1492.97 1081.64,-1642.8 1031.17,-1698.06"/>
<polygon fill="#757575" stroke="#757575" points="1028.76,-1695.51 1024.6,-1705.25 1033.93,-1700.23 1028.76,-1695.51"/>
</g>
<!-- session/avatar/avatar.service.js&#45;&gt;session/session.model.js -->
<g id="edge81" class="edge">
<title>session/avatar/avatar.service.js&#45;&gt;session/session.model.js</title>
<path fill="none" stroke="#757575" d="M977.61,-1706.38C940.72,-1693.24 882.2,-1672.39 841.7,-1657.96"/>
<polygon fill="#757575" stroke="#757575" points="843.07,-1654.73 832.48,-1654.67 840.72,-1661.32 843.07,-1654.73"/>
</g>
<!-- session/avatar/avatar.sanitize.js&#45;&gt;misc/validate.tool.js -->
<g id="edge80" class="edge">
<title>session/avatar/avatar.sanitize.js&#45;&gt;misc/validate.tool.js</title>
<path fill="none" stroke="#757575" d="M2031.76,-1508.12C2016.44,-1465.13 1965.19,-1321.25 1945.17,-1265.06"/>
<polygon fill="#757575" stroke="#757575" points="1948.56,-1264.14 1941.9,-1255.89 1941.96,-1266.49 1948.56,-1264.14"/>
</g>
<!-- session/avatar/avatar.schema.js -->
<g id="node46" class="node">
<title>session/avatar/avatar.schema.js</title>
<path fill="none" stroke="#cfffac" d="M200.83,-2056C200.83,-2056 7.92,-2056 7.92,-2056 3.96,-2056 0,-2052.05 0,-2048.09 0,-2048.09 0,-2040.17 0,-2040.17 0,-2036.21 3.96,-2032.25 7.92,-2032.25 7.92,-2032.25 200.83,-2032.25 200.83,-2032.25 204.79,-2032.25 208.75,-2036.21 208.75,-2040.17 208.75,-2040.17 208.75,-2048.09 208.75,-2048.09 208.75,-2052.05 204.79,-2056 200.83,-2056"/>
<text xml:space="preserve" text-anchor="middle" x="104.38" y="-2038.7" font-family="Arial" font-size="14.00" fill="#cfffac">session/avatar/avatar.schema.js</text>
</g>
<!-- session/session.schema.js -->
<g id="node53" class="node">
<title>session/session.schema.js</title>
<path fill="none" stroke="#c6c5fe" d="M470.77,-1977.76C470.77,-1977.76 310.11,-1977.76 310.11,-1977.76 306.15,-1977.76 302.19,-1973.8 302.19,-1969.84 302.19,-1969.84 302.19,-1961.93 302.19,-1961.93 302.19,-1957.97 306.15,-1954.01 310.11,-1954.01 310.11,-1954.01 470.77,-1954.01 470.77,-1954.01 474.73,-1954.01 478.69,-1957.97 478.69,-1961.93 478.69,-1961.93 478.69,-1969.84 478.69,-1969.84 478.69,-1973.8 474.73,-1977.76 470.77,-1977.76"/>
<text xml:space="preserve" text-anchor="middle" x="390.44" y="-1960.46" font-family="Arial" font-size="14.00" fill="#c6c5fe">session/session.schema.js</text>
</g>
<!-- session/session.model.js&#45;&gt;session/session.schema.js -->
<g id="edge98" class="edge">
<title>session/session.model.js&#45;&gt;session/session.schema.js</title>
<path fill="none" stroke="#757575" d="M781.04,-1654.14C719.36,-1703.37 490.14,-1886.32 414.69,-1946.53"/>
<polygon fill="#757575" stroke="#757575" points="412.69,-1943.65 407.06,-1952.62 417.06,-1949.12 412.69,-1943.65"/>
</g>
<!-- session/rules/rules.controller.js&#45;&gt;../config/log.js -->
<g id="edge82" class="edge">
<title>session/rules/rules.controller.js&#45;&gt;../config/log.js</title>
<path fill="none" stroke="#757575" d="M1367.81,-1180.08C1327.08,-1155.4 1234.67,-1099.38 1186.79,-1070.36"/>
<polygon fill="#757575" stroke="#757575" points="1188.67,-1067.41 1178.3,-1065.22 1185.04,-1073.39 1188.67,-1067.41"/>
</g>
<!-- session/rules/rules.controller.js&#45;&gt;../config/socket.js -->
<g id="edge83" class="edge">
<title>session/rules/rules.controller.js&#45;&gt;../config/socket.js</title>
<path fill="none" stroke="#757575" d="M1307.46,-1179.92C1271.38,-1174.39 1229.19,-1167.92 1194.31,-1162.57"/>
<polygon fill="#757575" stroke="#757575" points="1195.17,-1159.16 1184.75,-1161.1 1194.11,-1166.08 1195.17,-1159.16"/>
</g>
<!-- session/rules/rules.controller.js&#45;&gt;session/rules/rules.service.js -->
<g id="edge84" class="edge">
<title>session/rules/rules.controller.js&#45;&gt;session/rules/rules.service.js</title>
<path fill="none" stroke="#757575" d="M1346.34,-1204.59C1281.84,-1223.71 1157.75,-1260.5 1087.13,-1281.43"/>
<polygon fill="#757575" stroke="#757575" points="1086.32,-1278.02 1077.72,-1284.22 1088.31,-1284.73 1086.32,-1278.02"/>
</g>
<!-- session/rules/rules.sanitize.js&#45;&gt;misc/validate.tool.js -->
<g id="edge88" class="edge">
<title>session/rules/rules.sanitize.js&#45;&gt;misc/validate.tool.js</title>
<path fill="none" stroke="#757575" d="M2120.66,-1191.07C2083.96,-1201.31 2031.57,-1215.93 1992.14,-1226.93"/>
<polygon fill="#757575" stroke="#757575" points="1991.28,-1223.54 1982.59,-1229.6 1993.16,-1230.28 1991.28,-1223.54"/>
</g>
<!-- session/rules/rules.schema.js -->
<g id="node50" class="node">
<title>session/rules/rules.schema.js</title>
<path fill="none" stroke="#cfffac" d="M282.59,-2231.12C282.59,-2231.12 105.42,-2231.12 105.42,-2231.12 101.46,-2231.12 97.5,-2227.16 97.5,-2223.2 97.5,-2223.2 97.5,-2215.29 97.5,-2215.29 97.5,-2211.33 101.46,-2207.37 105.42,-2207.37 105.42,-2207.37 282.59,-2207.37 282.59,-2207.37 286.55,-2207.37 290.5,-2211.33 290.5,-2215.29 290.5,-2215.29 290.5,-2223.2 290.5,-2223.2 290.5,-2227.16 286.55,-2231.12 282.59,-2231.12"/>
<text xml:space="preserve" text-anchor="middle" x="194" y="-2213.82" font-family="Arial" font-size="14.00" fill="#cfffac">session/rules/rules.schema.js</text>
</g>
<!-- session/session.controller.js&#45;&gt;../config/env.js -->
<g id="edge90" class="edge">
<title>session/session.controller.js&#45;&gt;../config/env.js</title>
<path fill="none" stroke="#757575" d="M1297.6,-1211.71C1328.53,-1171.94 1425.9,-1046.72 1464.91,-996.55"/>
<polygon fill="#757575" stroke="#757575" points="1467.6,-998.8 1470.97,-988.75 1462.07,-994.5 1467.6,-998.8"/>
</g>
<!-- session/session.controller.js&#45;&gt;../config/log.js -->
<g id="edge91" class="edge">
<title>session/session.controller.js&#45;&gt;../config/log.js</title>
<path fill="none" stroke="#757575" d="M1278.58,-1211.68C1256.35,-1182.57 1200.5,-1109.43 1172.83,-1073.2"/>
<polygon fill="#757575" stroke="#757575" points="1175.9,-1071.45 1167.05,-1065.63 1170.34,-1075.7 1175.9,-1071.45"/>
</g>
<!-- session/session.controller.js&#45;&gt;../config/socket.js -->
<g id="edge92" class="edge">
<title>session/session.controller.js&#45;&gt;../config/socket.js</title>
<path fill="none" stroke="#757575" d="M1260.08,-1211.77C1232.99,-1199.86 1191.69,-1181.71 1161.56,-1168.47"/>
<polygon fill="#757575" stroke="#757575" points="1163.36,-1165.44 1152.8,-1164.62 1160.55,-1171.85 1163.36,-1165.44"/>
</g>
<!-- session/session.controller.js&#45;&gt;event/event.service.js -->
<g id="edge93" class="edge">
<title>session/session.controller.js&#45;&gt;event/event.service.js</title>
<path fill="none" stroke="#757575" d="M1285.34,-1211.99C1272.55,-1154.36 1217.52,-906.41 1200.42,-829.35"/>
<polygon fill="#757575" stroke="#757575" points="1203.92,-828.99 1198.34,-819.99 1197.09,-830.51 1203.92,-828.99"/>
</g>
<!-- session/session.controller.js&#45;&gt;gameState/services/game.state.service.js -->
<g id="edge94" class="edge">
<title>session/session.controller.js&#45;&gt;gameState/services/game.state.service.js</title>
<path fill="none" stroke="#757575" d="M1263.48,-1211.71C1205.33,-1182.5 1059.05,-1109.01 992.21,-1075.43"/>
<polygon fill="#757575" stroke="#757575" points="994.05,-1072.44 983.55,-1071.08 990.91,-1078.69 994.05,-1072.44"/>
</g>
<!-- session/session.controller.js&#45;&gt;session/rules/rules.service.js -->
<g id="edge95" class="edge">
<title>session/session.controller.js&#45;&gt;session/rules/rules.service.js</title>
<path fill="none" stroke="#757575" d="M1245.31,-1236.34C1202.08,-1248.78 1135.12,-1268.06 1088.31,-1281.54"/>
<polygon fill="#757575" stroke="#757575" points="1087.56,-1278.11 1078.92,-1284.24 1089.5,-1284.84 1087.56,-1278.11"/>
</g>
<!-- session/session.controller.js&#45;&gt;session/session.service.js -->
<g id="edge96" class="edge">
<title>session/session.controller.js&#45;&gt;session/session.service.js</title>
<path fill="none" stroke="#757575" d="M1271.71,-1236.27C1244.65,-1256.56 1190.26,-1297.33 1158.19,-1321.37"/>
<polygon fill="#757575" stroke="#757575" points="1156.12,-1318.55 1150.22,-1327.34 1160.32,-1324.15 1156.12,-1318.55"/>
</g>
<!-- survey/survey.service.js -->
<g id="node52" class="node">
<title>survey/survey.service.js</title>
<path fill="none" stroke="#c6c5fe" d="M1542.11,-1705.52C1542.11,-1705.52 1399.44,-1705.52 1399.44,-1705.52 1395.48,-1705.52 1391.52,-1701.56 1391.52,-1697.6 1391.52,-1697.6 1391.52,-1689.69 1391.52,-1689.69 1391.52,-1685.73 1395.48,-1681.77 1399.44,-1681.77 1399.44,-1681.77 1542.11,-1681.77 1542.11,-1681.77 1546.07,-1681.77 1550.02,-1685.73 1550.02,-1689.69 1550.02,-1689.69 1550.02,-1697.6 1550.02,-1697.6 1550.02,-1701.56 1546.07,-1705.52 1542.11,-1705.52"/>
<text xml:space="preserve" text-anchor="middle" x="1470.77" y="-1688.22" font-family="Arial" font-size="14.00" fill="#c6c5fe">survey/survey.service.js</text>
</g>
<!-- session/session.controller.js&#45;&gt;survey/survey.service.js -->
<g id="edge97" class="edge">
<title>session/session.controller.js&#45;&gt;survey/survey.service.js</title>
<path fill="none" stroke="#757575" d="M1292.72,-1236.12C1317.13,-1298.86 1429.57,-1587.77 1462,-1671.09"/>
<polygon fill="#757575" stroke="#757575" points="1458.67,-1672.18 1465.56,-1680.23 1465.19,-1669.65 1458.67,-1672.18"/>
</g>
<!-- survey/survey.model.js -->
<g id="node56" class="node">
<title>survey/survey.model.js</title>
<path fill="none" stroke="#c6c5fe" d="M1729.26,-2134.19C1729.26,-2134.19 1591.84,-2134.19 1591.84,-2134.19 1587.89,-2134.19 1583.93,-2130.23 1583.93,-2126.28 1583.93,-2126.28 1583.93,-2118.36 1583.93,-2118.36 1583.93,-2114.4 1587.89,-2110.44 1591.84,-2110.44 1591.84,-2110.44 1729.26,-2110.44 1729.26,-2110.44 1733.22,-2110.44 1737.18,-2114.4 1737.18,-2118.36 1737.18,-2118.36 1737.18,-2126.28 1737.18,-2126.28 1737.18,-2130.23 1733.22,-2134.19 1729.26,-2134.19"/>
<text xml:space="preserve" text-anchor="middle" x="1660.55" y="-2116.89" font-family="Arial" font-size="14.00" fill="#c6c5fe">survey/survey.model.js</text>
</g>
<!-- survey/survey.service.js&#45;&gt;survey/survey.model.js -->
<g id="edge117" class="edge">
<title>survey/survey.service.js&#45;&gt;survey/survey.model.js</title>
<path fill="none" stroke="#757575" d="M1476.25,-1706.01C1502.61,-1765.54 1616.54,-2022.9 1650.78,-2100.25"/>
<polygon fill="#757575" stroke="#757575" points="1647.37,-2101.2 1654.62,-2108.93 1653.78,-2098.37 1647.37,-2101.2"/>
</g>
<!-- session/session.schema.js&#45;&gt;session/avatar/avatar.schema.js -->
<g id="edge103" class="edge">
<title>session/session.schema.js&#45;&gt;session/avatar/avatar.schema.js</title>
<path fill="none" stroke="#757575" d="M345.43,-1978.2C295.38,-1991.89 214.48,-2014.01 160.38,-2028.81"/>
<polygon fill="#757575" stroke="#757575" points="159.78,-2025.35 151.06,-2031.36 161.63,-2032.1 159.78,-2025.35"/>
</g>
<!-- session/session.schema.js&#45;&gt;session/rules/rules.schema.js -->
<g id="edge104" class="edge">
<title>session/session.schema.js&#45;&gt;session/rules/rules.schema.js</title>
<path fill="none" stroke="#757575" d="M380.97,-1978.1C349.72,-2018.41 249.68,-2147.44 210.22,-2198.33"/>
<polygon fill="#757575" stroke="#757575" points="207.67,-2195.9 204.31,-2205.95 213.2,-2200.19 207.67,-2195.9"/>
</g>
<!-- session/session.sanitize.js&#45;&gt;misc/validate.tool.js -->
<g id="edge102" class="edge">
<title>session/session.sanitize.js&#45;&gt;misc/validate.tool.js</title>
<path fill="none" stroke="#757575" d="M1983.99,-1409.25C1975.65,-1379.56 1954.31,-1303.67 1943.52,-1265.28"/>
<polygon fill="#757575" stroke="#757575" points="1946.9,-1264.37 1940.83,-1255.69 1940.16,-1266.27 1946.9,-1264.37"/>
</g>
<!-- survey/survey.controller.js&#45;&gt;../config/log.js -->
<g id="edge109" class="edge">
<title>survey/survey.controller.js&#45;&gt;../config/log.js</title>
<path fill="none" stroke="#757575" d="M1404.51,-1358.99C1365.79,-1311.03 1222.96,-1134.14 1173.65,-1073.07"/>
<polygon fill="#757575" stroke="#757575" points="1176.53,-1071.06 1167.52,-1065.48 1171.08,-1075.46 1176.53,-1071.06"/>
</g>
<!-- survey/survey.controller.js&#45;&gt;../config/socket.js -->
<g id="edge110" class="edge">
<title>survey/survey.controller.js&#45;&gt;../config/socket.js</title>
<path fill="none" stroke="#757575" d="M1398.23,-1358.99C1350.16,-1322.74 1207.11,-1214.85 1148.66,-1170.77"/>
<polygon fill="#757575" stroke="#757575" points="1151.01,-1168.16 1140.92,-1164.93 1146.8,-1173.75 1151.01,-1168.16"/>
</g>
<!-- survey/survey.controller.js&#45;&gt;survey/survey.service.js -->
<g id="edge111" class="edge">
<title>survey/survey.controller.js&#45;&gt;survey/survey.service.js</title>
<path fill="none" stroke="#757575" d="M1416.43,-1383.35C1424.82,-1431.25 1455.49,-1606.35 1466.66,-1670.17"/>
<polygon fill="#757575" stroke="#757575" points="1463.19,-1670.64 1468.37,-1679.89 1470.09,-1669.44 1463.19,-1670.64"/>
</g>
<!-- survey/survey.schema.js -->
<g id="node57" class="node">
<title>survey/survey.schema.js</title>
<path fill="none" stroke="#cfffac" d="M1903.92,-2411.63C1903.92,-2411.63 1756,-2411.63 1756,-2411.63 1752.04,-2411.63 1748.08,-2407.67 1748.08,-2403.71 1748.08,-2403.71 1748.08,-2395.8 1748.08,-2395.8 1748.08,-2391.84 1752.04,-2387.88 1756,-2387.88 1756,-2387.88 1903.92,-2387.88 1903.92,-2387.88 1907.88,-2387.88 1911.83,-2391.84 1911.83,-2395.8 1911.83,-2395.8 1911.83,-2403.71 1911.83,-2403.71 1911.83,-2407.67 1907.88,-2411.63 1903.92,-2411.63"/>
<text xml:space="preserve" text-anchor="middle" x="1829.96" y="-2394.33" font-family="Arial" font-size="14.00" fill="#cfffac">survey/survey.schema.js</text>
</g>
<!-- survey/survey.model.js&#45;&gt;survey/survey.schema.js -->
<g id="edge112" class="edge">
<title>survey/survey.model.js&#45;&gt;survey/survey.schema.js</title>
<path fill="none" stroke="#757575" d="M1668.05,-2134.6C1694.4,-2177.75 1782.97,-2322.8 1816.73,-2378.1"/>
<polygon fill="#757575" stroke="#757575" points="1813.56,-2379.62 1821.76,-2386.33 1819.53,-2375.97 1813.56,-2379.62"/>
</g>
<!-- survey/survey.sanitize.js&#45;&gt;misc/validate.tool.js -->
<g id="edge116" class="edge">
<title>survey/survey.sanitize.js&#45;&gt;misc/validate.tool.js</title>
<path fill="none" stroke="#757575" d="M2144.97,-1379.31C2105.31,-1353.18 2012.02,-1291.7 1965.08,-1260.76"/>
<polygon fill="#757575" stroke="#757575" points="1967.07,-1257.88 1956.79,-1255.3 1963.22,-1263.73 1967.07,-1257.88"/>
</g>
</g>
</svg>
