<?xml version="1.0" encoding="UTF-8" standalone="no"?>
<!DOCTYPE svg PUBLIC "-//W3C//DTD SVG 1.1//EN"
 "http://www.w3.org/Graphics/SVG/1.1/DTD/svg11.dtd">
<!-- Generated by graphviz version 14.1.5 (20260411.2331)
 -->
<!-- Title: G Pages: 1 -->
<svg width="2843pt" height="1722pt"
 viewBox="0.00 0.00 2843.00 1722.00" xmlns="http://www.w3.org/2000/svg" xmlns:xlink="http://www.w3.org/1999/xlink">
<g id="graph0" class="graph" transform="scale(1 1) rotate(0) translate(21.6 1700.35)">
<title>G</title>
<polygon fill="#111111" stroke="none" points="-21.6,21.6 -21.6,-1700.35 2821.6,-1700.35 2821.6,21.6 -21.6,21.6"/>
<!-- ../config/constantes_deprecated.cjs -->
<g id="node1" class="node">
<title>../config/constantes_deprecated.cjs</title>
<path fill="none" stroke="#cfffac" d="M234.21,-1426.75C234.21,-1426.75 22.54,-1426.75 22.54,-1426.75 18.58,-1426.75 14.62,-1422.79 14.62,-1418.83 14.62,-1418.83 14.62,-1410.92 14.62,-1410.92 14.62,-1406.96 18.58,-1403 22.54,-1403 22.54,-1403 234.21,-1403 234.21,-1403 238.17,-1403 242.12,-1406.96 242.12,-1410.92 242.12,-1410.92 242.12,-1418.83 242.12,-1418.83 242.12,-1422.79 238.17,-1426.75 234.21,-1426.75"/>
<text xml:space="preserve" text-anchor="middle" x="128.38" y="-1409.45" font-family="Arial" font-size="14.00" fill="#cfffac">../config/constantes_deprecated.cjs</text>
</g>
<!-- ../config/database.js -->
<g id="node2" class="node">
<title>../config/database.js</title>
<path fill="none" stroke="#c6c5fe" d="M420.83,-1508.75C420.83,-1508.75 300.67,-1508.75 300.67,-1508.75 296.71,-1508.75 292.75,-1504.79 292.75,-1500.83 292.75,-1500.83 292.75,-1492.92 292.75,-1492.92 292.75,-1488.96 296.71,-1485 300.67,-1485 300.67,-1485 420.83,-1485 420.83,-1485 424.79,-1485 428.75,-1488.96 428.75,-1492.92 428.75,-1492.92 428.75,-1500.83 428.75,-1500.83 428.75,-1504.79 424.79,-1508.75 420.83,-1508.75"/>
<text xml:space="preserve" text-anchor="middle" x="360.75" y="-1491.45" font-family="Arial" font-size="14.00" fill="#c6c5fe">../config/database.js</text>
</g>
<!-- ../config/env.js -->
<g id="node3" class="node">
<title>../config/env.js</title>
<path fill="none" stroke="#cfffac" d="M1198.58,-1460.75C1198.58,-1460.75 1112.92,-1460.75 1112.92,-1460.75 1108.96,-1460.75 1105,-1456.79 1105,-1452.83 1105,-1452.83 1105,-1444.92 1105,-1444.92 1105,-1440.96 1108.96,-1437 1112.92,-1437 1112.92,-1437 1198.58,-1437 1198.58,-1437 1202.54,-1437 1206.5,-1440.96 1206.5,-1444.92 1206.5,-1444.92 1206.5,-1452.83 1206.5,-1452.83 1206.5,-1456.79 1202.54,-1460.75 1198.58,-1460.75"/>
<text xml:space="preserve" text-anchor="middle" x="1155.75" y="-1443.45" font-family="Arial" font-size="14.00" fill="#cfffac">../config/env.js</text>
</g>
<!-- ../config/database.js&#45;&gt;../config/env.js -->
<g id="edge1" class="edge">
<title>../config/database.js&#45;&gt;../config/env.js</title>
<path fill="none" stroke="#757575" d="M428.82,-1496.01C543.25,-1494.1 783.46,-1488.22 985.75,-1470.88 1021.61,-1467.8 1061.56,-1462.68 1093.6,-1458.15"/>
<polygon fill="#757575" stroke="#757575" points="1093.69,-1461.67 1103.09,-1456.79 1092.7,-1454.75 1093.69,-1461.67"/>
</g>
<!-- ../config/log.js -->
<g id="node4" class="node">
<title>../config/log.js</title>
<path fill="none" stroke="#cfffac" d="M2508.33,-953.75C2508.33,-953.75 2425.67,-953.75 2425.67,-953.75 2421.71,-953.75 2417.75,-949.79 2417.75,-945.83 2417.75,-945.83 2417.75,-937.92 2417.75,-937.92 2417.75,-933.96 2421.71,-930 2425.67,-930 2425.67,-930 2508.33,-930 2508.33,-930 2512.29,-930 2516.25,-933.96 2516.25,-937.92 2516.25,-937.92 2516.25,-945.83 2516.25,-945.83 2516.25,-949.79 2512.29,-953.75 2508.33,-953.75"/>
<text xml:space="preserve" text-anchor="middle" x="2467" y="-936.45" font-family="Arial" font-size="14.00" fill="#cfffac">../config/log.js</text>
</g>
<!-- ../config/database.js&#45;&gt;../config/log.js -->
<g id="edge2" class="edge">
<title>../config/database.js&#45;&gt;../config/log.js</title>
<path fill="none" stroke="#757575" d="M429.04,-1505.04C522.5,-1515.67 696.96,-1532.88 846.25,-1532.88 846.25,-1532.88 846.25,-1532.88 1797.75,-1532.88 2042.44,-1532.88 2161.82,-1619.61 2342.75,-1454.88 2417.3,-1387 2454.78,-1056.5 2463.81,-965.25"/>
<polygon fill="#757575" stroke="#757575" points="2467.27,-965.81 2464.75,-955.52 2460.31,-965.14 2467.27,-965.81"/>
</g>
<!-- ../config/socket.js -->
<g id="node5" class="node">
<title>../config/socket.js</title>
<path fill="none" stroke="#c6c5fe" d="M1848.58,-691.75C1848.58,-691.75 1744.92,-691.75 1744.92,-691.75 1740.96,-691.75 1737,-687.79 1737,-683.83 1737,-683.83 1737,-675.92 1737,-675.92 1737,-671.96 1740.96,-668 1744.92,-668 1744.92,-668 1848.58,-668 1848.58,-668 1852.54,-668 1856.5,-671.96 1856.5,-675.92 1856.5,-675.92 1856.5,-683.83 1856.5,-683.83 1856.5,-687.79 1852.54,-691.75 1848.58,-691.75"/>
<text xml:space="preserve" text-anchor="middle" x="1796.75" y="-674.45" font-family="Arial" font-size="14.00" fill="#c6c5fe">../config/socket.js</text>
</g>
<!-- ../config/socket.js&#45;&gt;../config/log.js -->
<g id="edge3" class="edge">
<title>../config/socket.js&#45;&gt;../config/log.js</title>
<path fill="none" stroke="#757575" d="M1849.31,-667.5C1952.32,-645.87 2187.02,-612.33 2342.75,-711.88 2417.89,-759.91 2450.35,-870.08 2461.34,-918.41"/>
<polygon fill="#757575" stroke="#757575" points="2457.89,-919.03 2463.41,-928.07 2464.73,-917.56 2457.89,-919.03"/>
</g>
<!-- gameState/managers/PlayersStateConnectionManager.js -->
<g id="node6" class="node">
<title>gameState/managers/PlayersStateConnectionManager.js</title>
<path fill="none" stroke="#cfffac" d="M2334.83,-744.75C2334.83,-744.75 1988.92,-744.75 1988.92,-744.75 1984.96,-744.75 1981,-740.79 1981,-736.83 1981,-736.83 1981,-728.92 1981,-728.92 1981,-724.96 1984.96,-721 1988.92,-721 1988.92,-721 2334.83,-721 2334.83,-721 2338.79,-721 2342.75,-724.96 2342.75,-728.92 2342.75,-728.92 2342.75,-736.83 2342.75,-736.83 2342.75,-740.79 2338.79,-744.75 2334.83,-744.75"/>
<text xml:space="preserve" text-anchor="middle" x="2161.88" y="-727.45" font-family="Arial" font-size="14.00" fill="#cfffac">gameState/managers/PlayersStateConnectionManager.js</text>
</g>
<!-- ../config/socket.js&#45;&gt;gameState/managers/PlayersStateConnectionManager.js -->
<g id="edge4" class="edge">
<title>../config/socket.js&#45;&gt;gameState/managers/PlayersStateConnectionManager.js</title>
<path fill="none" stroke="#757575" d="M1856.9,-688.51C1913.23,-696.73 1998.98,-709.25 2065.06,-718.89"/>
<polygon fill="#757575" stroke="#757575" points="2064.42,-722.33 2074.83,-720.32 2065.44,-715.41 2064.42,-722.33"/>
</g>
<!-- app.js -->
<g id="node7" class="node">
<title>app.js</title>
<path fill="none" stroke="#c6c5fe" d="M379.83,-461.75C379.83,-461.75 341.67,-461.75 341.67,-461.75 337.71,-461.75 333.75,-457.79 333.75,-453.83 333.75,-453.83 333.75,-445.92 333.75,-445.92 333.75,-441.96 337.71,-438 341.67,-438 341.67,-438 379.83,-438 379.83,-438 383.79,-438 387.75,-441.96 387.75,-445.92 387.75,-445.92 387.75,-453.83 387.75,-453.83 387.75,-457.79 383.79,-461.75 379.83,-461.75"/>
<text xml:space="preserve" text-anchor="middle" x="360.75" y="-444.45" font-family="Arial" font-size="14.00" fill="#c6c5fe">app.js</text>
</g>
<!-- app.js&#45;&gt;../config/env.js -->
<g id="edge5" class="edge">
<title>app.js&#45;&gt;../config/env.js</title>
<path fill="none" stroke="#757575" d="M362.16,-462.22C365.81,-568.48 394.27,-1326.51 464.75,-1394.88 487.16,-1416.61 928.18,-1438.66 1093.17,-1446.17"/>
<polygon fill="#757575" stroke="#757575" points="1092.9,-1449.66 1103.05,-1446.62 1093.22,-1442.67 1092.9,-1449.66"/>
</g>
<!-- app.js&#45;&gt;../config/log.js -->
<g id="edge6" class="edge">
<title>app.js&#45;&gt;../config/log.js</title>
<path fill="none" stroke="#757575" d="M365.35,-462.12C387.02,-534.13 505.89,-907.23 708.75,-1140.88 819.73,-1268.69 861.67,-1302.86 1021.75,-1357.88 1160.56,-1405.58 2226.96,-1449.08 2342.75,-1358.88 2407.19,-1308.67 2450.76,-1045.32 2462.69,-965.09"/>
<polygon fill="#757575" stroke="#757575" points="2466.14,-965.75 2464.12,-955.35 2459.21,-964.74 2466.14,-965.75"/>
</g>
<!-- event/event.routes.js -->
<g id="node8" class="node">
<title>event/event.routes.js</title>
<path fill="none" stroke="#c6c5fe" d="M631.08,-542.75C631.08,-542.75 506.42,-542.75 506.42,-542.75 502.46,-542.75 498.5,-538.79 498.5,-534.83 498.5,-534.83 498.5,-526.92 498.5,-526.92 498.5,-522.96 502.46,-519 506.42,-519 506.42,-519 631.08,-519 631.08,-519 635.04,-519 639,-522.96 639,-526.92 639,-526.92 639,-534.83 639,-534.83 639,-538.79 635.04,-542.75 631.08,-542.75"/>
<text xml:space="preserve" text-anchor="middle" x="568.75" y="-525.45" font-family="Arial" font-size="14.00" fill="#c6c5fe">event/event.routes.js</text>
</g>
<!-- app.js&#45;&gt;event/event.routes.js -->
<g id="edge7" class="edge">
<title>app.js&#45;&gt;event/event.routes.js</title>
<path fill="none" stroke="#757575" d="M387.84,-460.13C422.62,-473.81 484.6,-498.18 525.94,-514.44"/>
<polygon fill="#757575" stroke="#757575" points="524.5,-517.63 535.09,-518.03 527.06,-511.11 524.5,-517.63"/>
</g>
<!-- gameState/game.state.routes.js -->
<g id="node9" class="node">
<title>gameState/game.state.routes.js</title>
<path fill="none" stroke="#c6c5fe" d="M664.83,-461.75C664.83,-461.75 472.67,-461.75 472.67,-461.75 468.71,-461.75 464.75,-457.79 464.75,-453.83 464.75,-453.83 464.75,-445.92 464.75,-445.92 464.75,-441.96 468.71,-438 472.67,-438 472.67,-438 664.83,-438 664.83,-438 668.79,-438 672.75,-441.96 672.75,-445.92 672.75,-445.92 672.75,-453.83 672.75,-453.83 672.75,-457.79 668.79,-461.75 664.83,-461.75"/>
<text xml:space="preserve" text-anchor="middle" x="568.75" y="-444.45" font-family="Arial" font-size="14.00" fill="#c6c5fe">gameState/game.state.routes.js</text>
</g>
<!-- app.js&#45;&gt;gameState/game.state.routes.js -->
<g id="edge8" class="edge">
<title>app.js&#45;&gt;gameState/game.state.routes.js</title>
<path fill="none" stroke="#757575" d="M387.84,-449.88C404.93,-449.88 428.58,-449.88 453.12,-449.88"/>
<polygon fill="#757575" stroke="#757575" points="452.92,-453.38 462.92,-449.88 452.92,-446.38 452.92,-453.38"/>
</g>
<!-- session/avatar/avatar.routes.js -->
<g id="node10" class="node">
<title>session/avatar/avatar.routes.js</title>
<path fill="none" stroke="#c6c5fe" d="M659.96,-292.75C659.96,-292.75 477.54,-292.75 477.54,-292.75 473.58,-292.75 469.62,-288.79 469.62,-284.83 469.62,-284.83 469.62,-276.92 469.62,-276.92 469.62,-272.96 473.58,-269 477.54,-269 477.54,-269 659.96,-269 659.96,-269 663.92,-269 667.88,-272.96 667.88,-276.92 667.88,-276.92 667.88,-284.83 667.88,-284.83 667.88,-288.79 663.92,-292.75 659.96,-292.75"/>
<text xml:space="preserve" text-anchor="middle" x="568.75" y="-275.45" font-family="Arial" font-size="14.00" fill="#c6c5fe">session/avatar/avatar.routes.js</text>
</g>
<!-- app.js&#45;&gt;session/avatar/avatar.routes.js -->
<g id="edge9" class="edge">
<title>app.js&#45;&gt;session/avatar/avatar.routes.js</title>
<path fill="none" stroke="#757575" d="M374.81,-437.77C394.09,-420.02 431.51,-386.08 464.75,-358.88 490.22,-338.03 520.34,-315.45 541.41,-299.97"/>
<polygon fill="#757575" stroke="#757575" points="543.45,-302.81 549.46,-294.09 539.32,-297.16 543.45,-302.81"/>
</g>
<!-- session/rules/rules.routes.js -->
<g id="node11" class="node">
<title>session/rules/rules.routes.js</title>
<path fill="none" stroke="#c6c5fe" d="M652.08,-217.75C652.08,-217.75 485.42,-217.75 485.42,-217.75 481.46,-217.75 477.5,-213.79 477.5,-209.83 477.5,-209.83 477.5,-201.92 477.5,-201.92 477.5,-197.96 481.46,-194 485.42,-194 485.42,-194 652.08,-194 652.08,-194 656.04,-194 660,-197.96 660,-201.92 660,-201.92 660,-209.83 660,-209.83 660,-213.79 656.04,-217.75 652.08,-217.75"/>
<text xml:space="preserve" text-anchor="middle" x="568.75" y="-200.45" font-family="Arial" font-size="14.00" fill="#c6c5fe">session/rules/rules.routes.js</text>
</g>
<!-- app.js&#45;&gt;session/rules/rules.routes.js -->
<g id="edge10" class="edge">
<title>app.js&#45;&gt;session/rules/rules.routes.js</title>
<path fill="none" stroke="#757575" d="M365.55,-437.65C376.24,-404.98 409.45,-314.41 464.75,-259.88 480.88,-243.97 502.66,-231.63 522.04,-222.79"/>
<polygon fill="#757575" stroke="#757575" points="523.34,-226.04 531.12,-218.84 520.55,-219.62 523.34,-226.04"/>
</g>
<!-- session/session.routes.js -->
<g id="node12" class="node">
<title>session/session.routes.js</title>
<path fill="none" stroke="#c6c5fe" d="M643.83,-391.75C643.83,-391.75 493.67,-391.75 493.67,-391.75 489.71,-391.75 485.75,-387.79 485.75,-383.83 485.75,-383.83 485.75,-375.92 485.75,-375.92 485.75,-371.96 489.71,-368 493.67,-368 493.67,-368 643.83,-368 643.83,-368 647.79,-368 651.75,-371.96 651.75,-375.92 651.75,-375.92 651.75,-383.83 651.75,-383.83 651.75,-387.79 647.79,-391.75 643.83,-391.75"/>
<text xml:space="preserve" text-anchor="middle" x="568.75" y="-374.45" font-family="Arial" font-size="14.00" fill="#c6c5fe">session/session.routes.js</text>
</g>
<!-- app.js&#45;&gt;session/session.routes.js -->
<g id="edge11" class="edge">
<title>app.js&#45;&gt;session/session.routes.js</title>
<path fill="none" stroke="#757575" d="M387.84,-441.01C421.16,-429.69 479.43,-409.88 520.62,-395.89"/>
<polygon fill="#757575" stroke="#757575" points="521.71,-399.22 530.05,-392.69 519.46,-392.59 521.71,-399.22"/>
</g>
<!-- survey/survey.routes.js -->
<g id="node13" class="node">
<title>survey/survey.routes.js</title>
<path fill="none" stroke="#c6c5fe" d="M637.46,-85.75C637.46,-85.75 500.04,-85.75 500.04,-85.75 496.08,-85.75 492.12,-81.79 492.12,-77.83 492.12,-77.83 492.12,-69.92 492.12,-69.92 492.12,-65.96 496.08,-62 500.04,-62 500.04,-62 637.46,-62 637.46,-62 641.42,-62 645.38,-65.96 645.38,-69.92 645.38,-69.92 645.38,-77.83 645.38,-77.83 645.38,-81.79 641.42,-85.75 637.46,-85.75"/>
<text xml:space="preserve" text-anchor="middle" x="568.75" y="-68.45" font-family="Arial" font-size="14.00" fill="#c6c5fe">survey/survey.routes.js</text>
</g>
<!-- app.js&#45;&gt;survey/survey.routes.js -->
<g id="edge12" class="edge">
<title>app.js&#45;&gt;survey/survey.routes.js</title>
<path fill="none" stroke="#757575" d="M364.7,-437.77C374.54,-398.85 408.83,-274.2 464.75,-184.88 487.16,-149.07 522.02,-114.49 544.86,-93.69"/>
<polygon fill="#757575" stroke="#757575" points="547.02,-96.46 552.14,-87.18 542.36,-91.24 547.02,-96.46"/>
</g>
<!-- event/event.controller.js -->
<g id="node14" class="node">
<title>event/event.controller.js</title>
<path fill="none" stroke="#c6c5fe" d="M1540.08,-1365.75C1540.08,-1365.75 1398.17,-1365.75 1398.17,-1365.75 1394.21,-1365.75 1390.25,-1361.79 1390.25,-1357.83 1390.25,-1357.83 1390.25,-1349.92 1390.25,-1349.92 1390.25,-1345.96 1394.21,-1342 1398.17,-1342 1398.17,-1342 1540.08,-1342 1540.08,-1342 1544.04,-1342 1548,-1345.96 1548,-1349.92 1548,-1349.92 1548,-1357.83 1548,-1357.83 1548,-1361.79 1544.04,-1365.75 1540.08,-1365.75"/>
<text xml:space="preserve" text-anchor="middle" x="1469.12" y="-1348.45" font-family="Arial" font-size="14.00" fill="#c6c5fe">event/event.controller.js</text>
</g>
<!-- event/event.routes.js&#45;&gt;event/event.controller.js -->
<g id="edge16" class="edge">
<title>event/event.routes.js&#45;&gt;event/event.controller.js</title>
<path fill="none" stroke="#757575" d="M572.17,-543.19C589.67,-628.35 705.09,-1132.23 1021.75,-1327.88 1079.37,-1363.48 1265.85,-1362.62 1378.74,-1358.47"/>
<polygon fill="#757575" stroke="#757575" points="1378.73,-1361.97 1388.59,-1358.09 1378.46,-1354.98 1378.73,-1361.97"/>
</g>
<!-- event/event.sanitize.js -->
<g id="node18" class="node">
<title>event/event.sanitize.js</title>
<path fill="none" stroke="#c6c5fe" d="M913.71,-503.75C913.71,-503.75 780.79,-503.75 780.79,-503.75 776.83,-503.75 772.88,-499.79 772.88,-495.83 772.88,-495.83 772.88,-487.92 772.88,-487.92 772.88,-483.96 776.83,-480 780.79,-480 780.79,-480 913.71,-480 913.71,-480 917.67,-480 921.62,-483.96 921.62,-487.92 921.62,-487.92 921.62,-495.83 921.62,-495.83 921.62,-499.79 917.67,-503.75 913.71,-503.75"/>
<text xml:space="preserve" text-anchor="middle" x="847.25" y="-486.45" font-family="Arial" font-size="14.00" fill="#c6c5fe">event/event.sanitize.js</text>
</g>
<!-- event/event.routes.js&#45;&gt;event/event.sanitize.js -->
<g id="edge17" class="edge">
<title>event/event.routes.js&#45;&gt;event/event.sanitize.js</title>
<path fill="none" stroke="#757575" d="M639.17,-521.08C676.15,-515.87 721.95,-509.41 761.07,-503.89"/>
<polygon fill="#757575" stroke="#757575" points="761.53,-507.36 770.95,-502.5 760.56,-500.43 761.53,-507.36"/>
</g>
<!-- misc/validate.tool.js -->
<g id="node19" class="node">
<title>misc/validate.tool.js</title>
<path fill="none" stroke="#c6c5fe" d="M1214.71,-313.75C1214.71,-313.75 1096.79,-313.75 1096.79,-313.75 1092.83,-313.75 1088.88,-309.79 1088.88,-305.83 1088.88,-305.83 1088.88,-297.92 1088.88,-297.92 1088.88,-293.96 1092.83,-290 1096.79,-290 1096.79,-290 1214.71,-290 1214.71,-290 1218.67,-290 1222.62,-293.96 1222.62,-297.92 1222.62,-297.92 1222.62,-305.83 1222.62,-305.83 1222.62,-309.79 1218.67,-313.75 1214.71,-313.75"/>
<text xml:space="preserve" text-anchor="middle" x="1155.75" y="-296.45" font-family="Arial" font-size="14.00" fill="#c6c5fe">misc/validate.tool.js</text>
</g>
<!-- event/event.routes.js&#45;&gt;misc/validate.tool.js -->
<g id="edge18" class="edge">
<title>event/event.routes.js&#45;&gt;misc/validate.tool.js</title>
<path fill="none" stroke="#757575" d="M608.58,-543.16C689.43,-566.1 877.34,-605.22 985.75,-512.88 1046.2,-461.38 967.35,-395.72 1021.75,-337.88 1036.34,-322.36 1056.86,-313.29 1077.42,-308.05"/>
<polygon fill="#757575" stroke="#757575" points="1078,-311.5 1087,-305.91 1076.48,-304.67 1078,-311.5"/>
</g>
<!-- gameState/game.state.routes.js&#45;&gt;misc/validate.tool.js -->
<g id="edge31" class="edge">
<title>gameState/game.state.routes.js&#45;&gt;misc/validate.tool.js</title>
<path fill="none" stroke="#757575" d="M638.06,-437.56C721.26,-421.73 865.59,-391.62 985.75,-352.88 1002.25,-347.56 1005.35,-343.48 1021.75,-337.88 1044.4,-330.13 1069.67,-322.93 1092.05,-317.05"/>
<polygon fill="#757575" stroke="#757575" points="1092.85,-320.46 1101.66,-314.56 1091.1,-313.68 1092.85,-320.46"/>
</g>
<!-- gameState/game.state.controller.js -->
<g id="node21" class="node">
<title>gameState/game.state.controller.js</title>
<path fill="none" stroke="#c6c5fe" d="M951.96,-774.75C951.96,-774.75 742.54,-774.75 742.54,-774.75 738.58,-774.75 734.62,-770.79 734.62,-766.83 734.62,-766.83 734.62,-758.92 734.62,-758.92 734.62,-754.96 738.58,-751 742.54,-751 742.54,-751 951.96,-751 951.96,-751 955.92,-751 959.88,-754.96 959.88,-758.92 959.88,-758.92 959.88,-766.83 959.88,-766.83 959.88,-770.79 955.92,-774.75 951.96,-774.75"/>
<text xml:space="preserve" text-anchor="middle" x="847.25" y="-757.45" font-family="Arial" font-size="14.00" fill="#c6c5fe">gameState/game.state.controller.js</text>
</g>
<!-- gameState/game.state.routes.js&#45;&gt;gameState/game.state.controller.js -->
<g id="edge29" class="edge">
<title>gameState/game.state.routes.js&#45;&gt;gameState/game.state.controller.js</title>
<path fill="none" stroke="#757575" d="M603.98,-462.06C626.55,-471.74 655.1,-487.42 672.75,-509.88 707.43,-553.98 679.54,-582.97 708.75,-630.88 737.94,-678.76 788.74,-721.09 819.75,-744.24"/>
<polygon fill="#757575" stroke="#757575" points="817.33,-746.81 827.47,-749.9 821.47,-741.16 817.33,-746.81"/>
</g>
<!-- gameState/sanitizers/game.state.sanitize.js -->
<g id="node28" class="node">
<title>gameState/sanitizers/game.state.sanitize.js</title>
<path fill="none" stroke="#c6c5fe" d="M977.83,-461.75C977.83,-461.75 716.67,-461.75 716.67,-461.75 712.71,-461.75 708.75,-457.79 708.75,-453.83 708.75,-453.83 708.75,-445.92 708.75,-445.92 708.75,-441.96 712.71,-438 716.67,-438 716.67,-438 977.83,-438 977.83,-438 981.79,-438 985.75,-441.96 985.75,-445.92 985.75,-445.92 985.75,-453.83 985.75,-453.83 985.75,-457.79 981.79,-461.75 977.83,-461.75"/>
<text xml:space="preserve" text-anchor="middle" x="847.25" y="-444.45" font-family="Arial" font-size="14.00" fill="#c6c5fe">gameState/sanitizers/game.state.sanitize.js</text>
</g>
<!-- gameState/game.state.routes.js&#45;&gt;gameState/sanitizers/game.state.sanitize.js -->
<g id="edge30" class="edge">
<title>gameState/game.state.routes.js&#45;&gt;gameState/sanitizers/game.state.sanitize.js</title>
<path fill="none" stroke="#757575" d="M673.1,-449.88C680.92,-449.88 688.9,-449.88 696.93,-449.88"/>
<polygon fill="#757575" stroke="#757575" points="696.79,-453.38 706.79,-449.88 696.79,-446.38 696.79,-453.38"/>
</g>
<!-- session/avatar/avatar.routes.js&#45;&gt;misc/validate.tool.js -->
<g id="edge77" class="edge">
<title>session/avatar/avatar.routes.js&#45;&gt;misc/validate.tool.js</title>
<path fill="none" stroke="#757575" d="M595.4,-268.6C622.75,-256.25 667.7,-238.03 708.75,-230.88 830.03,-209.73 874.79,-177.54 985.75,-230.88 1008.83,-241.97 999.84,-262.61 1021.75,-275.88 1038.4,-285.96 1058.19,-292.24 1077.34,-296.13"/>
<polygon fill="#757575" stroke="#757575" points="1076.56,-299.54 1087.03,-297.88 1077.81,-292.66 1076.56,-299.54"/>
</g>
<!-- session/avatar/avatar.controller.js -->
<g id="node43" class="node">
<title>session/avatar/avatar.controller.js</title>
<path fill="none" stroke="#c6c5fe" d="M1568.96,-533.75C1568.96,-533.75 1369.29,-533.75 1369.29,-533.75 1365.33,-533.75 1361.38,-529.79 1361.38,-525.83 1361.38,-525.83 1361.38,-517.92 1361.38,-517.92 1361.38,-513.96 1365.33,-510 1369.29,-510 1369.29,-510 1568.96,-510 1568.96,-510 1572.92,-510 1576.88,-513.96 1576.88,-517.92 1576.88,-517.92 1576.88,-525.83 1576.88,-525.83 1576.88,-529.79 1572.92,-533.75 1568.96,-533.75"/>
<text xml:space="preserve" text-anchor="middle" x="1469.12" y="-516.45" font-family="Arial" font-size="14.00" fill="#c6c5fe">session/avatar/avatar.controller.js</text>
</g>
<!-- session/avatar/avatar.routes.js&#45;&gt;session/avatar/avatar.controller.js -->
<g id="edge78" class="edge">
<title>session/avatar/avatar.routes.js&#45;&gt;session/avatar/avatar.controller.js</title>
<path fill="none" stroke="#757575" d="M594.54,-293.1C618.29,-306.12 653.32,-328.97 672.75,-358.88 711.04,-417.82 653.94,-468.87 708.75,-512.88 807.06,-591.81 1182.28,-557.83 1365.82,-535.59"/>
<polygon fill="#757575" stroke="#757575" points="1366.08,-539.08 1375.59,-534.39 1365.23,-532.13 1366.08,-539.08"/>
</g>
<!-- session/avatar/avatar.sanitize.js -->
<g id="node45" class="node">
<title>session/avatar/avatar.sanitize.js</title>
<path fill="none" stroke="#c6c5fe" d="M942.58,-263.75C942.58,-263.75 751.92,-263.75 751.92,-263.75 747.96,-263.75 744,-259.79 744,-255.83 744,-255.83 744,-247.92 744,-247.92 744,-243.96 747.96,-240 751.92,-240 751.92,-240 942.58,-240 942.58,-240 946.54,-240 950.5,-243.96 950.5,-247.92 950.5,-247.92 950.5,-255.83 950.5,-255.83 950.5,-259.79 946.54,-263.75 942.58,-263.75"/>
<text xml:space="preserve" text-anchor="middle" x="847.25" y="-246.45" font-family="Arial" font-size="14.00" fill="#c6c5fe">session/avatar/avatar.sanitize.js</text>
</g>
<!-- session/avatar/avatar.routes.js&#45;&gt;session/avatar/avatar.sanitize.js -->
<g id="edge79" class="edge">
<title>session/avatar/avatar.routes.js&#45;&gt;session/avatar/avatar.sanitize.js</title>
<path fill="none" stroke="#757575" d="M668.01,-270.57C688.8,-268.39 710.91,-266.07 732.23,-263.83"/>
<polygon fill="#757575" stroke="#757575" points="732.54,-267.32 742.12,-262.8 731.81,-260.36 732.54,-267.32"/>
</g>
<!-- session/rules/rules.routes.js&#45;&gt;misc/validate.tool.js -->
<g id="edge85" class="edge">
<title>session/rules/rules.routes.js&#45;&gt;misc/validate.tool.js</title>
<path fill="none" stroke="#757575" d="M603.86,-193.53C679.53,-168.45 864.36,-120.21 985.75,-197.88 1017.91,-218.45 991.72,-252.29 1021.75,-275.88 1037.52,-288.26 1057.54,-295.28 1077.22,-299.14"/>
<polygon fill="#757575" stroke="#757575" points="1076.48,-302.56 1086.92,-300.76 1077.64,-295.66 1076.48,-302.56"/>
</g>
<!-- session/rules/rules.controller.js -->
<g id="node48" class="node">
<title>session/rules/rules.controller.js</title>
<path fill="none" stroke="#c6c5fe" d="M1561.08,-491.75C1561.08,-491.75 1377.17,-491.75 1377.17,-491.75 1373.21,-491.75 1369.25,-487.79 1369.25,-483.83 1369.25,-483.83 1369.25,-475.92 1369.25,-475.92 1369.25,-471.96 1373.21,-468 1377.17,-468 1377.17,-468 1561.08,-468 1561.08,-468 1565.04,-468 1569,-471.96 1569,-475.92 1569,-475.92 1569,-483.83 1569,-483.83 1569,-487.79 1565.04,-491.75 1561.08,-491.75"/>
<text xml:space="preserve" text-anchor="middle" x="1469.12" y="-474.45" font-family="Arial" font-size="14.00" fill="#c6c5fe">session/rules/rules.controller.js</text>
</g>
<!-- session/rules/rules.routes.js&#45;&gt;session/rules/rules.controller.js -->
<g id="edge86" class="edge">
<title>session/rules/rules.routes.js&#45;&gt;session/rules/rules.controller.js</title>
<path fill="none" stroke="#757575" d="M607.84,-218.21C629.39,-226.88 655.41,-240.44 672.75,-259.88 702.26,-292.94 674.39,-324.88 708.75,-352.88 758.4,-393.32 1159.32,-444.39 1357.73,-467.5"/>
<polygon fill="#757575" stroke="#757575" points="1357.21,-470.97 1367.55,-468.64 1358.02,-464.01 1357.21,-470.97"/>
</g>
<!-- session/rules/rules.sanitize.js -->
<g id="node49" class="node">
<title>session/rules/rules.sanitize.js</title>
<path fill="none" stroke="#c6c5fe" d="M934.71,-145.75C934.71,-145.75 759.79,-145.75 759.79,-145.75 755.83,-145.75 751.88,-141.79 751.88,-137.83 751.88,-137.83 751.88,-129.92 751.88,-129.92 751.88,-125.96 755.83,-122 759.79,-122 759.79,-122 934.71,-122 934.71,-122 938.67,-122 942.62,-125.96 942.62,-129.92 942.62,-129.92 942.62,-137.83 942.62,-137.83 942.62,-141.79 938.67,-145.75 934.71,-145.75"/>
<text xml:space="preserve" text-anchor="middle" x="847.25" y="-128.45" font-family="Arial" font-size="14.00" fill="#c6c5fe">session/rules/rules.sanitize.js</text>
</g>
<!-- session/rules/rules.routes.js&#45;&gt;session/rules/rules.sanitize.js -->
<g id="edge87" class="edge">
<title>session/rules/rules.routes.js&#45;&gt;session/rules/rules.sanitize.js</title>
<path fill="none" stroke="#757575" d="M602.8,-193.56C630.74,-183.48 671.96,-169.4 708.75,-159.88 725.25,-155.61 743.02,-151.72 760.14,-148.34"/>
<polygon fill="#757575" stroke="#757575" points="760.64,-151.81 769.79,-146.47 759.31,-144.94 760.64,-151.81"/>
</g>
<!-- session/session.routes.js&#45;&gt;misc/validate.tool.js -->
<g id="edge99" class="edge">
<title>session/session.routes.js&#45;&gt;misc/validate.tool.js</title>
<path fill="none" stroke="#757575" d="M587.63,-367.74C613.17,-351.19 662.17,-322.3 708.75,-310.88 834.98,-279.92 987.38,-285.68 1077.39,-293.33"/>
<polygon fill="#757575" stroke="#757575" points="1076.81,-296.79 1087.08,-294.18 1077.43,-289.82 1076.81,-296.79"/>
</g>
<!-- session/session.controller.js -->
<g id="node51" class="node">
<title>session/session.controller.js</title>
<path fill="none" stroke="#c6c5fe" d="M930.96,-621.75C930.96,-621.75 763.54,-621.75 763.54,-621.75 759.58,-621.75 755.62,-617.79 755.62,-613.83 755.62,-613.83 755.62,-605.92 755.62,-605.92 755.62,-601.96 759.58,-598 763.54,-598 763.54,-598 930.96,-598 930.96,-598 934.92,-598 938.88,-601.96 938.88,-605.92 938.88,-605.92 938.88,-613.83 938.88,-613.83 938.88,-617.79 934.92,-621.75 930.96,-621.75"/>
<text xml:space="preserve" text-anchor="middle" x="847.25" y="-604.45" font-family="Arial" font-size="14.00" fill="#c6c5fe">session/session.controller.js</text>
</g>
<!-- session/session.routes.js&#45;&gt;session/session.controller.js -->
<g id="edge100" class="edge">
<title>session/session.routes.js&#45;&gt;session/session.controller.js</title>
<path fill="none" stroke="#757575" d="M615,-392.22C635.18,-399.8 657.73,-411.49 672.75,-428.88 708.32,-470.04 673.01,-504.86 708.75,-545.88 728.67,-568.73 758.48,-583.97 785.26,-593.83"/>
<polygon fill="#757575" stroke="#757575" points="784.1,-597.13 794.7,-597.1 786.4,-590.52 784.1,-597.13"/>
</g>
<!-- session/session.sanitize.js -->
<g id="node54" class="node">
<title>session/session.sanitize.js</title>
<path fill="none" stroke="#c6c5fe" d="M926.46,-343.75C926.46,-343.75 768.04,-343.75 768.04,-343.75 764.08,-343.75 760.12,-339.79 760.12,-335.83 760.12,-335.83 760.12,-327.92 760.12,-327.92 760.12,-323.96 764.08,-320 768.04,-320 768.04,-320 926.46,-320 926.46,-320 930.42,-320 934.38,-323.96 934.38,-327.92 934.38,-327.92 934.38,-335.83 934.38,-335.83 934.38,-339.79 930.42,-343.75 926.46,-343.75"/>
<text xml:space="preserve" text-anchor="middle" x="847.25" y="-326.45" font-family="Arial" font-size="14.00" fill="#c6c5fe">session/session.sanitize.js</text>
</g>
<!-- session/session.routes.js&#45;&gt;session/session.sanitize.js -->
<g id="edge101" class="edge">
<title>session/session.routes.js&#45;&gt;session/session.sanitize.js</title>
<path fill="none" stroke="#757575" d="M640.96,-367.51C678.61,-360.98 725.02,-352.92 764.18,-346.12"/>
<polygon fill="#757575" stroke="#757575" points="764.54,-349.61 773.79,-344.45 763.34,-342.72 764.54,-349.61"/>
</g>
<!-- survey/survey.routes.js&#45;&gt;misc/validate.tool.js -->
<g id="edge113" class="edge">
<title>survey/survey.routes.js&#45;&gt;misc/validate.tool.js</title>
<path fill="none" stroke="#757575" d="M645.87,-76.22C758.99,-80.42 960.88,-90.91 985.75,-112.88 1041.36,-161.99 968.66,-224.06 1021.75,-275.88 1036.6,-290.36 1056.99,-297.96 1077.36,-301.68"/>
<polygon fill="#757575" stroke="#757575" points="1076.72,-305.13 1087.13,-303.15 1077.76,-298.21 1076.72,-305.13"/>
</g>
<!-- survey/survey.controller.js -->
<g id="node55" class="node">
<title>survey/survey.controller.js</title>
<path fill="none" stroke="#c6c5fe" d="M924.58,-23.75C924.58,-23.75 769.92,-23.75 769.92,-23.75 765.96,-23.75 762,-19.79 762,-15.83 762,-15.83 762,-7.92 762,-7.92 762,-3.96 765.96,0 769.92,0 769.92,0 924.58,0 924.58,0 928.54,0 932.5,-3.96 932.5,-7.92 932.5,-7.92 932.5,-15.83 932.5,-15.83 932.5,-19.79 928.54,-23.75 924.58,-23.75"/>
<text xml:space="preserve" text-anchor="middle" x="847.25" y="-6.45" font-family="Arial" font-size="14.00" fill="#c6c5fe">survey/survey.controller.js</text>
</g>
<!-- survey/survey.routes.js&#45;&gt;survey/survey.controller.js -->
<g id="edge114" class="edge">
<title>survey/survey.routes.js&#45;&gt;survey/survey.controller.js</title>
<path fill="none" stroke="#757575" d="M606.56,-61.53C634.38,-52.57 673.63,-40.7 708.75,-32.88 722.14,-29.89 736.36,-27.2 750.38,-24.81"/>
<polygon fill="#757575" stroke="#757575" points="750.77,-28.3 760.07,-23.21 749.63,-21.39 750.77,-28.3"/>
</g>
<!-- survey/survey.sanitize.js -->
<g id="node58" class="node">
<title>survey/survey.sanitize.js</title>
<path fill="none" stroke="#c6c5fe" d="M920.08,-65.75C920.08,-65.75 774.42,-65.75 774.42,-65.75 770.46,-65.75 766.5,-61.79 766.5,-57.83 766.5,-57.83 766.5,-49.92 766.5,-49.92 766.5,-45.96 770.46,-42 774.42,-42 774.42,-42 920.08,-42 920.08,-42 924.04,-42 928,-45.96 928,-49.92 928,-49.92 928,-57.83 928,-57.83 928,-61.79 924.04,-65.75 920.08,-65.75"/>
<text xml:space="preserve" text-anchor="middle" x="847.25" y="-48.45" font-family="Arial" font-size="14.00" fill="#c6c5fe">survey/survey.sanitize.js</text>
</g>
<!-- survey/survey.routes.js&#45;&gt;survey/survey.sanitize.js -->
<g id="edge115" class="edge">
<title>survey/survey.routes.js&#45;&gt;survey/survey.sanitize.js</title>
<path fill="none" stroke="#757575" d="M645.67,-68.38C679.43,-65.94 719.45,-63.05 754.84,-60.49"/>
<polygon fill="#757575" stroke="#757575" points="754.92,-63.99 764.64,-59.78 754.42,-57.01 754.92,-63.99"/>
</g>
<!-- event/event.controller.js&#45;&gt;../config/log.js -->
<g id="edge13" class="edge">
<title>event/event.controller.js&#45;&gt;../config/log.js</title>
<path fill="none" stroke="#757575" d="M1548.38,-1356.62C1750.79,-1363 2280.26,-1374.96 2342.75,-1327.88 2403.02,-1282.46 2448.84,-1042.03 2462.09,-965.38"/>
<polygon fill="#757575" stroke="#757575" points="2465.52,-966.1 2463.75,-955.65 2458.62,-964.92 2465.52,-966.1"/>
</g>
<!-- event/event.service.js -->
<g id="node15" class="node">
<title>event/event.service.js</title>
<path fill="none" stroke="#c6c5fe" d="M1861.71,-1249.75C1861.71,-1249.75 1731.79,-1249.75 1731.79,-1249.75 1727.83,-1249.75 1723.88,-1245.79 1723.88,-1241.83 1723.88,-1241.83 1723.88,-1233.92 1723.88,-1233.92 1723.88,-1229.96 1727.83,-1226 1731.79,-1226 1731.79,-1226 1861.71,-1226 1861.71,-1226 1865.67,-1226 1869.62,-1229.96 1869.62,-1233.92 1869.62,-1233.92 1869.62,-1241.83 1869.62,-1241.83 1869.62,-1245.79 1865.67,-1249.75 1861.71,-1249.75"/>
<text xml:space="preserve" text-anchor="middle" x="1796.75" y="-1232.45" font-family="Arial" font-size="14.00" fill="#c6c5fe">event/event.service.js</text>
</g>
<!-- event/event.controller.js&#45;&gt;event/event.service.js -->
<g id="edge14" class="edge">
<title>event/event.controller.js&#45;&gt;event/event.service.js</title>
<path fill="none" stroke="#757575" d="M1504.66,-1341.57C1563.89,-1320.47 1684.8,-1277.4 1750.61,-1253.95"/>
<polygon fill="#757575" stroke="#757575" points="1751.4,-1257.39 1759.65,-1250.74 1749.05,-1250.79 1751.4,-1257.39"/>
</g>
<!-- event/event.model.js -->
<g id="node16" class="node">
<title>event/event.model.js</title>
<path fill="none" stroke="#c6c5fe" d="M2224.21,-1445.75C2224.21,-1445.75 2099.54,-1445.75 2099.54,-1445.75 2095.58,-1445.75 2091.62,-1441.79 2091.62,-1437.83 2091.62,-1437.83 2091.62,-1429.92 2091.62,-1429.92 2091.62,-1425.96 2095.58,-1422 2099.54,-1422 2099.54,-1422 2224.21,-1422 2224.21,-1422 2228.17,-1422 2232.12,-1425.96 2232.12,-1429.92 2232.12,-1429.92 2232.12,-1437.83 2232.12,-1437.83 2232.12,-1441.79 2228.17,-1445.75 2224.21,-1445.75"/>
<text xml:space="preserve" text-anchor="middle" x="2161.88" y="-1428.45" font-family="Arial" font-size="14.00" fill="#c6c5fe">event/event.model.js</text>
</g>
<!-- event/event.service.js&#45;&gt;event/event.model.js -->
<g id="edge20" class="edge">
<title>event/event.service.js&#45;&gt;event/event.model.js</title>
<path fill="none" stroke="#757575" d="M1820.47,-1250.14C1882.62,-1283.68 2055.68,-1377.09 2128.22,-1416.25"/>
<polygon fill="#757575" stroke="#757575" points="2126.37,-1419.23 2136.84,-1420.9 2129.7,-1413.07 2126.37,-1419.23"/>
</g>
<!-- event/event.schema.js -->
<g id="node17" class="node">
<title>event/event.schema.js</title>
<path fill="none" stroke="#cfffac" d="M2534.58,-1445.75C2534.58,-1445.75 2399.42,-1445.75 2399.42,-1445.75 2395.46,-1445.75 2391.5,-1441.79 2391.5,-1437.83 2391.5,-1437.83 2391.5,-1429.92 2391.5,-1429.92 2391.5,-1425.96 2395.46,-1422 2399.42,-1422 2399.42,-1422 2534.58,-1422 2534.58,-1422 2538.54,-1422 2542.5,-1425.96 2542.5,-1429.92 2542.5,-1429.92 2542.5,-1437.83 2542.5,-1437.83 2542.5,-1441.79 2538.54,-1445.75 2534.58,-1445.75"/>
<text xml:space="preserve" text-anchor="middle" x="2467" y="-1428.45" font-family="Arial" font-size="14.00" fill="#cfffac">event/event.schema.js</text>
</g>
<!-- event/event.model.js&#45;&gt;event/event.schema.js -->
<g id="edge15" class="edge">
<title>event/event.model.js&#45;&gt;event/event.schema.js</title>
<path fill="none" stroke="#757575" d="M2232.42,-1433.88C2276.26,-1433.88 2333.2,-1433.88 2379.89,-1433.88"/>
<polygon fill="#757575" stroke="#757575" points="2379.7,-1437.38 2389.7,-1433.88 2379.7,-1430.38 2379.7,-1437.38"/>
</g>
<!-- event/event.sanitize.js&#45;&gt;misc/validate.tool.js -->
<g id="edge19" class="edge">
<title>event/event.sanitize.js&#45;&gt;misc/validate.tool.js</title>
<path fill="none" stroke="#757575" d="M921.98,-495.62C944.8,-493.13 968.46,-486.32 985.75,-470.88 1031.42,-430.08 978.45,-381.18 1021.75,-337.88 1036.73,-322.89 1057.27,-313.97 1077.73,-308.7"/>
<polygon fill="#757575" stroke="#757575" points="1078.26,-312.17 1087.24,-306.54 1076.71,-305.34 1078.26,-312.17"/>
</g>
<!-- misc/misc.tool.js -->
<g id="node40" class="node">
<title>misc/misc.tool.js</title>
<path fill="none" stroke="#cfffac" d="M1846.71,-257.75C1846.71,-257.75 1746.79,-257.75 1746.79,-257.75 1742.83,-257.75 1738.88,-253.79 1738.88,-249.83 1738.88,-249.83 1738.88,-241.92 1738.88,-241.92 1738.88,-237.96 1742.83,-234 1746.79,-234 1746.79,-234 1846.71,-234 1846.71,-234 1850.67,-234 1854.62,-237.96 1854.62,-241.92 1854.62,-241.92 1854.62,-249.83 1854.62,-249.83 1854.62,-253.79 1850.67,-257.75 1846.71,-257.75"/>
<text xml:space="preserve" text-anchor="middle" x="1796.75" y="-240.45" font-family="Arial" font-size="14.00" fill="#cfffac">misc/misc.tool.js</text>
</g>
<!-- misc/validate.tool.js&#45;&gt;misc/misc.tool.js -->
<g id="edge68" class="edge">
<title>misc/validate.tool.js&#45;&gt;misc/misc.tool.js</title>
<path fill="none" stroke="#757575" d="M1202.63,-289.55C1236.41,-281.03 1283.6,-270.3 1325.75,-264.88 1467.7,-246.61 1635.57,-244.45 1727.34,-244.9"/>
<polygon fill="#757575" stroke="#757575" points="1727.15,-248.4 1737.17,-244.96 1727.2,-241.4 1727.15,-248.4"/>
</g>
<!-- gameState/bank.controller.js -->
<g id="node20" class="node">
<title>gameState/bank.controller.js</title>
<path fill="none" stroke="#cfffac" d="M213.96,-1510.75C213.96,-1510.75 42.79,-1510.75 42.79,-1510.75 38.83,-1510.75 34.88,-1506.79 34.88,-1502.83 34.88,-1502.83 34.88,-1494.92 34.88,-1494.92 34.88,-1490.96 38.83,-1487 42.79,-1487 42.79,-1487 213.96,-1487 213.96,-1487 217.92,-1487 221.88,-1490.96 221.88,-1494.92 221.88,-1494.92 221.88,-1502.83 221.88,-1502.83 221.88,-1506.79 217.92,-1510.75 213.96,-1510.75"/>
<text xml:space="preserve" text-anchor="middle" x="128.38" y="-1493.45" font-family="Arial" font-size="14.00" fill="#cfffac">gameState/bank.controller.js</text>
</g>
<!-- gameState/game.state.controller.js&#45;&gt;../config/log.js -->
<g id="edge21" class="edge">
<title>gameState/game.state.controller.js&#45;&gt;../config/log.js</title>
<path fill="none" stroke="#757575" d="M860.92,-775.1C889.06,-803.13 956.56,-875.45 985.75,-950.88 1012.77,-1020.7 967.64,-1234.12 1021.75,-1285.88 1093.57,-1354.58 1368.74,-1313.88 1468.12,-1313.88 1468.12,-1313.88 1468.12,-1313.88 1797.75,-1313.88 2050.7,-1313.88 2143.56,-1305.78 2342.75,-1149.88 2406.35,-1100.1 2443.97,-1007.65 2458.74,-964.79"/>
<polygon fill="#757575" stroke="#757575" points="2461.98,-966.12 2461.82,-955.53 2455.34,-963.91 2461.98,-966.12"/>
</g>
<!-- gameState/game.state.controller.js&#45;&gt;../config/socket.js -->
<g id="edge22" class="edge">
<title>gameState/game.state.controller.js&#45;&gt;../config/socket.js</title>
<path fill="none" stroke="#757575" d="M911.27,-750.55C1002.33,-733.37 1176.2,-702.84 1325.75,-689.88 1467.08,-677.62 1633.16,-677.4 1725.23,-678.52"/>
<polygon fill="#757575" stroke="#757575" points="1725.07,-682.01 1735.12,-678.65 1725.16,-675.02 1725.07,-682.01"/>
</g>
<!-- gameState/game.state.controller.js&#45;&gt;event/event.service.js -->
<g id="edge23" class="edge">
<title>gameState/game.state.controller.js&#45;&gt;event/event.service.js</title>
<path fill="none" stroke="#757575" d="M848,-774.89C847.43,-838.08 853.99,-1133.39 1021.75,-1251.88 1130.65,-1328.79 1535.61,-1278.08 1712.35,-1251.37"/>
<polygon fill="#757575" stroke="#757575" points="1712.81,-1254.84 1722.16,-1249.87 1711.75,-1247.92 1712.81,-1254.84"/>
</g>
<!-- gameState/services/game.state.service.js -->
<g id="node22" class="node">
<title>gameState/services/game.state.service.js</title>
<path fill="none" stroke="#ff6c60" d="M1281.08,-824.75C1281.08,-824.75 1030.42,-824.75 1030.42,-824.75 1026.46,-824.75 1022.5,-820.79 1022.5,-816.83 1022.5,-816.83 1022.5,-808.92 1022.5,-808.92 1022.5,-804.96 1026.46,-801 1030.42,-801 1030.42,-801 1281.08,-801 1281.08,-801 1285.04,-801 1289,-804.96 1289,-808.92 1289,-808.92 1289,-816.83 1289,-816.83 1289,-820.79 1285.04,-824.75 1281.08,-824.75"/>
<text xml:space="preserve" text-anchor="middle" x="1155.75" y="-807.45" font-family="Arial" font-size="14.00" fill="#ff6c60">gameState/services/game.state.service.js</text>
</g>
<!-- gameState/game.state.controller.js&#45;&gt;gameState/services/game.state.service.js -->
<g id="edge24" class="edge">
<title>gameState/game.state.controller.js&#45;&gt;gameState/services/game.state.service.js</title>
<path fill="none" stroke="#757575" d="M924.01,-775.23C967.57,-782.34 1022.45,-791.29 1067.76,-798.68"/>
<polygon fill="#757575" stroke="#757575" points="1067.13,-802.13 1077.57,-800.28 1068.26,-795.22 1067.13,-802.13"/>
</g>
<!-- gameState/services/player.state.service.js -->
<g id="node23" class="node">
<title>gameState/services/player.state.service.js</title>
<path fill="none" stroke="#c6c5fe" d="M1281.83,-1034.75C1281.83,-1034.75 1029.67,-1034.75 1029.67,-1034.75 1025.71,-1034.75 1021.75,-1030.79 1021.75,-1026.83 1021.75,-1026.83 1021.75,-1018.92 1021.75,-1018.92 1021.75,-1014.96 1025.71,-1011 1029.67,-1011 1029.67,-1011 1281.83,-1011 1281.83,-1011 1285.79,-1011 1289.75,-1014.96 1289.75,-1018.92 1289.75,-1018.92 1289.75,-1026.83 1289.75,-1026.83 1289.75,-1030.79 1285.79,-1034.75 1281.83,-1034.75"/>
<text xml:space="preserve" text-anchor="middle" x="1155.75" y="-1017.45" font-family="Arial" font-size="14.00" fill="#c6c5fe">gameState/services/player.state.service.js</text>
</g>
<!-- gameState/game.state.controller.js&#45;&gt;gameState/services/player.state.service.js -->
<g id="edge25" class="edge">
<title>gameState/game.state.controller.js&#45;&gt;gameState/services/player.state.service.js</title>
<path fill="none" stroke="#757575" d="M862.62,-775.07C911.49,-816.52 1071.53,-952.28 1131.65,-1003.28"/>
<polygon fill="#757575" stroke="#757575" points="1129.36,-1005.93 1139.25,-1009.73 1133.89,-1000.59 1129.36,-1005.93"/>
</g>
<!-- session/rules/rules.service.js -->
<g id="node24" class="node">
<title>session/rules/rules.service.js</title>
<path fill="none" stroke="#c6c5fe" d="M1882.71,-432.75C1882.71,-432.75 1710.79,-432.75 1710.79,-432.75 1706.83,-432.75 1702.88,-428.79 1702.88,-424.83 1702.88,-424.83 1702.88,-416.92 1702.88,-416.92 1702.88,-412.96 1706.83,-409 1710.79,-409 1710.79,-409 1882.71,-409 1882.71,-409 1886.67,-409 1890.62,-412.96 1890.62,-416.92 1890.62,-416.92 1890.62,-424.83 1890.62,-424.83 1890.62,-428.79 1886.67,-432.75 1882.71,-432.75"/>
<text xml:space="preserve" text-anchor="middle" x="1796.75" y="-415.45" font-family="Arial" font-size="14.00" fill="#c6c5fe">session/rules/rules.service.js</text>
</g>
<!-- gameState/game.state.controller.js&#45;&gt;session/rules/rules.service.js -->
<g id="edge26" class="edge">
<title>gameState/game.state.controller.js&#45;&gt;session/rules/rules.service.js</title>
<path fill="none" stroke="#757575" d="M878.59,-750.56C968.47,-713.55 1230.71,-601.61 1289.75,-531.88 1322.99,-492.61 1284.13,-452.11 1325.75,-421.88 1381.88,-381.09 1570.86,-394.05 1691.4,-407.35"/>
<polygon fill="#757575" stroke="#757575" points="1690.65,-410.79 1700.98,-408.43 1691.43,-403.83 1690.65,-410.79"/>
</g>
<!-- session/session.service.js -->
<g id="node25" class="node">
<title>session/session.service.js</title>
<path fill="none" stroke="#c6c5fe" d="M1546.83,-297.75C1546.83,-297.75 1391.42,-297.75 1391.42,-297.75 1387.46,-297.75 1383.5,-293.79 1383.5,-289.83 1383.5,-289.83 1383.5,-281.92 1383.5,-281.92 1383.5,-277.96 1387.46,-274 1391.42,-274 1391.42,-274 1546.83,-274 1546.83,-274 1550.79,-274 1554.75,-277.96 1554.75,-281.92 1554.75,-281.92 1554.75,-289.83 1554.75,-289.83 1554.75,-293.79 1550.79,-297.75 1546.83,-297.75"/>
<text xml:space="preserve" text-anchor="middle" x="1469.12" y="-280.45" font-family="Arial" font-size="14.00" fill="#c6c5fe">session/session.service.js</text>
</g>
<!-- gameState/game.state.controller.js&#45;&gt;session/session.service.js -->
<g id="edge27" class="edge">
<title>gameState/game.state.controller.js&#45;&gt;session/session.service.js</title>
<path fill="none" stroke="#757575" d="M863.32,-750.65C921.93,-703.16 1140.68,-526.73 1325.75,-387.88 1365.35,-358.17 1412.16,-324.99 1441,-304.77"/>
<polygon fill="#757575" stroke="#757575" points="1442.98,-307.66 1449.17,-299.06 1438.97,-301.92 1442.98,-307.66"/>
</g>
<!-- gameState/services/game.state.service.js&#45;&gt;../config/log.js -->
<g id="edge51" class="edge">
<title>gameState/services/game.state.service.js&#45;&gt;../config/log.js</title>
<path fill="none" stroke="#757575" d="M1289.49,-805.84C1578.99,-791.38 2248.79,-763.02 2342.75,-804.88 2395.79,-828.5 2435.57,-887.48 2454.23,-919.82"/>
<polygon fill="#757575" stroke="#757575" points="2451.07,-921.33 2459,-928.35 2457.18,-917.91 2451.07,-921.33"/>
</g>
<!-- gameState/services/game.state.service.js&#45;&gt;../config/socket.js -->
<g id="edge52" class="edge">
<title>gameState/services/game.state.service.js&#45;&gt;../config/socket.js</title>
<path fill="none" stroke="#757575" d="M1178.66,-800.62C1210.15,-783.6 1270.53,-753.17 1325.75,-737.88 1464.18,-699.53 1632.57,-686.51 1725.55,-682.11"/>
<polygon fill="#757575" stroke="#757575" points="1725.44,-685.61 1735.27,-681.67 1725.13,-678.62 1725.44,-685.61"/>
</g>
<!-- gameState/services/game.state.service.js&#45;&gt;gameState/managers/PlayersStateConnectionManager.js -->
<g id="edge58" class="edge">
<title>gameState/services/game.state.service.js&#45;&gt;gameState/managers/PlayersStateConnectionManager.js</title>
<path fill="none" stroke="#757575" d="M1203.37,-800.51C1237.11,-792.09 1283.93,-781.49 1325.75,-775.88 1545.28,-746.39 1799.77,-736.78 1969.58,-733.82"/>
<polygon fill="#757575" stroke="#757575" points="1969.44,-737.33 1979.38,-733.66 1969.32,-730.33 1969.44,-737.33"/>
</g>
<!-- gameState/services/game.state.service.js&#45;&gt;event/event.service.js -->
<g id="edge53" class="edge">
<title>gameState/services/game.state.service.js&#45;&gt;event/event.service.js</title>
<path fill="none" stroke="#757575" d="M1167.06,-824.93C1191.31,-853.79 1252.7,-929.79 1289.75,-1001.88 1311.92,-1045.01 1289.68,-1072.46 1325.75,-1104.88 1423.1,-1192.35 1487,-1134.75 1612.5,-1171.88 1662.08,-1186.54 1717.81,-1207.23 1754.65,-1221.52"/>
<polygon fill="#757575" stroke="#757575" points="1752.99,-1224.63 1763.58,-1225 1755.53,-1218.11 1752.99,-1224.63"/>
</g>
<!-- gameState/services/game.state.service.js&#45;&gt;session/rules/rules.service.js -->
<g id="edge60" class="edge">
<title>gameState/services/game.state.service.js&#45;&gt;session/rules/rules.service.js</title>
<path fill="none" stroke="#757575" d="M1176.92,-800.65C1206.97,-781.25 1262.84,-740.39 1289.75,-689.88 1338.61,-598.17 1249.61,-529.58 1325.75,-458.88 1351.92,-434.57 1560.88,-425.74 1691.22,-422.59"/>
<polygon fill="#757575" stroke="#757575" points="1690.98,-426.09 1700.89,-422.36 1690.81,-419.09 1690.98,-426.09"/>
</g>
<!-- gameState/services/game.state.service.js&#45;&gt;session/session.service.js -->
<g id="edge61" class="edge">
<title>gameState/services/game.state.service.js&#45;&gt;session/session.service.js</title>
<path fill="none" stroke="#757575" d="M1165.25,-800.64C1188.52,-766.6 1253.94,-667.25 1289.75,-575.88 1314.76,-512.04 1292,-485.55 1325.75,-425.88 1355.1,-373.97 1409.29,-328.61 1441.69,-304.43"/>
<polygon fill="#757575" stroke="#757575" points="1443.38,-307.53 1449.38,-298.8 1439.24,-301.88 1443.38,-307.53"/>
</g>
<!-- gameState/game.state.model.js -->
<g id="node26" class="node">
<title>gameState/game.state.model.js</title>
<path fill="none" stroke="#c6c5fe" d="M1892.83,-883.75C1892.83,-883.75 1700.67,-883.75 1700.67,-883.75 1696.71,-883.75 1692.75,-879.79 1692.75,-875.83 1692.75,-875.83 1692.75,-867.92 1692.75,-867.92 1692.75,-863.96 1696.71,-860 1700.67,-860 1700.67,-860 1892.83,-860 1892.83,-860 1896.79,-860 1900.75,-863.96 1900.75,-867.92 1900.75,-867.92 1900.75,-875.83 1900.75,-875.83 1900.75,-879.79 1896.79,-883.75 1892.83,-883.75"/>
<text xml:space="preserve" text-anchor="middle" x="1796.75" y="-866.45" font-family="Arial" font-size="14.00" fill="#c6c5fe">gameState/game.state.model.js</text>
</g>
<!-- gameState/services/game.state.service.js&#45;&gt;gameState/game.state.model.js -->
<g id="edge54" class="edge">
<title>gameState/services/game.state.service.js&#45;&gt;gameState/game.state.model.js</title>
<path fill="none" stroke="#757575" d="M1214.36,-825.24C1246.91,-831.78 1288.44,-839.36 1325.75,-843.88 1446.42,-858.48 1585.49,-865.57 1680.87,-868.94"/>
<polygon fill="#757575" stroke="#757575" points="1680.65,-872.43 1690.76,-869.28 1680.89,-865.44 1680.65,-872.43"/>
</g>
<!-- gameState/helpers/setup.state.helper.js -->
<g id="node30" class="node">
<title>gameState/helpers/setup.state.helper.js</title>
<path fill="none" stroke="#c6c5fe" d="M1588.08,-1053.75C1588.08,-1053.75 1350.17,-1053.75 1350.17,-1053.75 1346.21,-1053.75 1342.25,-1049.79 1342.25,-1045.83 1342.25,-1045.83 1342.25,-1037.92 1342.25,-1037.92 1342.25,-1033.96 1346.21,-1030 1350.17,-1030 1350.17,-1030 1588.08,-1030 1588.08,-1030 1592.04,-1030 1596,-1033.96 1596,-1037.92 1596,-1037.92 1596,-1045.83 1596,-1045.83 1596,-1049.79 1592.04,-1053.75 1588.08,-1053.75"/>
<text xml:space="preserve" text-anchor="middle" x="1469.12" y="-1036.45" font-family="Arial" font-size="14.00" fill="#c6c5fe">gameState/helpers/setup.state.helper.js</text>
</g>
<!-- gameState/services/game.state.service.js&#45;&gt;gameState/helpers/setup.state.helper.js -->
<g id="edge55" class="edge">
<title>gameState/services/game.state.service.js&#45;&gt;gameState/helpers/setup.state.helper.js</title>
<path fill="none" stroke="#757575" d="M1162.97,-825.22C1181.86,-861.32 1242.39,-967.19 1325.75,-1015.88 1332.24,-1019.66 1339.15,-1022.92 1346.3,-1025.72"/>
<polygon fill="#757575" stroke="#757575" points="1344.91,-1028.94 1355.51,-1029 1347.26,-1022.35 1344.91,-1028.94"/>
</g>
<!-- misc/Timer.js -->
<g id="node32" class="node">
<title>misc/Timer.js</title>
<path fill="none" stroke="#c6c5fe" d="M2202.08,-1034.75C2202.08,-1034.75 2121.67,-1034.75 2121.67,-1034.75 2117.71,-1034.75 2113.75,-1030.79 2113.75,-1026.83 2113.75,-1026.83 2113.75,-1018.92 2113.75,-1018.92 2113.75,-1014.96 2117.71,-1011 2121.67,-1011 2121.67,-1011 2202.08,-1011 2202.08,-1011 2206.04,-1011 2210,-1014.96 2210,-1018.92 2210,-1018.92 2210,-1026.83 2210,-1026.83 2210,-1030.79 2206.04,-1034.75 2202.08,-1034.75"/>
<text xml:space="preserve" text-anchor="middle" x="2161.88" y="-1017.45" font-family="Arial" font-size="14.00" fill="#c6c5fe">misc/Timer.js</text>
</g>
<!-- gameState/services/game.state.service.js&#45;&gt;misc/Timer.js -->
<g id="edge59" class="edge">
<title>gameState/services/game.state.service.js&#45;&gt;misc/Timer.js</title>
<path fill="none" stroke="#757575" d="M1164.4,-825.11C1185.47,-857.57 1247.94,-945.9 1325.75,-982.88 1455.95,-1044.74 1504.59,-1006.63 1648.5,-1014.88 1812.63,-1024.28 2006.79,-1024.27 2102.1,-1023.54"/>
<polygon fill="#757575" stroke="#757575" points="2102.01,-1027.05 2111.99,-1023.46 2101.96,-1020.05 2102.01,-1027.05"/>
</g>
<!-- gameState/managers/GameStateManager.js -->
<g id="node34" class="node">
<title>gameState/managers/GameStateManager.js</title>
<path fill="none" stroke="#ff6c60" d="M1604.58,-973.75C1604.58,-973.75 1333.67,-973.75 1333.67,-973.75 1329.71,-973.75 1325.75,-969.79 1325.75,-965.83 1325.75,-965.83 1325.75,-957.92 1325.75,-957.92 1325.75,-953.96 1329.71,-950 1333.67,-950 1333.67,-950 1604.58,-950 1604.58,-950 1608.54,-950 1612.5,-953.96 1612.5,-957.92 1612.5,-957.92 1612.5,-965.83 1612.5,-965.83 1612.5,-969.79 1608.54,-973.75 1604.58,-973.75"/>
<text xml:space="preserve" text-anchor="middle" x="1469.12" y="-956.45" font-family="Arial" font-size="14.00" fill="#ff6c60">gameState/managers/GameStateManager.js</text>
</g>
<!-- gameState/services/game.state.service.js&#45;&gt;gameState/managers/GameStateManager.js -->
<g id="edge56" class="edge">
<title>gameState/services/game.state.service.js&#45;&gt;gameState/managers/GameStateManager.js</title>
<path fill="none" stroke="#757575" d="M1180.38,-825.17C1212.91,-842 1273.41,-872.96 1325.75,-897.88 1360.58,-914.45 1400.68,-932.38 1429.43,-945.03"/>
<polygon fill="#757575" stroke="#757575" points="1427.91,-948.18 1438.48,-949 1430.73,-941.77 1427.91,-948.18"/>
</g>
<!-- gameState/managers/GameTimerManager.js -->
<g id="node35" class="node">
<title>gameState/managers/GameTimerManager.js</title>
<path fill="none" stroke="#ff6c60" d="M1934.08,-841.75C1934.08,-841.75 1659.42,-841.75 1659.42,-841.75 1655.46,-841.75 1651.5,-837.79 1651.5,-833.83 1651.5,-833.83 1651.5,-825.92 1651.5,-825.92 1651.5,-821.96 1655.46,-818 1659.42,-818 1659.42,-818 1934.08,-818 1934.08,-818 1938.04,-818 1942,-821.96 1942,-825.92 1942,-825.92 1942,-833.83 1942,-833.83 1942,-837.79 1938.04,-841.75 1934.08,-841.75"/>
<text xml:space="preserve" text-anchor="middle" x="1796.75" y="-824.45" font-family="Arial" font-size="14.00" fill="#ff6c60">gameState/managers/GameTimerManager.js</text>
</g>
<!-- gameState/services/game.state.service.js&#45;&gt;gameState/managers/GameTimerManager.js -->
<g id="edge57" class="edge">
<title>gameState/services/game.state.service.js&#45;&gt;gameState/managers/GameTimerManager.js</title>
<path fill="none" stroke="#757575" d="M1289.15,-810.8C1391.19,-812.08 1532.53,-815.74 1640,-819.84"/>
<polygon fill="#757575" stroke="#757575" points="1639.64,-823.33 1649.77,-820.22 1639.91,-816.33 1639.64,-823.33"/>
</g>
<!-- gameState/services/player.state.service.js&#45;&gt;../config/log.js -->
<g id="edge62" class="edge">
<title>gameState/services/player.state.service.js&#45;&gt;../config/log.js</title>
<path fill="none" stroke="#757575" d="M1281.99,-1035.16C1284.65,-1036.61 1287.25,-1038.18 1289.75,-1039.88 1317.08,-1058.41 1298.47,-1086.26 1325.75,-1104.88 1439.7,-1182.62 1807.2,-1154.1 1945,-1147.88 2122.32,-1139.87 2188.44,-1199.59 2342.75,-1111.88 2402.2,-1078.08 2440.71,-1002.53 2457.04,-964.56"/>
<polygon fill="#757575" stroke="#757575" points="2460.21,-966.05 2460.81,-955.47 2453.74,-963.37 2460.21,-966.05"/>
</g>
<!-- gameState/services/player.state.service.js&#45;&gt;../config/socket.js -->
<g id="edge63" class="edge">
<title>gameState/services/player.state.service.js&#45;&gt;../config/socket.js</title>
<path fill="none" stroke="#757575" d="M1179.49,-1010.67C1275.76,-959 1649.93,-758.15 1763.13,-697.39"/>
<polygon fill="#757575" stroke="#757575" points="1764.46,-700.64 1771.61,-692.83 1761.15,-694.48 1764.46,-700.64"/>
</g>
<!-- gameState/services/player.state.service.js&#45;&gt;event/event.service.js -->
<g id="edge64" class="edge">
<title>gameState/services/player.state.service.js&#45;&gt;event/event.service.js</title>
<path fill="none" stroke="#757575" d="M1165.77,-1035.05C1188.67,-1064.94 1252.48,-1141.96 1325.75,-1175.88 1360.05,-1191.75 1587.15,-1216.77 1712.68,-1229.63"/>
<polygon fill="#757575" stroke="#757575" points="1711.95,-1233.08 1722.25,-1230.61 1712.66,-1226.11 1711.95,-1233.08"/>
</g>
<!-- gameState/services/player.state.service.js&#45;&gt;gameState/managers/GameStateManager.js -->
<g id="edge65" class="edge">
<title>gameState/services/player.state.service.js&#45;&gt;gameState/managers/GameStateManager.js</title>
<path fill="none" stroke="#757575" d="M1219.76,-1010.53C1270.2,-1000.65 1341.03,-986.77 1394.15,-976.37"/>
<polygon fill="#757575" stroke="#757575" points="1394.58,-979.85 1403.72,-974.49 1393.24,-972.98 1394.58,-979.85"/>
</g>
<!-- gameState/services/bank.state.service.js -->
<g id="node38" class="node">
<title>gameState/services/bank.state.service.js</title>
<path fill="none" stroke="#c6c5fe" d="M1591.83,-1095.75C1591.83,-1095.75 1346.42,-1095.75 1346.42,-1095.75 1342.46,-1095.75 1338.5,-1091.79 1338.5,-1087.83 1338.5,-1087.83 1338.5,-1079.92 1338.5,-1079.92 1338.5,-1075.96 1342.46,-1072 1346.42,-1072 1346.42,-1072 1591.83,-1072 1591.83,-1072 1595.79,-1072 1599.75,-1075.96 1599.75,-1079.92 1599.75,-1079.92 1599.75,-1087.83 1599.75,-1087.83 1599.75,-1091.79 1595.79,-1095.75 1591.83,-1095.75"/>
<text xml:space="preserve" text-anchor="middle" x="1469.12" y="-1078.45" font-family="Arial" font-size="14.00" fill="#c6c5fe">gameState/services/bank.state.service.js</text>
</g>
<!-- gameState/services/player.state.service.js&#45;&gt;gameState/services/bank.state.service.js -->
<g id="edge66" class="edge">
<title>gameState/services/player.state.service.js&#45;&gt;gameState/services/bank.state.service.js</title>
<path fill="none" stroke="#757575" d="M1203.87,-1035.17C1237.64,-1043.71 1284.29,-1054.93 1325.75,-1062.88 1338.5,-1065.32 1351.94,-1067.64 1365.26,-1069.78"/>
<polygon fill="#757575" stroke="#757575" points="1364.49,-1073.2 1374.91,-1071.3 1365.58,-1066.28 1364.49,-1073.2"/>
</g>
<!-- session/session.model.js -->
<g id="node47" class="node">
<title>session/session.model.js</title>
<path fill="none" stroke="#c6c5fe" d="M2236.96,-432.75C2236.96,-432.75 2086.79,-432.75 2086.79,-432.75 2082.83,-432.75 2078.88,-428.79 2078.88,-424.83 2078.88,-424.83 2078.88,-416.92 2078.88,-416.92 2078.88,-412.96 2082.83,-409 2086.79,-409 2086.79,-409 2236.96,-409 2236.96,-409 2240.92,-409 2244.88,-412.96 2244.88,-416.92 2244.88,-416.92 2244.88,-424.83 2244.88,-424.83 2244.88,-428.79 2240.92,-432.75 2236.96,-432.75"/>
<text xml:space="preserve" text-anchor="middle" x="2161.88" y="-415.45" font-family="Arial" font-size="14.00" fill="#c6c5fe">session/session.model.js</text>
</g>
<!-- session/rules/rules.service.js&#45;&gt;session/session.model.js -->
<g id="edge89" class="edge">
<title>session/rules/rules.service.js&#45;&gt;session/session.model.js</title>
<path fill="none" stroke="#757575" d="M1890.79,-420.88C1944.94,-420.88 2012.99,-420.88 2067.24,-420.88"/>
<polygon fill="#757575" stroke="#757575" points="2067.08,-424.38 2077.08,-420.88 2067.08,-417.38 2067.08,-424.38"/>
</g>
<!-- session/session.service.js&#45;&gt;../config/log.js -->
<g id="edge105" class="edge">
<title>session/session.service.js&#45;&gt;../config/log.js</title>
<path fill="none" stroke="#757575" d="M1555.21,-279.45C1751.41,-266.54 2227.57,-246.7 2342.75,-347.88 2364.99,-367.41 2443.24,-810.86 2461.96,-918.5"/>
<polygon fill="#757575" stroke="#757575" points="2458.48,-918.91 2463.63,-928.16 2465.37,-917.71 2458.48,-918.91"/>
</g>
<!-- session/session.service.js&#45;&gt;session/rules/rules.service.js -->
<g id="edge107" class="edge">
<title>session/session.service.js&#45;&gt;session/rules/rules.service.js</title>
<path fill="none" stroke="#757575" d="M1499.89,-298.21C1558.63,-322.57 1689.53,-376.84 1755.74,-404.29"/>
<polygon fill="#757575" stroke="#757575" points="1754.2,-407.44 1764.78,-408.03 1756.88,-400.97 1754.2,-407.44"/>
</g>
<!-- session/session.service.js&#45;&gt;misc/misc.tool.js -->
<g id="edge106" class="edge">
<title>session/session.service.js&#45;&gt;misc/misc.tool.js</title>
<path fill="none" stroke="#757575" d="M1554.83,-275.47C1608.5,-268.88 1677.01,-260.46 1727.24,-254.29"/>
<polygon fill="#757575" stroke="#757575" points="1727.63,-257.77 1737.13,-253.08 1726.78,-250.82 1727.63,-257.77"/>
</g>
<!-- session/session.service.js&#45;&gt;session/session.model.js -->
<g id="edge108" class="edge">
<title>session/session.service.js&#45;&gt;session/session.model.js</title>
<path fill="none" stroke="#757575" d="M1533.26,-298.21C1661.05,-323.19 1949.8,-379.62 2086.48,-406.34"/>
<polygon fill="#757575" stroke="#757575" points="2085.67,-409.74 2096.16,-408.23 2087.01,-402.87 2085.67,-409.74"/>
</g>
<!-- gameState/game.state.schema.js -->
<g id="node27" class="node">
<title>gameState/game.state.schema.js</title>
<path fill="none" stroke="#cfffac" d="M2263.21,-883.75C2263.21,-883.75 2060.54,-883.75 2060.54,-883.75 2056.58,-883.75 2052.62,-879.79 2052.62,-875.83 2052.62,-875.83 2052.62,-867.92 2052.62,-867.92 2052.62,-863.96 2056.58,-860 2060.54,-860 2060.54,-860 2263.21,-860 2263.21,-860 2267.17,-860 2271.12,-863.96 2271.12,-867.92 2271.12,-867.92 2271.12,-875.83 2271.12,-875.83 2271.12,-879.79 2267.17,-883.75 2263.21,-883.75"/>
<text xml:space="preserve" text-anchor="middle" x="2161.88" y="-866.45" font-family="Arial" font-size="14.00" fill="#cfffac">gameState/game.state.schema.js</text>
</g>
<!-- gameState/game.state.model.js&#45;&gt;gameState/game.state.schema.js -->
<g id="edge28" class="edge">
<title>gameState/game.state.model.js&#45;&gt;gameState/game.state.schema.js</title>
<path fill="none" stroke="#757575" d="M1900.84,-871.88C1944.42,-871.88 1995.49,-871.88 2040.77,-871.88"/>
<polygon fill="#757575" stroke="#757575" points="2040.63,-875.38 2050.63,-871.88 2040.63,-868.38 2040.63,-875.38"/>
</g>
<!-- gameState/sanitizers/game.state.sanitize.js&#45;&gt;misc/validate.tool.js -->
<g id="edge44" class="edge">
<title>gameState/sanitizers/game.state.sanitize.js&#45;&gt;misc/validate.tool.js</title>
<path fill="none" stroke="#757575" d="M887.27,-437.56C916.48,-427.02 956.3,-409.76 985.75,-385.88 1006.46,-369.08 999.68,-352.84 1021.75,-337.88 1038.3,-326.66 1058.21,-318.93 1077.53,-313.6"/>
<polygon fill="#757575" stroke="#757575" points="1078.2,-317.04 1087.03,-311.19 1076.47,-310.26 1078.2,-317.04"/>
</g>
<!-- gameState/helpers/decks.state.helper.js -->
<g id="node29" class="node">
<title>gameState/helpers/decks.state.helper.js</title>
<path fill="none" stroke="#cfffac" d="M1916.83,-1085.75C1916.83,-1085.75 1676.67,-1085.75 1676.67,-1085.75 1672.71,-1085.75 1668.75,-1081.79 1668.75,-1077.83 1668.75,-1077.83 1668.75,-1069.92 1668.75,-1069.92 1668.75,-1065.96 1672.71,-1062 1676.67,-1062 1676.67,-1062 1916.83,-1062 1916.83,-1062 1920.79,-1062 1924.75,-1065.96 1924.75,-1069.92 1924.75,-1069.92 1924.75,-1077.83 1924.75,-1077.83 1924.75,-1081.79 1920.79,-1085.75 1916.83,-1085.75"/>
<text xml:space="preserve" text-anchor="middle" x="1796.75" y="-1068.45" font-family="Arial" font-size="14.00" fill="#cfffac">gameState/helpers/decks.state.helper.js</text>
</g>
<!-- gameState/helpers/setup.state.helper.js&#45;&gt;gameState/helpers/decks.state.helper.js -->
<g id="edge32" class="edge">
<title>gameState/helpers/setup.state.helper.js&#45;&gt;gameState/helpers/decks.state.helper.js</title>
<path fill="none" stroke="#757575" d="M1596.02,-1054.25C1616.48,-1056.26 1637.76,-1058.35 1658.48,-1060.39"/>
<polygon fill="#757575" stroke="#757575" points="1658.12,-1063.87 1668.42,-1061.36 1658.81,-1056.9 1658.12,-1063.87"/>
</g>
<!-- gameState/managers/BankTimerManager.js -->
<g id="node31" class="node">
<title>gameState/managers/BankTimerManager.js</title>
<path fill="none" stroke="#c6c5fe" d="M1930.33,-1005.75C1930.33,-1005.75 1663.17,-1005.75 1663.17,-1005.75 1659.21,-1005.75 1655.25,-1001.79 1655.25,-997.83 1655.25,-997.83 1655.25,-989.92 1655.25,-989.92 1655.25,-985.96 1659.21,-982 1663.17,-982 1663.17,-982 1930.33,-982 1930.33,-982 1934.29,-982 1938.25,-985.96 1938.25,-989.92 1938.25,-989.92 1938.25,-997.83 1938.25,-997.83 1938.25,-1001.79 1934.29,-1005.75 1930.33,-1005.75"/>
<text xml:space="preserve" text-anchor="middle" x="1796.75" y="-988.45" font-family="Arial" font-size="14.00" fill="#c6c5fe">gameState/managers/BankTimerManager.js</text>
</g>
<!-- gameState/managers/BankTimerManager.js&#45;&gt;../config/log.js -->
<g id="edge33" class="edge">
<title>gameState/managers/BankTimerManager.js&#45;&gt;../config/log.js</title>
<path fill="none" stroke="#757575" d="M1938.65,-982.91C2083.33,-971.65 2301.66,-954.66 2406.15,-946.53"/>
<polygon fill="#757575" stroke="#757575" points="2406.2,-950.04 2415.9,-945.77 2405.66,-943.06 2406.2,-950.04"/>
</g>
<!-- gameState/managers/BankTimerManager.js&#45;&gt;misc/Timer.js -->
<g id="edge34" class="edge">
<title>gameState/managers/BankTimerManager.js&#45;&gt;misc/Timer.js</title>
<path fill="none" stroke="#757575" d="M1938.66,-1005.13C1995.4,-1009.66 2057.71,-1014.64 2101.87,-1018.16"/>
<polygon fill="#757575" stroke="#757575" points="2101.51,-1021.64 2111.75,-1018.95 2102.06,-1014.67 2101.51,-1021.64"/>
</g>
<!-- misc/Timer.js&#45;&gt;../config/log.js -->
<g id="edge67" class="edge">
<title>misc/Timer.js&#45;&gt;../config/log.js</title>
<path fill="none" stroke="#757575" d="M2209.09,-1010.55C2245.42,-1000.86 2297.32,-987.02 2342.75,-974.88 2364.43,-969.08 2388.25,-962.71 2409.12,-957.12"/>
<polygon fill="#757575" stroke="#757575" points="2409.84,-960.55 2418.6,-954.58 2408.03,-953.78 2409.84,-960.55"/>
</g>
<!-- gameState/managers/GameQueueManager.js -->
<g id="node33" class="node">
<title>gameState/managers/GameQueueManager.js</title>
<path fill="none" stroke="#cfffac" d="M1937.08,-963.75C1937.08,-963.75 1656.42,-963.75 1656.42,-963.75 1652.46,-963.75 1648.5,-959.79 1648.5,-955.83 1648.5,-955.83 1648.5,-947.92 1648.5,-947.92 1648.5,-943.96 1652.46,-940 1656.42,-940 1656.42,-940 1937.08,-940 1937.08,-940 1941.04,-940 1945,-943.96 1945,-947.92 1945,-947.92 1945,-955.83 1945,-955.83 1945,-959.79 1941.04,-963.75 1937.08,-963.75"/>
<text xml:space="preserve" text-anchor="middle" x="1796.75" y="-946.45" font-family="Arial" font-size="14.00" fill="#cfffac">gameState/managers/GameQueueManager.js</text>
</g>
<!-- gameState/managers/GameStateManager.js&#45;&gt;../config/log.js -->
<g id="edge35" class="edge">
<title>gameState/managers/GameStateManager.js&#45;&gt;../config/log.js</title>
<path fill="none" stroke="#757575" d="M1526.44,-949.53C1561.38,-942.51 1607.32,-934.43 1648.5,-930.88 1931.22,-906.49 2270.94,-926.9 2406.2,-937.01"/>
<polygon fill="#757575" stroke="#757575" points="2405.76,-940.49 2415.99,-937.75 2406.29,-933.51 2405.76,-940.49"/>
</g>
<!-- gameState/managers/GameStateManager.js&#45;&gt;../config/socket.js -->
<g id="edge36" class="edge">
<title>gameState/managers/GameStateManager.js&#45;&gt;../config/socket.js</title>
<path fill="none" stroke="#757575" d="M1592.38,-949.58C1599.65,-945.88 1606.46,-941.37 1612.5,-935.88 1655.92,-896.42 1617.15,-858.46 1648.5,-808.88 1678.92,-760.77 1732.55,-720.4 1766.01,-698.23"/>
<polygon fill="#757575" stroke="#757575" points="1767.54,-701.41 1774.02,-693.03 1763.73,-695.54 1767.54,-701.41"/>
</g>
<!-- gameState/managers/GameStateManager.js&#45;&gt;session/rules/rules.service.js -->
<g id="edge41" class="edge">
<title>gameState/managers/GameStateManager.js&#45;&gt;session/rules/rules.service.js</title>
<path fill="none" stroke="#757575" d="M1474.2,-949.78C1499.06,-876.09 1629.83,-490.25 1648.5,-471.88 1665.23,-455.4 1687.55,-444.24 1709.73,-436.67"/>
<polygon fill="#757575" stroke="#757575" points="1710.67,-440.05 1719.15,-433.7 1708.56,-433.37 1710.67,-440.05"/>
</g>
<!-- gameState/managers/GameStateManager.js&#45;&gt;gameState/game.state.model.js -->
<g id="edge37" class="edge">
<title>gameState/managers/GameStateManager.js&#45;&gt;gameState/game.state.model.js</title>
<path fill="none" stroke="#757575" d="M1578.73,-949.54C1590.5,-946.03 1602.01,-941.56 1612.5,-935.88 1632.96,-924.79 1628.01,-908.9 1648.5,-897.88 1658.72,-892.38 1669.86,-888 1681.29,-884.53"/>
<polygon fill="#757575" stroke="#757575" points="1682.16,-887.93 1690.86,-881.88 1680.29,-881.18 1682.16,-887.93"/>
</g>
<!-- gameState/managers/GameStateManager.js&#45;&gt;gameState/managers/BankTimerManager.js -->
<g id="edge38" class="edge">
<title>gameState/managers/GameStateManager.js&#45;&gt;gameState/managers/BankTimerManager.js</title>
<path fill="none" stroke="#757575" d="M1596.02,-974.25C1616.48,-976.26 1637.76,-978.35 1658.48,-980.39"/>
<polygon fill="#757575" stroke="#757575" points="1658.12,-983.87 1668.42,-981.36 1658.81,-976.9 1658.12,-983.87"/>
</g>
<!-- gameState/managers/GameStateManager.js&#45;&gt;gameState/managers/GameQueueManager.js -->
<g id="edge39" class="edge">
<title>gameState/managers/GameStateManager.js&#45;&gt;gameState/managers/GameQueueManager.js</title>
<path fill="none" stroke="#757575" d="M1612.95,-957.49C1620.9,-957.24 1628.93,-957 1636.93,-956.75"/>
<polygon fill="#757575" stroke="#757575" points="1636.84,-960.26 1646.73,-956.45 1636.62,-953.26 1636.84,-960.26"/>
</g>
<!-- gameState/managers/GameStateManager.js&#45;&gt;gameState/managers/GameTimerManager.js -->
<g id="edge40" class="edge">
<title>gameState/managers/GameStateManager.js&#45;&gt;gameState/managers/GameTimerManager.js</title>
<path fill="none" stroke="#757575" d="M1589.55,-949.65C1597.77,-945.98 1605.54,-941.45 1612.5,-935.88 1644.52,-910.22 1615.99,-875.9 1648.5,-850.88 1649.84,-849.84 1651.21,-848.85 1652.61,-847.89"/>
<polygon fill="#757575" stroke="#757575" points="1654.13,-851.06 1660.88,-842.9 1650.51,-845.07 1654.13,-851.06"/>
</g>
<!-- gameState/managers/GameTimerManager.js&#45;&gt;../config/log.js -->
<g id="edge42" class="edge">
<title>gameState/managers/GameTimerManager.js&#45;&gt;../config/log.js</title>
<path fill="none" stroke="#757575" d="M1888.05,-817.51C1998.68,-805.9 2190.18,-797.38 2342.75,-850.88 2384.41,-865.48 2423.85,-899.4 2446.45,-921.45"/>
<polygon fill="#757575" stroke="#757575" points="2443.91,-923.85 2453.45,-928.46 2448.86,-918.91 2443.91,-923.85"/>
</g>
<!-- gameState/managers/GameTimerManager.js&#45;&gt;gameState/services/game.state.service.js -->
<g id="edge43" class="edge">
<title>gameState/managers/GameTimerManager.js&#45;&gt;gameState/services/game.state.service.js</title>
<path fill="none" stroke="#757575" d="M1651.28,-831.79C1546.41,-830.33 1405.14,-826.57 1300.45,-822.44"/>
<polygon fill="#757575" stroke="#757575" points="1300.8,-818.95 1290.66,-822.05 1300.52,-825.95 1300.8,-818.95"/>
</g>
<!-- gameState/sanitizers/bank.validation.js -->
<g id="node36" class="node">
<title>gameState/sanitizers/bank.validation.js</title>
<path fill="none" stroke="#cfffac" d="M245.46,-1552.75C245.46,-1552.75 11.29,-1552.75 11.29,-1552.75 7.33,-1552.75 3.38,-1548.79 3.38,-1544.83 3.38,-1544.83 3.38,-1536.92 3.38,-1536.92 3.38,-1532.96 7.33,-1529 11.29,-1529 11.29,-1529 245.46,-1529 245.46,-1529 249.42,-1529 253.38,-1532.96 253.38,-1536.92 253.38,-1536.92 253.38,-1544.83 253.38,-1544.83 253.38,-1548.79 249.42,-1552.75 245.46,-1552.75"/>
<text xml:space="preserve" text-anchor="middle" x="128.38" y="-1535.45" font-family="Arial" font-size="14.00" fill="#cfffac">gameState/sanitizers/bank.validation.js</text>
</g>
<!-- gameState/sanitizers/player.validation.js -->
<g id="node37" class="node">
<title>gameState/sanitizers/player.validation.js</title>
<path fill="none" stroke="#cfffac" d="M248.83,-1594.75C248.83,-1594.75 7.92,-1594.75 7.92,-1594.75 3.96,-1594.75 0,-1590.79 0,-1586.83 0,-1586.83 0,-1578.92 0,-1578.92 0,-1574.96 3.96,-1571 7.92,-1571 7.92,-1571 248.83,-1571 248.83,-1571 252.79,-1571 256.75,-1574.96 256.75,-1578.92 256.75,-1578.92 256.75,-1586.83 256.75,-1586.83 256.75,-1590.79 252.79,-1594.75 248.83,-1594.75"/>
<text xml:space="preserve" text-anchor="middle" x="128.38" y="-1577.45" font-family="Arial" font-size="14.00" fill="#cfffac">gameState/sanitizers/player.validation.js</text>
</g>
<!-- gameState/services/bank.state.service.js&#45;&gt;../config/log.js -->
<g id="edge45" class="edge">
<title>gameState/services/bank.state.service.js&#45;&gt;../config/log.js</title>
<path fill="none" stroke="#757575" d="M1591.29,-1096.21C1598.5,-1097.61 1605.62,-1099.16 1612.5,-1100.88 1629.16,-1105.04 1631.63,-1111.71 1648.5,-1114.88 1953.35,-1172.06 2061.34,-1174.3 2342.75,-1043.88 2385.43,-1024.09 2425.58,-985.84 2447.87,-962.22"/>
<polygon fill="#757575" stroke="#757575" points="2450.27,-964.78 2454.48,-955.06 2445.12,-960.03 2450.27,-964.78"/>
</g>
<!-- gameState/services/bank.state.service.js&#45;&gt;../config/socket.js -->
<g id="edge46" class="edge">
<title>gameState/services/bank.state.service.js&#45;&gt;../config/socket.js</title>
<path fill="none" stroke="#757575" d="M1600.12,-1072.88C1604.56,-1070 1608.71,-1066.68 1612.5,-1062.88 1692.89,-982.03 1594.23,-909.15 1648.5,-808.88 1675.37,-759.23 1729.36,-719.7 1763.97,-698.06"/>
<polygon fill="#757575" stroke="#757575" points="1765.6,-701.16 1772.31,-692.97 1761.95,-695.19 1765.6,-701.16"/>
</g>
<!-- gameState/services/bank.state.service.js&#45;&gt;event/event.service.js -->
<g id="edge47" class="edge">
<title>gameState/services/bank.state.service.js&#45;&gt;event/event.service.js</title>
<path fill="none" stroke="#757575" d="M1585.32,-1096.23C1594.93,-1099.8 1604.15,-1104.28 1612.5,-1109.88 1637.09,-1126.34 1626.39,-1146.21 1648.5,-1165.88 1676.93,-1191.17 1715.84,-1209.69 1746.52,-1221.6"/>
<polygon fill="#757575" stroke="#757575" points="1744.99,-1224.77 1755.59,-1225.01 1747.46,-1218.21 1744.99,-1224.77"/>
</g>
<!-- gameState/services/bank.state.service.js&#45;&gt;gameState/helpers/decks.state.helper.js -->
<g id="edge48" class="edge">
<title>gameState/services/bank.state.service.js&#45;&gt;gameState/helpers/decks.state.helper.js</title>
<path fill="none" stroke="#757575" d="M1600.22,-1079.88C1618.94,-1079.3 1638.26,-1078.71 1657.14,-1078.13"/>
<polygon fill="#757575" stroke="#757575" points="1657.11,-1081.63 1667,-1077.83 1656.89,-1074.64 1657.11,-1081.63"/>
</g>
<!-- gameState/services/bank.state.service.js&#45;&gt;gameState/managers/BankTimerManager.js -->
<g id="edge49" class="edge">
<title>gameState/services/bank.state.service.js&#45;&gt;gameState/managers/BankTimerManager.js</title>
<path fill="none" stroke="#757575" d="M1572.15,-1071.53C1585.81,-1069.09 1599.56,-1066.22 1612.5,-1062.88 1664.47,-1049.42 1722.05,-1026.31 1758.55,-1010.58"/>
<polygon fill="#757575" stroke="#757575" points="1759.55,-1013.96 1767.32,-1006.75 1756.76,-1007.54 1759.55,-1013.96"/>
</g>
<!-- gameState/services/bank.state.service.js&#45;&gt;misc/Timer.js -->
<g id="edge50" class="edge">
<title>gameState/services/bank.state.service.js&#45;&gt;misc/Timer.js</title>
<path fill="none" stroke="#757575" d="M1564.98,-1096.23C1661.34,-1106.41 1814.56,-1116.05 1945,-1094.88 2009.57,-1084.39 2080.93,-1057.35 2123.28,-1039.55"/>
<polygon fill="#757575" stroke="#757575" points="2124.43,-1042.86 2132.26,-1035.72 2121.69,-1036.42 2124.43,-1042.86"/>
</g>
<!-- misc/activeTransactions.js -->
<g id="node39" class="node">
<title>misc/activeTransactions.js</title>
<path fill="none" stroke="#cfffac" d="M207.58,-1636.75C207.58,-1636.75 49.17,-1636.75 49.17,-1636.75 45.21,-1636.75 41.25,-1632.79 41.25,-1628.83 41.25,-1628.83 41.25,-1620.92 41.25,-1620.92 41.25,-1616.96 45.21,-1613 49.17,-1613 49.17,-1613 207.58,-1613 207.58,-1613 211.54,-1613 215.5,-1616.96 215.5,-1620.92 215.5,-1620.92 215.5,-1628.83 215.5,-1628.83 215.5,-1632.79 211.54,-1636.75 207.58,-1636.75"/>
<text xml:space="preserve" text-anchor="middle" x="128.38" y="-1619.45" font-family="Arial" font-size="14.00" fill="#cfffac">misc/activeTransactions.js</text>
</g>
<!-- misc/token.service.js -->
<g id="node41" class="node">
<title>misc/token.service.js</title>
<path fill="none" stroke="#cfffac" d="M191.08,-1678.75C191.08,-1678.75 65.67,-1678.75 65.67,-1678.75 61.71,-1678.75 57.75,-1674.79 57.75,-1670.83 57.75,-1670.83 57.75,-1662.92 57.75,-1662.92 57.75,-1658.96 61.71,-1655 65.67,-1655 65.67,-1655 191.08,-1655 191.08,-1655 195.04,-1655 199,-1658.96 199,-1662.92 199,-1662.92 199,-1670.83 199,-1670.83 199,-1674.79 195.04,-1678.75 191.08,-1678.75"/>
<text xml:space="preserve" text-anchor="middle" x="128.38" y="-1661.45" font-family="Arial" font-size="14.00" fill="#cfffac">misc/token.service.js</text>
</g>
<!-- server.js -->
<g id="node42" class="node">
<title>server.js</title>
<path fill="none" stroke="#c6c5fe" d="M153.58,-1468.75C153.58,-1468.75 103.17,-1468.75 103.17,-1468.75 99.21,-1468.75 95.25,-1464.79 95.25,-1460.83 95.25,-1460.83 95.25,-1452.92 95.25,-1452.92 95.25,-1448.96 99.21,-1445 103.17,-1445 103.17,-1445 153.58,-1445 153.58,-1445 157.54,-1445 161.5,-1448.96 161.5,-1452.92 161.5,-1452.92 161.5,-1460.83 161.5,-1460.83 161.5,-1464.79 157.54,-1468.75 153.58,-1468.75"/>
<text xml:space="preserve" text-anchor="middle" x="128.38" y="-1451.45" font-family="Arial" font-size="14.00" fill="#c6c5fe">server.js</text>
</g>
<!-- server.js&#45;&gt;../config/database.js -->
<g id="edge69" class="edge">
<title>server.js&#45;&gt;../config/database.js</title>
<path fill="none" stroke="#757575" d="M161.86,-1462.06C187.62,-1466.21 224.52,-1472.25 256.75,-1477.88 265.19,-1479.35 274.01,-1480.92 282.79,-1482.51"/>
<polygon fill="#757575" stroke="#757575" points="281.89,-1485.91 292.36,-1484.25 283.15,-1479.02 281.89,-1485.91"/>
</g>
<!-- server.js&#45;&gt;../config/env.js -->
<g id="edge70" class="edge">
<title>server.js&#45;&gt;../config/env.js</title>
<path fill="none" stroke="#757575" d="M161.76,-1456.62C307.04,-1455.49 900.07,-1450.86 1093.45,-1449.35"/>
<polygon fill="#757575" stroke="#757575" points="1093.31,-1452.85 1103.29,-1449.28 1093.26,-1445.85 1093.31,-1452.85"/>
</g>
<!-- server.js&#45;&gt;../config/log.js -->
<g id="edge71" class="edge">
<title>server.js&#45;&gt;../config/log.js</title>
<path fill="none" stroke="#757575" d="M161.91,-1456.4C188.85,-1457.33 227.36,-1461.79 256.75,-1477.88 277.73,-1489.36 271.93,-1506.11 292.75,-1517.88 401.13,-1579.09 443.28,-1570.88 567.75,-1570.88 567.75,-1570.88 567.75,-1570.88 1797.75,-1570.88 2041.07,-1570.88 2161.07,-1680.73 2342.75,-1518.88 2364.2,-1499.76 2442.73,-1070.89 2461.81,-965.24"/>
<polygon fill="#757575" stroke="#757575" points="2465.23,-965.95 2463.56,-955.49 2458.34,-964.71 2465.23,-965.95"/>
</g>
<!-- server.js&#45;&gt;../config/socket.js -->
<g id="edge72" class="edge">
<title>server.js&#45;&gt;../config/socket.js</title>
<path fill="none" stroke="#757575" d="M161.78,-1458.51C189.19,-1458.36 228.41,-1454.38 256.75,-1435.88 564.96,-1234.63 400.66,-943.31 708.75,-741.88 876.43,-632.24 1511.7,-661.66 1725.24,-675.02"/>
<polygon fill="#757575" stroke="#757575" points="1724.88,-678.5 1735.08,-675.64 1725.33,-671.52 1724.88,-678.5"/>
</g>
<!-- server.js&#45;&gt;app.js -->
<g id="edge73" class="edge">
<title>server.js&#45;&gt;app.js</title>
<path fill="none" stroke="#757575" d="M161.87,-1461.73C191.31,-1464.1 233.53,-1462.02 256.75,-1435.88 315.83,-1369.34 275.48,-723.16 292.75,-635.88 304.84,-574.77 333.46,-506.82 349.1,-472.45"/>
<polygon fill="#757575" stroke="#757575" points="352.21,-474.05 353.23,-463.51 345.86,-471.12 352.21,-474.05"/>
</g>
<!-- session/avatar/avatar.controller.js&#45;&gt;../config/log.js -->
<g id="edge74" class="edge">
<title>session/avatar/avatar.controller.js&#45;&gt;../config/log.js</title>
<path fill="none" stroke="#757575" d="M1577.09,-533.26C1589.48,-536.92 1601.57,-541.68 1612.5,-547.88 1633.6,-559.83 1626.79,-578.07 1648.5,-588.88 1786.99,-657.8 2217.6,-548.95 2342.75,-639.88 2436.44,-707.94 2459.09,-859.97 2464.42,-918.39"/>
<polygon fill="#757575" stroke="#757575" points="2460.91,-918.47 2465.21,-928.16 2467.89,-917.91 2460.91,-918.47"/>
</g>
<!-- session/avatar/avatar.controller.js&#45;&gt;../config/socket.js -->
<g id="edge75" class="edge">
<title>session/avatar/avatar.controller.js&#45;&gt;../config/socket.js</title>
<path fill="none" stroke="#757575" d="M1577.21,-529.17C1590,-533.45 1602.16,-539.49 1612.5,-547.88 1645.32,-574.5 1617.19,-607.49 1648.5,-635.88 1669.7,-655.09 1698.97,-665.93 1725.83,-672.04"/>
<polygon fill="#757575" stroke="#757575" points="1724.79,-675.39 1735.29,-673.99 1726.21,-668.54 1724.79,-675.39"/>
</g>
<!-- session/avatar/avatar.service.js -->
<g id="node44" class="node">
<title>session/avatar/avatar.service.js</title>
<path fill="none" stroke="#c6c5fe" d="M1890.58,-504.75C1890.58,-504.75 1702.92,-504.75 1702.92,-504.75 1698.96,-504.75 1695,-500.79 1695,-496.83 1695,-496.83 1695,-488.92 1695,-488.92 1695,-484.96 1698.96,-481 1702.92,-481 1702.92,-481 1890.58,-481 1890.58,-481 1894.54,-481 1898.5,-484.96 1898.5,-488.92 1898.5,-488.92 1898.5,-496.83 1898.5,-496.83 1898.5,-500.79 1894.54,-504.75 1890.58,-504.75"/>
<text xml:space="preserve" text-anchor="middle" x="1796.75" y="-487.45" font-family="Arial" font-size="14.00" fill="#c6c5fe">session/avatar/avatar.service.js</text>
</g>
<!-- session/avatar/avatar.controller.js&#45;&gt;session/avatar/avatar.service.js -->
<g id="edge76" class="edge">
<title>session/avatar/avatar.controller.js&#45;&gt;session/avatar/avatar.service.js</title>
<path fill="none" stroke="#757575" d="M1577.2,-512.34C1611.32,-509.3 1649.16,-505.93 1683.63,-502.86"/>
<polygon fill="#757575" stroke="#757575" points="1683.53,-506.38 1693.18,-502.01 1682.91,-499.41 1683.53,-506.38"/>
</g>
<!-- session/avatar/avatar.service.js&#45;&gt;session/session.model.js -->
<g id="edge81" class="edge">
<title>session/avatar/avatar.service.js&#45;&gt;session/session.model.js</title>
<path fill="none" stroke="#757575" d="M1859.76,-480.58C1922.76,-468.09 2020.33,-448.74 2087.22,-435.48"/>
<polygon fill="#757575" stroke="#757575" points="2087.9,-438.91 2097.03,-433.53 2086.54,-432.05 2087.9,-438.91"/>
</g>
<!-- session/avatar/avatar.sanitize.js&#45;&gt;misc/validate.tool.js -->
<g id="edge80" class="edge">
<title>session/avatar/avatar.sanitize.js&#45;&gt;misc/validate.tool.js</title>
<path fill="none" stroke="#757575" d="M924.01,-264.23C970.61,-271.84 1030.17,-281.55 1077.1,-289.21"/>
<polygon fill="#757575" stroke="#757575" points="1076.51,-292.66 1086.95,-290.81 1077.64,-285.75 1076.51,-292.66"/>
</g>
<!-- session/avatar/avatar.schema.js -->
<g id="node46" class="node">
<title>session/avatar/avatar.schema.js</title>
<path fill="none" stroke="#cfffac" d="M2792.08,-453.75C2792.08,-453.75 2599.17,-453.75 2599.17,-453.75 2595.21,-453.75 2591.25,-449.79 2591.25,-445.83 2591.25,-445.83 2591.25,-437.92 2591.25,-437.92 2591.25,-433.96 2595.21,-430 2599.17,-430 2599.17,-430 2792.08,-430 2792.08,-430 2796.04,-430 2800,-433.96 2800,-437.92 2800,-437.92 2800,-445.83 2800,-445.83 2800,-449.79 2796.04,-453.75 2792.08,-453.75"/>
<text xml:space="preserve" text-anchor="middle" x="2695.62" y="-436.45" font-family="Arial" font-size="14.00" fill="#cfffac">session/avatar/avatar.schema.js</text>
</g>
<!-- session/session.schema.js -->
<g id="node53" class="node">
<title>session/session.schema.js</title>
<path fill="none" stroke="#c6c5fe" d="M2547.33,-432.75C2547.33,-432.75 2386.67,-432.75 2386.67,-432.75 2382.71,-432.75 2378.75,-428.79 2378.75,-424.83 2378.75,-424.83 2378.75,-416.92 2378.75,-416.92 2378.75,-412.96 2382.71,-409 2386.67,-409 2386.67,-409 2547.33,-409 2547.33,-409 2551.29,-409 2555.25,-412.96 2555.25,-416.92 2555.25,-416.92 2555.25,-424.83 2555.25,-424.83 2555.25,-428.79 2551.29,-432.75 2547.33,-432.75"/>
<text xml:space="preserve" text-anchor="middle" x="2467" y="-415.45" font-family="Arial" font-size="14.00" fill="#c6c5fe">session/session.schema.js</text>
</g>
<!-- session/session.model.js&#45;&gt;session/session.schema.js -->
<g id="edge98" class="edge">
<title>session/session.model.js&#45;&gt;session/session.schema.js</title>
<path fill="none" stroke="#757575" d="M2245.3,-420.88C2282.8,-420.88 2327.49,-420.88 2366.81,-420.88"/>
<polygon fill="#757575" stroke="#757575" points="2366.77,-424.38 2376.77,-420.88 2366.77,-417.38 2366.77,-424.38"/>
</g>
<!-- session/rules/rules.controller.js&#45;&gt;../config/log.js -->
<g id="edge82" class="edge">
<title>session/rules/rules.controller.js&#45;&gt;../config/log.js</title>
<path fill="none" stroke="#757575" d="M1569.43,-491.92C1583.97,-494.43 1598.69,-497.4 1612.5,-500.88 1629,-505.03 1631.95,-509.94 1648.5,-513.88 1950.87,-585.78 2099.83,-404 2342.75,-597.88 2445.5,-679.88 2462.66,-854.53 2465.47,-918.1"/>
<polygon fill="#757575" stroke="#757575" points="2461.97,-918.21 2465.82,-928.08 2468.97,-917.96 2461.97,-918.21"/>
</g>
<!-- session/rules/rules.controller.js&#45;&gt;../config/socket.js -->
<g id="edge83" class="edge">
<title>session/rules/rules.controller.js&#45;&gt;../config/socket.js</title>
<path fill="none" stroke="#757575" d="M1569.38,-481.04C1584.96,-484.87 1600.01,-491.09 1612.5,-500.88 1645.77,-526.93 1621.19,-556.63 1648.5,-588.88 1677.16,-622.71 1721.69,-647.77 1754.28,-662.93"/>
<polygon fill="#757575" stroke="#757575" points="1752.47,-665.95 1763.03,-666.88 1755.36,-659.57 1752.47,-665.95"/>
</g>
<!-- session/rules/rules.controller.js&#45;&gt;session/rules/rules.service.js -->
<g id="edge84" class="edge">
<title>session/rules/rules.controller.js&#45;&gt;session/rules/rules.service.js</title>
<path fill="none" stroke="#757575" d="M1538.39,-467.51C1590.38,-458.09 1662.06,-445.1 1716.57,-435.22"/>
<polygon fill="#757575" stroke="#757575" points="1716.87,-438.72 1726.09,-433.5 1715.63,-431.84 1716.87,-438.72"/>
</g>
<!-- session/rules/rules.sanitize.js&#45;&gt;misc/validate.tool.js -->
<g id="edge88" class="edge">
<title>session/rules/rules.sanitize.js&#45;&gt;misc/validate.tool.js</title>
<path fill="none" stroke="#757575" d="M942.92,-137.84C958.62,-142.2 973.69,-149.12 985.75,-159.88 1026.03,-195.81 981.58,-239.82 1021.75,-275.88 1037.04,-289.6 1057.38,-296.99 1077.53,-300.76"/>
<polygon fill="#757575" stroke="#757575" points="1076.77,-304.18 1087.19,-302.27 1077.85,-297.27 1076.77,-304.18"/>
</g>
<!-- session/rules/rules.schema.js -->
<g id="node50" class="node">
<title>session/rules/rules.schema.js</title>
<path fill="none" stroke="#cfffac" d="M2784.21,-411.75C2784.21,-411.75 2607.04,-411.75 2607.04,-411.75 2603.08,-411.75 2599.12,-407.79 2599.12,-403.83 2599.12,-403.83 2599.12,-395.92 2599.12,-395.92 2599.12,-391.96 2603.08,-388 2607.04,-388 2607.04,-388 2784.21,-388 2784.21,-388 2788.17,-388 2792.12,-391.96 2792.12,-395.92 2792.12,-395.92 2792.12,-403.83 2792.12,-403.83 2792.12,-407.79 2788.17,-411.75 2784.21,-411.75"/>
<text xml:space="preserve" text-anchor="middle" x="2695.62" y="-394.45" font-family="Arial" font-size="14.00" fill="#cfffac">session/rules/rules.schema.js</text>
</g>
<!-- session/session.controller.js&#45;&gt;../config/env.js -->
<g id="edge90" class="edge">
<title>session/session.controller.js&#45;&gt;../config/env.js</title>
<path fill="none" stroke="#757575" d="M868.63,-622.24C900.19,-642.67 959.92,-686.74 985.75,-741.88 1033.95,-844.76 984.7,-1144.47 1021.75,-1251.88 1046.7,-1324.21 1105.29,-1395.11 1135.69,-1428.71"/>
<polygon fill="#757575" stroke="#757575" points="1132.75,-1430.69 1142.1,-1435.68 1137.91,-1425.95 1132.75,-1430.69"/>
</g>
<!-- session/session.controller.js&#45;&gt;../config/log.js -->
<g id="edge91" class="edge">
<title>session/session.controller.js&#45;&gt;../config/log.js</title>
<path fill="none" stroke="#757575" d="M900.94,-597.59C928.4,-589.23 961.26,-575.96 985.75,-555.88 1008.63,-537.11 998.32,-517.94 1021.75,-499.88 1120.94,-423.42 1188.59,-486.69 1289.75,-412.88 1311.87,-396.74 1301.38,-375.36 1325.75,-362.88 1419.44,-314.89 2230.33,-305.4 2342.75,-399.88 2424.5,-468.58 2457.02,-823.61 2464.33,-918.52"/>
<polygon fill="#757575" stroke="#757575" points="2460.83,-918.69 2465.07,-928.4 2467.81,-918.16 2460.83,-918.69"/>
</g>
<!-- session/session.controller.js&#45;&gt;../config/socket.js -->
<g id="edge92" class="edge">
<title>session/session.controller.js&#45;&gt;../config/socket.js</title>
<path fill="none" stroke="#757575" d="M939.08,-602.73C1083.11,-593.37 1372.17,-582.61 1612.5,-623.88 1629.12,-626.73 1632.42,-630.79 1648.5,-635.88 1679.49,-645.67 1714.34,-656.11 1742.35,-664.36"/>
<polygon fill="#757575" stroke="#757575" points="1741.08,-667.63 1751.66,-667.09 1743.05,-660.92 1741.08,-667.63"/>
</g>
<!-- session/session.controller.js&#45;&gt;event/event.service.js -->
<g id="edge93" class="edge">
<title>session/session.controller.js&#45;&gt;event/event.service.js</title>
<path fill="none" stroke="#757575" d="M867.81,-622.06C898.8,-642.55 958.45,-687.08 985.75,-741.88 1046.03,-862.86 946.15,-931.82 1021.75,-1043.88 1173.33,-1268.53 1545.23,-1263.12 1712.21,-1248.08"/>
<polygon fill="#757575" stroke="#757575" points="1712.25,-1251.59 1721.88,-1247.17 1711.6,-1244.62 1712.25,-1251.59"/>
</g>
<!-- session/session.controller.js&#45;&gt;gameState/services/game.state.service.js -->
<g id="edge94" class="edge">
<title>session/session.controller.js&#45;&gt;gameState/services/game.state.service.js</title>
<path fill="none" stroke="#757575" d="M866.51,-621.97C918.02,-656.09 1064.8,-753.3 1126.69,-794.29"/>
<polygon fill="#757575" stroke="#757575" points="1124.67,-797.15 1134.94,-799.76 1128.54,-791.32 1124.67,-797.15"/>
</g>
<!-- session/session.controller.js&#45;&gt;session/rules/rules.service.js -->
<g id="edge95" class="edge">
<title>session/session.controller.js&#45;&gt;session/rules/rules.service.js</title>
<path fill="none" stroke="#757575" d="M939.19,-597.77C1053.1,-580.86 1239.49,-546.89 1289.75,-499.88 1327.94,-464.16 1283.5,-418.67 1325.75,-387.88 1388.44,-342.18 1616.26,-382.32 1730.09,-406.18"/>
<polygon fill="#757575" stroke="#757575" points="1729.08,-409.54 1739.59,-408.19 1730.54,-402.69 1729.08,-409.54"/>
</g>
<!-- session/session.controller.js&#45;&gt;session/session.service.js -->
<g id="edge96" class="edge">
<title>session/session.controller.js&#45;&gt;session/session.service.js</title>
<path fill="none" stroke="#757575" d="M907.82,-597.57C934.42,-589.5 964.49,-576.5 985.75,-555.88 1014.91,-527.6 994.19,-501.72 1021.75,-471.88 1125.33,-359.7 1181.43,-361.72 1325.75,-311.88 1340.51,-306.78 1356.5,-302.62 1372.25,-299.25"/>
<polygon fill="#757575" stroke="#757575" points="1372.51,-302.77 1381.61,-297.34 1371.11,-295.91 1372.51,-302.77"/>
</g>
<!-- survey/survey.service.js -->
<g id="node52" class="node">
<title>survey/survey.service.js</title>
<path fill="none" stroke="#c6c5fe" d="M1227.08,-177.75C1227.08,-177.75 1084.42,-177.75 1084.42,-177.75 1080.46,-177.75 1076.5,-173.79 1076.5,-169.83 1076.5,-169.83 1076.5,-161.92 1076.5,-161.92 1076.5,-157.96 1080.46,-154 1084.42,-154 1084.42,-154 1227.08,-154 1227.08,-154 1231.04,-154 1235,-157.96 1235,-161.92 1235,-161.92 1235,-169.83 1235,-169.83 1235,-173.79 1231.04,-177.75 1227.08,-177.75"/>
<text xml:space="preserve" text-anchor="middle" x="1155.75" y="-160.45" font-family="Arial" font-size="14.00" fill="#c6c5fe">survey/survey.service.js</text>
</g>
<!-- session/session.controller.js&#45;&gt;survey/survey.service.js -->
<g id="edge97" class="edge">
<title>session/session.controller.js&#45;&gt;survey/survey.service.js</title>
<path fill="none" stroke="#757575" d="M877.81,-597.62C909.96,-582.64 960.19,-554.09 985.75,-512.88 1040.75,-424.2 971.19,-372.15 1021.75,-280.88 1045.51,-237.99 1091.81,-203.65 1123.01,-184.01"/>
<polygon fill="#757575" stroke="#757575" points="1124.58,-187.16 1131.28,-178.95 1120.92,-181.19 1124.58,-187.16"/>
</g>
<!-- survey/survey.model.js -->
<g id="node56" class="node">
<title>survey/survey.model.js</title>
<path fill="none" stroke="#c6c5fe" d="M1537.83,-177.75C1537.83,-177.75 1400.42,-177.75 1400.42,-177.75 1396.46,-177.75 1392.5,-173.79 1392.5,-169.83 1392.5,-169.83 1392.5,-161.92 1392.5,-161.92 1392.5,-157.96 1396.46,-154 1400.42,-154 1400.42,-154 1537.83,-154 1537.83,-154 1541.79,-154 1545.75,-157.96 1545.75,-161.92 1545.75,-161.92 1545.75,-169.83 1545.75,-169.83 1545.75,-173.79 1541.79,-177.75 1537.83,-177.75"/>
<text xml:space="preserve" text-anchor="middle" x="1469.12" y="-160.45" font-family="Arial" font-size="14.00" fill="#c6c5fe">survey/survey.model.js</text>
</g>
<!-- survey/survey.service.js&#45;&gt;survey/survey.model.js -->
<g id="edge117" class="edge">
<title>survey/survey.service.js&#45;&gt;survey/survey.model.js</title>
<path fill="none" stroke="#757575" d="M1235.32,-165.88C1279.67,-165.88 1335.18,-165.88 1380.87,-165.88"/>
<polygon fill="#757575" stroke="#757575" points="1380.75,-169.38 1390.75,-165.88 1380.75,-162.38 1380.75,-169.38"/>
</g>
<!-- session/session.schema.js&#45;&gt;session/avatar/avatar.schema.js -->
<g id="edge103" class="edge">
<title>session/session.schema.js&#45;&gt;session/avatar/avatar.schema.js</title>
<path fill="none" stroke="#757575" d="M2555.62,-428.99C2563.49,-429.72 2571.54,-430.47 2579.6,-431.22"/>
<polygon fill="#757575" stroke="#757575" points="2579.2,-434.69 2589.48,-432.13 2579.84,-427.72 2579.2,-434.69"/>
</g>
<!-- session/session.schema.js&#45;&gt;session/rules/rules.schema.js -->
<g id="edge104" class="edge">
<title>session/session.schema.js&#45;&gt;session/rules/rules.schema.js</title>
<path fill="none" stroke="#757575" d="M2555.62,-412.76C2566.16,-411.78 2577.01,-410.77 2587.78,-409.78"/>
<polygon fill="#757575" stroke="#757575" points="2587.82,-413.29 2597.46,-408.88 2587.18,-406.32 2587.82,-413.29"/>
</g>
<!-- session/session.sanitize.js&#45;&gt;misc/validate.tool.js -->
<g id="edge102" class="edge">
<title>session/session.sanitize.js&#45;&gt;misc/validate.tool.js</title>
<path fill="none" stroke="#757575" d="M934.85,-323.4C979.7,-319.01 1034.01,-313.69 1077.43,-309.44"/>
<polygon fill="#757575" stroke="#757575" points="1077.68,-312.94 1087.29,-308.48 1077,-305.97 1077.68,-312.94"/>
</g>
<!-- survey/survey.controller.js&#45;&gt;../config/log.js -->
<g id="edge109" class="edge">
<title>survey/survey.controller.js&#45;&gt;../config/log.js</title>
<path fill="none" stroke="#757575" d="M932.87,-20.36C1052.12,-31.56 1276.48,-49.88 1468.12,-49.88 1468.12,-49.88 1468.12,-49.88 1797.75,-49.88 2058.47,-49.88 2177.55,-65.18 2342.75,-266.88 2348.11,-273.42 2441.05,-800.11 2461.88,-918.45"/>
<polygon fill="#757575" stroke="#757575" points="2458.42,-918.98 2463.6,-928.22 2465.31,-917.77 2458.42,-918.98"/>
</g>
<!-- survey/survey.controller.js&#45;&gt;../config/socket.js -->
<g id="edge110" class="edge">
<title>survey/survey.controller.js&#45;&gt;../config/socket.js</title>
<path fill="none" stroke="#757575" d="M932.67,-9.22C952.12,-12.53 971.3,-19.51 985.75,-32.88 1037.35,-80.6 974.79,-134.57 1021.75,-186.88 1106.07,-280.8 1209.89,-183.12 1289.75,-280.88 1364.11,-371.9 1244.15,-458.28 1325.75,-542.88 1415.56,-635.99 1491.45,-547.23 1612.5,-592.88 1630.05,-599.49 1631.89,-606.18 1648.5,-614.88 1683.34,-633.11 1724.37,-650.94 1754.26,-663.29"/>
<polygon fill="#757575" stroke="#757575" points="1752.75,-666.46 1763.33,-667.02 1755.41,-659.98 1752.75,-666.46"/>
</g>
<!-- survey/survey.controller.js&#45;&gt;survey/survey.service.js -->
<g id="edge111" class="edge">
<title>survey/survey.controller.js&#45;&gt;survey/survey.service.js</title>
<path fill="none" stroke="#757575" d="M932.95,-17.23C950.93,-20.43 969.41,-25.36 985.75,-32.88 1004.93,-41.7 1005.37,-50.56 1021.75,-63.88 1058.35,-93.63 1101.92,-126.6 1128.97,-146.78"/>
<polygon fill="#757575" stroke="#757575" points="1126.81,-149.54 1136.92,-152.7 1130.99,-143.93 1126.81,-149.54"/>
</g>
<!-- survey/survey.schema.js -->
<g id="node57" class="node">
<title>survey/survey.schema.js</title>
<path fill="none" stroke="#cfffac" d="M1870.71,-177.75C1870.71,-177.75 1722.79,-177.75 1722.79,-177.75 1718.83,-177.75 1714.88,-173.79 1714.88,-169.83 1714.88,-169.83 1714.88,-161.92 1714.88,-161.92 1714.88,-157.96 1718.83,-154 1722.79,-154 1722.79,-154 1870.71,-154 1870.71,-154 1874.67,-154 1878.62,-157.96 1878.62,-161.92 1878.62,-161.92 1878.62,-169.83 1878.62,-169.83 1878.62,-173.79 1874.67,-177.75 1870.71,-177.75"/>
<text xml:space="preserve" text-anchor="middle" x="1796.75" y="-160.45" font-family="Arial" font-size="14.00" fill="#cfffac">survey/survey.schema.js</text>
</g>
<!-- survey/survey.model.js&#45;&gt;survey/survey.schema.js -->
<g id="edge112" class="edge">
<title>survey/survey.model.js&#45;&gt;survey/survey.schema.js</title>
<path fill="none" stroke="#757575" d="M1546.06,-165.88C1592.96,-165.88 1653.46,-165.88 1703.16,-165.88"/>
<polygon fill="#757575" stroke="#757575" points="1703.05,-169.38 1713.05,-165.88 1703.05,-162.38 1703.05,-169.38"/>
</g>
<!-- survey/survey.sanitize.js&#45;&gt;misc/validate.tool.js -->
<g id="edge116" class="edge">
<title>survey/survey.sanitize.js&#45;&gt;misc/validate.tool.js</title>
<path fill="none" stroke="#757575" d="M928.34,-53.12C949.47,-56.82 970.59,-64.63 985.75,-79.88 1048.21,-142.67 959.48,-212.89 1021.75,-275.88 1036.4,-290.7 1056.84,-298.37 1077.31,-302.08"/>
<polygon fill="#757575" stroke="#757575" points="1076.75,-305.53 1087.15,-303.52 1077.77,-298.61 1076.75,-305.53"/>
</g>
</g>
</svg>
